NotoSansMyanmar-Bold.ufo
<glyph name="question" format="2">
  <advance width="505"/>
  <unicode hex="003F"/>
  <outline>
    <contour>
      <point x="144" y="293" type="line"/>
      <point x="294" y="293" type="line"/>
      <point x="298" y="300" type="line" smooth="yes"/>
      <point x="307" y="316"/>
      <point x="320" y="329"/>
      <point x="371" y="362" type="curve" smooth="yes"/>
      <point x="455" y="416"/>
      <point x="487" y="469"/>
      <point x="487" y="546" type="curve" smooth="yes"/>
      <point x="487" y="653"/>
      <point x="402" y="724"/>
      <point x="254" y="724" type="curve" smooth="yes"/>
      <point x="156" y="724"/>
      <point x="73" y="697"/>
      <point x="0" y="655" type="curve"/>
      <point x="68" y="522" type="line"/>
      <point x="133" y="556"/>
      <point x="191" y="574"/>
      <point x="240" y="574" type="curve" smooth="yes"/>
      <point x="280" y="574"/>
      <point x="307" y="557"/>
      <point x="307" y="530" type="curve" smooth="yes"/>
      <point x="307" y="503"/>
      <point x="299" y="481"/>
      <point x="233" y="439" type="curve" smooth="yes"/>
      <point x="163" y="395"/>
      <point x="148" y="358"/>
      <point x="145" y="308" type="curve" smooth="yes"/>
    </contour>
    <contour>
      <point x="221" y="-8" type="curve"/>
      <point x="305" y="-8"/>
      <point x="364" y="38"/>
      <point x="364" y="121" type="curve" smooth="yes"/>
      <point x="364" y="190"/>
      <point x="307" y="248"/>
      <point x="221" y="248" type="curve" smooth="yes"/>
      <point x="138" y="248"/>
      <point x="82" y="199"/>
      <point x="82" y="120" type="curve" smooth="yes"/>
      <point x="82" y="39"/>
      <point x="138" y="-8"/>
    </contour>
    <contour>
      <point x="224" y="78" type="curve" smooth="yes"/>
      <point x="197" y="78"/>
      <point x="185" y="95"/>
      <point x="185" y="119" type="curve" smooth="yes"/>
      <point x="185" y="146"/>
      <point x="202" y="162"/>
      <point x="224" y="162" type="curve" smooth="yes"/>
      <point x="246" y="162"/>
      <point x="262" y="148"/>
      <point x="262" y="120" type="curve" smooth="yes"/>
      <point x="262" y="96"/>
      <point x="246" y="78"/>
    </contour>
  </outline>
</glyph>
<glyph name="ka" format="2">
  <advance width="1121"/>
  <unicode hex="1000"/>
  <note>
ka
</note>
  <outline>
    <contour>
      <point x="203" y="-10" type="curve"/>
      <point x="294" y="147" type="line"/>
      <point x="247" y="199"/>
      <point x="240" y="238"/>
      <point x="240" y="284" type="curve" smooth="yes"/>
      <point x="240" y="358"/>
      <point x="286" y="413"/>
      <point x="355" y="413" type="curve" smooth="yes"/>
      <point x="424" y="413"/>
      <point x="473" y="362"/>
      <point x="473" y="284" type="curve" smooth="yes"/>
      <point x="473" y="242"/>
      <point x="460" y="190"/>
      <point x="398" y="147" type="curve"/>
      <point x="489" y="-10" type="line"/>
      <point x="594" y="45"/>
      <point x="641" y="148"/>
      <point x="641" y="283" type="curve" smooth="yes"/>
      <point x="641" y="463"/>
      <point x="542" y="563"/>
      <point x="348" y="563" type="curve" smooth="yes"/>
      <point x="163" y="563"/>
      <point x="48" y="449"/>
      <point x="48" y="283" type="curve" smooth="yes"/>
      <point x="48" y="131"/>
      <point x="112" y="40"/>
    </contour>
    <contour>
      <point x="804" y="-11" type="curve" smooth="yes"/>
      <point x="951" y="-11"/>
      <point x="1072" y="114"/>
      <point x="1072" y="276" type="curve" smooth="yes"/>
      <point x="1072" y="448"/>
      <point x="941" y="563"/>
      <point x="763" y="563" type="curve" smooth="yes"/>
      <point x="682" y="563"/>
      <point x="603" y="540"/>
      <point x="553" y="483" type="curve"/>
      <point x="635" y="333" type="line"/>
      <point x="639" y="365"/>
      <point x="678" y="413"/>
      <point x="750" y="413" type="curve" smooth="yes"/>
      <point x="824" y="413"/>
      <point x="880" y="363"/>
      <point x="880" y="278" type="curve" smooth="yes"/>
      <point x="880" y="203"/>
      <point x="846" y="152"/>
      <point x="789" y="152" type="curve" smooth="yes"/>
      <point x="766" y="152"/>
      <point x="744" y="158"/>
      <point x="723" y="166" type="curve"/>
      <point x="661" y="25" type="line"/>
      <point x="694" y="0"/>
      <point x="765" y="-11"/>
    </contour>
  </outline>
</glyph>
<glyph name="kha" format="2">
  <advance width="734"/>
  <unicode hex="1001"/>
  <note>
kha
</note>
  <outline>
    <contour>
      <point x="355" y="-10" type="curve" smooth="yes"/>
      <point x="541" y="-10"/>
      <point x="686" y="80"/>
      <point x="686" y="276" type="curve" smooth="yes"/>
      <point x="686" y="467"/>
      <point x="562" y="563"/>
      <point x="328" y="563" type="curve" smooth="yes"/>
      <point x="238" y="563"/>
      <point x="170" y="553"/>
      <point x="80" y="519" type="curve"/>
      <point x="127" y="388" type="line"/>
      <point x="212" y="418"/>
      <point x="272" y="426"/>
      <point x="327" y="426" type="curve" smooth="yes"/>
      <point x="437" y="426"/>
      <point x="494" y="382"/>
      <point x="494" y="275" type="curve" smooth="yes"/>
      <point x="494" y="184"/>
      <point x="458" y="130"/>
      <point x="350" y="130" type="curve" smooth="yes"/>
      <point x="296" y="130"/>
      <point x="234" y="152"/>
      <point x="222" y="167" type="curve"/>
      <point x="279" y="189"/>
      <point x="334" y="196"/>
      <point x="368" y="196" type="curve" smooth="yes"/>
      <point x="403" y="196"/>
      <point x="452" y="191"/>
      <point x="498" y="176" type="curve"/>
      <point x="517" y="295" type="line"/>
      <point x="455" y="310"/>
      <point x="403" y="312"/>
      <point x="354" y="312" type="curve" smooth="yes"/>
      <point x="242" y="312"/>
      <point x="162" y="292"/>
      <point x="47" y="240" type="curve"/>
      <point x="61" y="86"/>
      <point x="177" y="-10"/>
    </contour>
  </outline>
</glyph>
<glyph name="gha" format="2">
  <advance width="1122"/>
  <unicode hex="1003"/>
  <note>
gha
</note>
  <outline>
    <contour>
      <point x="329" y="-10" type="curve" smooth="yes"/>
      <point x="572" y="-10"/>
      <point x="642" y="125"/>
      <point x="642" y="268" type="curve" smooth="yes"/>
      <point x="642" y="441"/>
      <point x="574" y="519"/>
      <point x="490" y="563" type="curve"/>
      <point x="401" y="406" type="line"/>
      <point x="463" y="362"/>
      <point x="475" y="309"/>
      <point x="475" y="267" type="curve" smooth="yes"/>
      <point x="475" y="191"/>
      <point x="426" y="140"/>
      <point x="329" y="140" type="curve" smooth="yes"/>
      <point x="276" y="140"/>
      <point x="244" y="166"/>
      <point x="244" y="208" type="curve" smooth="yes"/>
      <point x="244" y="232"/>
      <point x="253" y="250"/>
      <point x="288" y="277" type="curve" smooth="yes"/>
      <point x="331" y="311"/>
      <point x="369" y="359"/>
      <point x="369" y="422" type="curve" smooth="yes"/>
      <point x="369" y="513"/>
      <point x="312" y="564"/>
      <point x="206" y="564" type="curve" smooth="yes"/>
      <point x="139" y="564"/>
      <point x="63" y="529"/>
      <point x="28" y="464" type="curve"/>
      <point x="107" y="383" type="line"/>
      <point x="123" y="406"/>
      <point x="154" y="431"/>
      <point x="181" y="431" type="curve" smooth="yes"/>
      <point x="197" y="431"/>
      <point x="202" y="422"/>
      <point x="202" y="414" type="curve" smooth="yes"/>
      <point x="202" y="392"/>
      <point x="174" y="375"/>
      <point x="128" y="334" type="curve" smooth="yes"/>
      <point x="80" y="291"/>
      <point x="53" y="250"/>
      <point x="53" y="193" type="curve" smooth="yes"/>
      <point x="53" y="68"/>
      <point x="169" y="-10"/>
    </contour>
    <contour>
      <point x="765" y="-10" type="curve" smooth="yes"/>
      <point x="951" y="-10"/>
      <point x="1073" y="89"/>
      <point x="1073" y="275" type="curve" smooth="yes"/>
      <point x="1073" y="424"/>
      <point x="986" y="563"/>
      <point x="799" y="563" type="curve" smooth="yes"/>
      <point x="736" y="563"/>
      <point x="690" y="547"/>
      <point x="663" y="527" type="curve"/>
      <point x="725" y="386" type="line"/>
      <point x="748" y="398"/>
      <point x="765" y="401"/>
      <point x="790" y="401" type="curve" smooth="yes"/>
      <point x="845" y="401"/>
      <point x="881" y="354"/>
      <point x="881" y="273" type="curve" smooth="yes"/>
      <point x="881" y="201"/>
      <point x="835" y="139"/>
      <point x="767" y="139" type="curve" smooth="yes"/>
      <point x="683" y="139"/>
      <point x="644" y="185"/>
      <point x="634" y="219" type="curve"/>
      <point x="557" y="63" type="line"/>
      <point x="586" y="38"/>
      <point x="643" y="-10"/>
    </contour>
  </outline>
</glyph>
<glyph name="nga" format="2">
  <advance width="688"/>
  <unicode hex="1004"/>
  <note>
nga
</note>
  <outline>
    <contour>
      <point x="370" y="-8" type="curve" smooth="yes"/>
      <point x="493" y="-8"/>
      <point x="594" y="46"/>
      <point x="643" y="117" type="curve"/>
      <point x="500" y="194" type="line"/>
      <point x="464" y="161"/>
      <point x="428" y="142"/>
      <point x="375" y="142" type="curve" smooth="yes"/>
      <point x="295" y="142"/>
      <point x="240" y="189"/>
      <point x="240" y="275" type="curve" smooth="yes"/>
      <point x="240" y="355"/>
      <point x="292" y="412"/>
      <point x="375" y="412" type="curve" smooth="yes"/>
      <point x="421" y="412"/>
      <point x="455" y="402"/>
      <point x="495" y="369" type="curve"/>
      <point x="621" y="451" type="line"/>
      <point x="576" y="521"/>
      <point x="475" y="563"/>
      <point x="370" y="563" type="curve" smooth="yes"/>
      <point x="183" y="563"/>
      <point x="48" y="450"/>
      <point x="48" y="276" type="curve" smooth="yes"/>
      <point x="48" y="105"/>
      <point x="186" y="-8"/>
    </contour>
  </outline>
</glyph>
<glyph name="ca" format="2">
  <advance width="734"/>
  <unicode hex="1005"/>
  <note>
ca
</note>
  <outline>
    <contour>
      <point x="370" y="-10" type="curve" smooth="yes"/>
      <point x="555" y="-10"/>
      <point x="685" y="105"/>
      <point x="685" y="276" type="curve" smooth="yes"/>
      <point x="685" y="439"/>
      <point x="560" y="563"/>
      <point x="368" y="563" type="curve" smooth="yes"/>
      <point x="183" y="563"/>
      <point x="48" y="451"/>
      <point x="48" y="276" type="curve" smooth="yes"/>
      <point x="48" y="102"/>
      <point x="183" y="-10"/>
    </contour>
    <contour>
      <point x="347" y="115" type="line"/>
      <point x="379" y="179"/>
      <point x="389" y="225"/>
      <point x="389" y="277" type="curve" smooth="yes"/>
      <point x="389" y="337"/>
      <point x="371" y="386"/>
      <point x="353" y="433" type="curve"/>
      <point x="254" y="399" type="line"/>
      <point x="269" y="371"/>
      <point x="280" y="338"/>
      <point x="280" y="283" type="curve" smooth="yes"/>
      <point x="280" y="223"/>
      <point x="270" y="197"/>
      <point x="249" y="152" type="curve"/>
    </contour>
    <contour>
      <point x="336" y="141" type="curve" smooth="yes"/>
      <point x="238" y="141"/>
      <point x="189" y="208"/>
      <point x="189" y="278" type="curve" smooth="yes"/>
      <point x="189" y="346"/>
      <point x="240" y="412"/>
      <point x="347" y="412" type="curve" smooth="yes"/>
      <point x="436" y="412"/>
      <point x="494" y="360"/>
      <point x="494" y="278" type="curve" smooth="yes"/>
      <point x="494" y="186"/>
      <point x="435" y="141"/>
    </contour>
  </outline>
</glyph>
<glyph name="cha" format="2">
  <advance width="1122"/>
  <unicode hex="1006"/>
  <note>
cha
</note>
  <outline>
    <contour>
      <point x="346" y="-10" type="curve" smooth="yes"/>
      <point x="511" y="-10"/>
      <point x="634" y="81"/>
      <point x="634" y="280" type="curve" smooth="yes"/>
      <point x="634" y="468"/>
      <point x="523" y="563"/>
      <point x="313" y="563" type="curve" smooth="yes"/>
      <point x="229" y="563"/>
      <point x="165" y="553"/>
      <point x="80" y="519" type="curve"/>
      <point x="127" y="388" type="line"/>
      <point x="206" y="418"/>
      <point x="261" y="426"/>
      <point x="312" y="426" type="curve" smooth="yes"/>
      <point x="405" y="426"/>
      <point x="453" y="383"/>
      <point x="453" y="278" type="curve" smooth="yes"/>
      <point x="453" y="185"/>
      <point x="422" y="130"/>
      <point x="330" y="130" type="curve" smooth="yes"/>
      <point x="284" y="130"/>
      <point x="232" y="152"/>
      <point x="222" y="167" type="curve"/>
      <point x="265" y="191"/>
      <point x="306" y="197"/>
      <point x="340" y="197" type="curve" smooth="yes"/>
      <point x="368" y="197"/>
      <point x="425" y="184"/>
      <point x="479" y="143" type="curve"/>
      <point x="502" y="261" type="line"/>
      <point x="434" y="305"/>
      <point x="378" y="311"/>
      <point x="324" y="311" type="curve" smooth="yes"/>
      <point x="223" y="311"/>
      <point x="151" y="291"/>
      <point x="47" y="240" type="curve"/>
      <point x="61" y="86"/>
      <point x="177" y="-10"/>
    </contour>
    <contour>
      <point x="775" y="-10" type="curve" smooth="yes"/>
      <point x="961" y="-10"/>
      <point x="1074" y="106"/>
      <point x="1074" y="276" type="curve" smooth="yes"/>
      <point x="1074" y="438"/>
      <point x="964" y="563"/>
      <point x="769" y="563" type="curve" smooth="yes"/>
      <point x="649" y="563"/>
      <point x="576" y="524"/>
      <point x="542" y="487" type="curve"/>
      <point x="617" y="316" type="line"/>
      <point x="625" y="355"/>
      <point x="657" y="412"/>
      <point x="747" y="412" type="curve" smooth="yes"/>
      <point x="827" y="412"/>
      <point x="883" y="360"/>
      <point x="883" y="278" type="curve" smooth="yes"/>
      <point x="883" y="196"/>
      <point x="830" y="140"/>
      <point x="756" y="140" type="curve" smooth="yes"/>
      <point x="667" y="140"/>
      <point x="636" y="184"/>
      <point x="613" y="236" type="curve"/>
      <point x="537" y="64" type="line"/>
      <point x="592" y="16"/>
      <point x="681" y="-10"/>
    </contour>
  </outline>
</glyph>
<glyph name="ja" format="2">
  <advance width="727"/>
  <unicode hex="1007"/>
  <note>
ja
</note>
  <outline>
    <contour>
      <point x="412" y="-10" type="curve" smooth="yes"/>
      <point x="457" y="-10"/>
      <point x="522" y="2"/>
      <point x="569" y="34" type="curve"/>
      <point x="464" y="150" type="line"/>
      <point x="450" y="145"/>
      <point x="435" y="140"/>
      <point x="409" y="140" type="curve" smooth="yes"/>
      <point x="291" y="140"/>
      <point x="240" y="189"/>
      <point x="240" y="270" type="curve" smooth="yes"/>
      <point x="240" y="353"/>
      <point x="291" y="412"/>
      <point x="369" y="412" type="curve" smooth="yes"/>
      <point x="392" y="412"/>
      <point x="403" y="410"/>
      <point x="410" y="406" type="curve"/>
      <point x="409" y="434" type="line"/>
      <point x="380" y="406"/>
      <point x="374" y="381"/>
      <point x="374" y="353" type="curve" smooth="yes"/>
      <point x="374" y="279"/>
      <point x="422" y="239"/>
      <point x="504" y="239" type="curve" smooth="yes"/>
      <point x="517" y="239"/>
      <point x="530" y="242"/>
      <point x="539" y="247" type="curve"/>
      <point x="525" y="252" type="line"/>
      <point x="532" y="206"/>
      <point x="555" y="175"/>
      <point x="640" y="175" type="curve" smooth="yes"/>
      <point x="694" y="175" type="line"/>
      <point x="694" y="323" type="line"/>
      <point x="658" y="323"/>
      <point x="636" y="334"/>
      <point x="636" y="356" type="curve" smooth="yes"/>
      <point x="636" y="365"/>
      <point x="638" y="377"/>
      <point x="638" y="393" type="curve" smooth="yes"/>
      <point x="638" y="462"/>
      <point x="568" y="563"/>
      <point x="389" y="563" type="curve" smooth="yes"/>
      <point x="172" y="563"/>
      <point x="48" y="444"/>
      <point x="48" y="276" type="curve" smooth="yes"/>
      <point x="48" y="71"/>
      <point x="209" y="-10"/>
    </contour>
    <contour>
      <point x="501" y="327" type="curve" smooth="yes"/>
      <point x="476" y="327"/>
      <point x="459" y="338"/>
      <point x="459" y="361" type="curve" smooth="yes"/>
      <point x="459" y="384"/>
      <point x="476" y="394"/>
      <point x="501" y="394" type="curve" smooth="yes"/>
      <point x="525" y="394"/>
      <point x="542" y="384"/>
      <point x="542" y="361" type="curve" smooth="yes"/>
      <point x="542" y="338"/>
      <point x="525" y="327"/>
    </contour>
  </outline>
</glyph>
<glyph name="jha" format="2">
  <advance width="965"/>
  <unicode hex="1008"/>
  <note>
jha
</note>
  <outline>
    <contour>
      <point x="620" y="-482" type="curve" smooth="yes"/>
      <point x="780" y="-482"/>
      <point x="886" y="-371"/>
      <point x="886" y="-217" type="curve" smooth="yes"/>
      <point x="886" y="554" type="line"/>
      <point x="694" y="554" type="line"/>
      <point x="694" y="-169" type="line" smooth="yes"/>
      <point x="694" y="-281"/>
      <point x="674" y="-319"/>
      <point x="624" y="-319" type="curve" smooth="yes"/>
      <point x="575" y="-319"/>
      <point x="554" y="-283"/>
      <point x="554" y="-171" type="curve" smooth="yes"/>
      <point x="554" y="75" type="line"/>
      <point x="362" y="3" type="line"/>
      <point x="362" y="-215" type="line" smooth="yes"/>
      <point x="362" y="-377"/>
      <point x="465" y="-482"/>
    </contour>
    <contour>
      <point x="350" y="-10" type="curve" smooth="yes"/>
      <point x="532" y="-10"/>
      <point x="645" y="105"/>
      <point x="645" y="276" type="curve" smooth="yes"/>
      <point x="645" y="439"/>
      <point x="536" y="563"/>
      <point x="348" y="563" type="curve" smooth="yes"/>
      <point x="183" y="563"/>
      <point x="48" y="451"/>
      <point x="48" y="276" type="curve" smooth="yes"/>
      <point x="48" y="102"/>
      <point x="183" y="-10"/>
    </contour>
    <contour>
      <point x="316" y="141" type="curve" smooth="yes"/>
      <point x="238" y="141"/>
      <point x="189" y="208"/>
      <point x="189" y="278" type="curve" smooth="yes"/>
      <point x="189" y="346"/>
      <point x="240" y="412"/>
      <point x="327" y="412" type="curve" smooth="yes"/>
      <point x="407" y="412"/>
      <point x="454" y="355"/>
      <point x="454" y="278" type="curve" smooth="yes"/>
      <point x="454" y="200"/>
      <point x="410" y="141"/>
    </contour>
    <contour>
      <point x="322" y="115" type="line"/>
      <point x="354" y="179"/>
      <point x="364" y="225"/>
      <point x="364" y="277" type="curve" smooth="yes"/>
      <point x="364" y="337"/>
      <point x="346" y="386"/>
      <point x="328" y="433" type="curve"/>
      <point x="229" y="399" type="line"/>
      <point x="244" y="371"/>
      <point x="255" y="338"/>
      <point x="255" y="283" type="curve" smooth="yes"/>
      <point x="255" y="223"/>
      <point x="245" y="197"/>
      <point x="224" y="152" type="curve"/>
    </contour>
  </outline>
</glyph>
<glyph name="nya" format="2">
  <advance width="679"/>
  <unicode hex="1009"/>
  <note>
nya
</note>
  <outline>
    <contour>
      <point x="306" y="-465" type="curve" smooth="yes"/>
      <point x="804" y="-465" type="line" smooth="yes"/>
      <point x="953" y="-465"/>
      <point x="1028" y="-392"/>
      <point x="1028" y="-239" type="curve" smooth="yes"/>
      <point x="1028" y="-200" type="line"/>
      <point x="838" y="-200" type="line"/>
      <point x="838" y="-256" type="line" smooth="yes"/>
      <point x="838" y="-292"/>
      <point x="825" y="-306"/>
      <point x="797" y="-306" type="curve" smooth="yes"/>
      <point x="316" y="-306" type="line" smooth="yes"/>
      <point x="286" y="-306"/>
      <point x="269" y="-296"/>
      <point x="269" y="-256" type="curve" smooth="yes"/>
      <point x="269" y="39" type="line"/>
      <point x="79" y="117" type="line"/>
      <point x="79" y="-245" type="line" smooth="yes"/>
      <point x="79" y="-391"/>
      <point x="155" y="-465"/>
    </contour>
    <contour>
      <point x="364" y="-8" type="curve" smooth="yes"/>
      <point x="516" y="-8"/>
      <point x="632" y="128"/>
      <point x="632" y="276" type="curve" smooth="yes"/>
      <point x="632" y="450"/>
      <point x="514" y="563"/>
      <point x="351" y="563" type="curve" smooth="yes"/>
      <point x="246" y="563"/>
      <point x="145" y="521"/>
      <point x="100" y="451" type="curve"/>
      <point x="226" y="369" type="line"/>
      <point x="260" y="397"/>
      <point x="287" y="412"/>
      <point x="326" y="412" type="curve" smooth="yes"/>
      <point x="392" y="412"/>
      <point x="440" y="365"/>
      <point x="440" y="275" type="curve" smooth="yes"/>
      <point x="440" y="189"/>
      <point x="390" y="142"/>
      <point x="334" y="142" type="curve" smooth="yes"/>
      <point x="281" y="142"/>
      <point x="252" y="161"/>
      <point x="221" y="194" type="curve"/>
      <point x="79" y="117" type="line"/>
      <point x="181" y="49"/>
      <point x="255" y="-8"/>
    </contour>
  </outline>
</glyph>
<glyph name="tta" format="2">
  <advance width="696"/>
  <unicode hex="100B"/>
  <note>
tta
</note>
  <outline>
    <contour>
      <point x="416" y="-465" type="line"/>
      <point x="684" y="-465" type="line"/>
      <point x="684" y="-311" type="line"/>
      <point x="607" y="-311" type="line"/>
      <point x="607" y="-163" type="line"/>
      <point x="524" y="-203"/>
      <point x="428" y="-227"/>
      <point x="332" y="-227" type="curve" smooth="yes"/>
      <point x="299" y="-227"/>
      <point x="284" y="-225"/>
      <point x="269" y="-223" type="curve"/>
      <point x="269" y="-173" type="line"/>
      <point x="290" y="-176"/>
      <point x="308" y="-176"/>
      <point x="326" y="-176" type="curve" smooth="yes"/>
      <point x="430" y="-176"/>
      <point x="531" y="-148"/>
      <point x="607" y="-105" type="curve"/>
      <point x="607" y="115" type="line"/>
      <point x="416" y="38" type="line"/>
      <point x="416" y="-44" type="line"/>
      <point x="389" y="-52"/>
      <point x="364" y="-58"/>
      <point x="308" y="-58" type="curve" smooth="yes"/>
      <point x="225" y="-58"/>
      <point x="143" y="-30"/>
      <point x="71" y="0" type="curve"/>
      <point x="71" y="-335" type="line"/>
      <point x="155" y="-358"/>
      <point x="238" y="-361"/>
      <point x="326" y="-361" type="curve" smooth="yes"/>
      <point x="355" y="-361"/>
      <point x="389" y="-357"/>
      <point x="416" y="-352" type="curve"/>
    </contour>
    <contour>
      <point x="322" y="-10" type="curve" smooth="yes"/>
      <point x="393" y="-10"/>
      <point x="446" y="4"/>
      <point x="607" y="115" type="curve"/>
      <point x="464" y="192" type="line"/>
      <point x="446" y="159"/>
      <point x="410" y="140"/>
      <point x="369" y="140" type="curve" smooth="yes"/>
      <point x="287" y="140"/>
      <point x="246" y="199"/>
      <point x="246" y="275" type="curve" smooth="yes"/>
      <point x="246" y="359"/>
      <point x="292" y="412"/>
      <point x="360" y="412" type="curve" smooth="yes"/>
      <point x="400" y="412"/>
      <point x="438" y="399"/>
      <point x="461" y="369" type="curve"/>
      <point x="589" y="453" type="line"/>
      <point x="557" y="514"/>
      <point x="471" y="563"/>
      <point x="353" y="563" type="curve" smooth="yes"/>
      <point x="178" y="563"/>
      <point x="54" y="444"/>
      <point x="54" y="276" type="curve" smooth="yes"/>
      <point x="54" y="116"/>
      <point x="157" y="-10"/>
    </contour>
  </outline>
</glyph>
<glyph name="ttha" format="2">
  <advance width="672"/>
  <unicode hex="100C"/>
  <note>
ttha
</note>
  <outline>
    <contour>
      <point x="271" y="-465" type="curve" smooth="yes"/>
      <point x="376" y="-465" type="line" smooth="yes"/>
      <point x="528" y="-465"/>
      <point x="601" y="-392"/>
      <point x="601" y="-246" type="curve" smooth="yes"/>
      <point x="601" y="115" type="line"/>
      <point x="412" y="12" type="line"/>
      <point x="412" y="-256" type="line" smooth="yes"/>
      <point x="412" y="-288"/>
      <point x="402" y="-306"/>
      <point x="371" y="-306" type="curve" smooth="yes"/>
      <point x="269" y="-306" type="line" smooth="yes"/>
      <point x="237" y="-306"/>
      <point x="220" y="-297"/>
      <point x="220" y="-279" type="curve" smooth="yes"/>
      <point x="220" y="-268"/>
      <point x="231" y="-254"/>
      <point x="259" y="-254" type="curve" smooth="yes"/>
      <point x="288" y="-254"/>
      <point x="306" y="-261"/>
      <point x="328" y="-273" type="curve"/>
      <point x="389" y="-158" type="line"/>
      <point x="352" y="-140"/>
      <point x="308" y="-125"/>
      <point x="230" y="-125" type="curve" smooth="yes"/>
      <point x="131" y="-125"/>
      <point x="48" y="-193"/>
      <point x="48" y="-292" type="curve" smooth="yes"/>
      <point x="48" y="-405"/>
      <point x="132" y="-465"/>
    </contour>
    <contour>
      <point x="316" y="-10" type="curve" smooth="yes"/>
      <point x="402" y="-10"/>
      <point x="470" y="0"/>
      <point x="601" y="115" type="curve"/>
      <point x="458" y="192" type="line"/>
      <point x="440" y="159"/>
      <point x="404" y="140"/>
      <point x="363" y="140" type="curve" smooth="yes"/>
      <point x="281" y="140"/>
      <point x="240" y="199"/>
      <point x="240" y="275" type="curve" smooth="yes"/>
      <point x="240" y="360"/>
      <point x="284" y="412"/>
      <point x="353" y="412" type="curve" smooth="yes"/>
      <point x="394" y="412"/>
      <point x="432" y="399"/>
      <point x="455" y="369" type="curve"/>
      <point x="583" y="453" type="line"/>
      <point x="551" y="514"/>
      <point x="465" y="563"/>
      <point x="347" y="563" type="curve" smooth="yes"/>
      <point x="172" y="563"/>
      <point x="48" y="444"/>
      <point x="48" y="276" type="curve" smooth="yes"/>
      <point x="48" y="116"/>
      <point x="151" y="-10"/>
    </contour>
  </outline>
</glyph>
<glyph name="dda" format="2">
  <advance width="708"/>
  <unicode hex="100D"/>
  <note>
dda
</note>
  <outline>
    <contour>
      <point x="424" y="-465" type="line"/>
      <point x="691" y="-465" type="line"/>
      <point x="691" y="-311" type="line"/>
      <point x="614" y="-311" type="line"/>
      <point x="614" y="0" type="line"/>
      <point x="542" y="-30"/>
      <point x="461" y="-58"/>
      <point x="378" y="-58" type="curve" smooth="yes"/>
      <point x="322" y="-58"/>
      <point x="297" y="-55"/>
      <point x="270" y="-50" type="curve"/>
      <point x="270" y="38" type="line"/>
      <point x="79" y="115" type="line"/>
      <point x="79" y="-176" type="line"/>
      <point x="155" y="-202"/>
      <point x="256" y="-219"/>
      <point x="360" y="-219" type="curve" smooth="yes"/>
      <point x="378" y="-219"/>
      <point x="403" y="-217"/>
      <point x="424" y="-214" type="curve"/>
    </contour>
    <contour>
      <point x="364" y="-10" type="curve" smooth="yes"/>
      <point x="529" y="-10"/>
      <point x="632" y="116"/>
      <point x="632" y="276" type="curve" smooth="yes"/>
      <point x="632" y="444"/>
      <point x="508" y="563"/>
      <point x="333" y="563" type="curve" smooth="yes"/>
      <point x="215" y="563"/>
      <point x="129" y="514"/>
      <point x="97" y="453" type="curve"/>
      <point x="225" y="369" type="line"/>
      <point x="254" y="395"/>
      <point x="284" y="412"/>
      <point x="331" y="412" type="curve" smooth="yes"/>
      <point x="399" y="412"/>
      <point x="440" y="358"/>
      <point x="440" y="275" type="curve" smooth="yes"/>
      <point x="440" y="199"/>
      <point x="399" y="140"/>
      <point x="317" y="140" type="curve" smooth="yes"/>
      <point x="276" y="140"/>
      <point x="240" y="159"/>
      <point x="222" y="192" type="curve"/>
      <point x="79" y="115" type="line"/>
      <point x="217" y="8"/>
      <point x="254" y="-10"/>
    </contour>
  </outline>
</glyph>
<glyph name="ddha" format="2">
  <advance width="755"/>
  <unicode hex="100E"/>
  <note>
ddha
</note>
  <outline>
    <contour>
      <point x="350" y="-10" type="curve" smooth="yes"/>
      <point x="572" y="-10"/>
      <point x="681" y="106"/>
      <point x="681" y="270" type="curve" smooth="yes"/>
      <point x="681" y="442"/>
      <point x="609" y="519"/>
      <point x="520" y="563" type="curve"/>
      <point x="431" y="406" type="line"/>
      <point x="501" y="363"/>
      <point x="514" y="310"/>
      <point x="514" y="269" type="curve" smooth="yes"/>
      <point x="514" y="181"/>
      <point x="446" y="140"/>
      <point x="354" y="140" type="curve" smooth="yes"/>
      <point x="293" y="140"/>
      <point x="244" y="168"/>
      <point x="244" y="208" type="curve" smooth="yes"/>
      <point x="244" y="232"/>
      <point x="253" y="250"/>
      <point x="288" y="277" type="curve" smooth="yes"/>
      <point x="331" y="311"/>
      <point x="369" y="359"/>
      <point x="369" y="422" type="curve" smooth="yes"/>
      <point x="369" y="506"/>
      <point x="312" y="564"/>
      <point x="206" y="564" type="curve" smooth="yes"/>
      <point x="139" y="564"/>
      <point x="63" y="529"/>
      <point x="28" y="464" type="curve"/>
      <point x="107" y="383" type="line"/>
      <point x="123" y="406"/>
      <point x="154" y="431"/>
      <point x="181" y="431" type="curve" smooth="yes"/>
      <point x="197" y="431"/>
      <point x="202" y="422"/>
      <point x="202" y="414" type="curve" smooth="yes"/>
      <point x="202" y="392"/>
      <point x="174" y="375"/>
      <point x="128" y="334" type="curve" smooth="yes"/>
      <point x="80" y="291"/>
      <point x="53" y="250"/>
      <point x="53" y="193" type="curve" smooth="yes"/>
      <point x="53" y="78"/>
      <point x="155" y="-10"/>
    </contour>
  </outline>
</glyph>
<glyph name="nna" format="2">
  <advance width="1439"/>
  <unicode hex="100F"/>
  <note>
nna
</note>
  <outline>
    <contour>
      <point x="719" y="-7" type="curve" smooth="yes"/>
      <point x="830" y="-7"/>
      <point x="909" y="56"/>
      <point x="909" y="164" type="curve" smooth="yes"/>
      <point x="909" y="200"/>
      <point x="903" y="236"/>
      <point x="903" y="266" type="curve" smooth="yes"/>
      <point x="903" y="355"/>
      <point x="963" y="412"/>
      <point x="1055" y="412" type="curve" smooth="yes"/>
      <point x="1140" y="412"/>
      <point x="1198" y="361"/>
      <point x="1198" y="278" type="curve" smooth="yes"/>
      <point x="1198" y="199"/>
      <point x="1153" y="153"/>
      <point x="1096" y="153" type="curve" smooth="yes"/>
      <point x="1069" y="153"/>
      <point x="1049" y="155"/>
      <point x="1026" y="166" type="curve"/>
      <point x="981" y="13" type="line"/>
      <point x="1020" y="-5"/>
      <point x="1057" y="-8"/>
      <point x="1113" y="-8" type="curve" smooth="yes"/>
      <point x="1275" y="-8"/>
      <point x="1390" y="117"/>
      <point x="1390" y="276" type="curve" smooth="yes"/>
      <point x="1390" y="451"/>
      <point x="1250" y="563"/>
      <point x="1064" y="563" type="curve" smooth="yes"/>
      <point x="903" y="563"/>
      <point x="762" y="465"/>
      <point x="762" y="310" type="curve" smooth="yes"/>
      <point x="762" y="267"/>
      <point x="767" y="227"/>
      <point x="767" y="202" type="curve" smooth="yes"/>
      <point x="767" y="166"/>
      <point x="747" y="149"/>
      <point x="719" y="149" type="curve" smooth="yes"/>
      <point x="691" y="149"/>
      <point x="671" y="166"/>
      <point x="671" y="202" type="curve" smooth="yes"/>
      <point x="671" y="227"/>
      <point x="676" y="267"/>
      <point x="676" y="310" type="curve" smooth="yes"/>
      <point x="676" y="465"/>
      <point x="535" y="563"/>
      <point x="374" y="563" type="curve" smooth="yes"/>
      <point x="188" y="563"/>
      <point x="48" y="451"/>
      <point x="48" y="276" type="curve" smooth="yes"/>
      <point x="48" y="117"/>
      <point x="163" y="-8"/>
      <point x="325" y="-8" type="curve" smooth="yes"/>
      <point x="381" y="-8"/>
      <point x="418" y="-5"/>
      <point x="457" y="13" type="curve"/>
      <point x="412" y="166" type="line"/>
      <point x="389" y="155"/>
      <point x="369" y="153"/>
      <point x="342" y="153" type="curve" smooth="yes"/>
      <point x="285" y="153"/>
      <point x="240" y="199"/>
      <point x="240" y="278" type="curve" smooth="yes"/>
      <point x="240" y="361"/>
      <point x="298" y="412"/>
      <point x="383" y="412" type="curve" smooth="yes"/>
      <point x="475" y="412"/>
      <point x="535" y="355"/>
      <point x="535" y="266" type="curve" smooth="yes"/>
      <point x="535" y="236"/>
      <point x="529" y="200"/>
      <point x="529" y="164" type="curve" smooth="yes"/>
      <point x="529" y="56"/>
      <point x="608" y="-7"/>
    </contour>
    <contour>
      <point x="654" y="378" type="line"/>
      <point x="665" y="401"/>
      <point x="687" y="419"/>
      <point x="719" y="419" type="curve" smooth="yes"/>
      <point x="751" y="419"/>
      <point x="773" y="401"/>
      <point x="784" y="378" type="curve"/>
      <point x="877" y="486" type="line"/>
      <point x="827" y="546"/>
      <point x="777" y="563"/>
      <point x="719" y="563" type="curve" smooth="yes"/>
      <point x="661" y="563"/>
      <point x="611" y="546"/>
      <point x="561" y="486" type="curve"/>
    </contour>
  </outline>
</glyph>
<glyph name="tha" format="2">
  <advance width="1120"/>
  <unicode hex="1011"/>
  <note>
tha
</note>
  <outline>
    <contour>
      <point x="354" y="-10" type="curve" smooth="yes"/>
      <point x="538" y="-10"/>
      <point x="639" y="104"/>
      <point x="639" y="276" type="curve" smooth="yes"/>
      <point x="639" y="443"/>
      <point x="541" y="563"/>
      <point x="356" y="563" type="curve" smooth="yes"/>
      <point x="184" y="563"/>
      <point x="48" y="451"/>
      <point x="48" y="276" type="curve" smooth="yes"/>
      <point x="48" y="102"/>
      <point x="180" y="-10"/>
    </contour>
    <contour>
      <point x="354" y="140" type="curve" smooth="yes"/>
      <point x="281" y="140"/>
      <point x="240" y="199"/>
      <point x="240" y="278" type="curve" smooth="yes"/>
      <point x="240" y="356"/>
      <point x="285" y="412"/>
      <point x="354" y="412" type="curve" smooth="yes"/>
      <point x="419" y="412"/>
      <point x="469" y="363"/>
      <point x="469" y="278" type="curve" smooth="yes"/>
      <point x="469" y="196"/>
      <point x="425" y="140"/>
    </contour>
    <contour>
      <point x="762" y="-10" type="curve" smooth="yes"/>
      <point x="940" y="-10"/>
      <point x="1071" y="98"/>
      <point x="1071" y="276" type="curve" smooth="yes"/>
      <point x="1071" y="451"/>
      <point x="942" y="563"/>
      <point x="765" y="563" type="curve" smooth="yes"/>
      <point x="691" y="563"/>
      <point x="600" y="540"/>
      <point x="555" y="473" type="curve"/>
      <point x="628" y="325" type="line"/>
      <point x="650" y="370"/>
      <point x="687" y="412"/>
      <point x="753" y="412" type="curve" smooth="yes"/>
      <point x="825" y="412"/>
      <point x="880" y="362"/>
      <point x="880" y="278" type="curve" smooth="yes"/>
      <point x="880" y="197"/>
      <point x="830" y="141"/>
      <point x="762" y="141" type="curve" smooth="yes"/>
      <point x="681" y="141"/>
      <point x="655" y="186"/>
      <point x="630" y="237" type="curve"/>
      <point x="553" y="78" type="line"/>
      <point x="606" y="12"/>
      <point x="687" y="-10"/>
    </contour>
  </outline>
</glyph>
<glyph name="da" format="2">
  <advance width="701"/>
  <unicode hex="1012"/>
  <note>
da
</note>
  <outline>
    <contour>
      <point x="367" y="-10" type="curve" smooth="yes"/>
      <point x="567" y="-10"/>
      <point x="651" y="56"/>
      <point x="651" y="153" type="curve" smooth="yes"/>
      <point x="651" y="243"/>
      <point x="575" y="274"/>
      <point x="484" y="282" type="curve"/>
      <point x="484" y="287" type="line"/>
      <point x="580" y="313"/>
      <point x="610" y="352"/>
      <point x="610" y="409" type="curve" smooth="yes"/>
      <point x="610" y="508"/>
      <point x="517" y="563"/>
      <point x="329" y="563" type="curve" smooth="yes"/>
      <point x="165" y="563"/>
      <point x="66" y="497"/>
      <point x="66" y="395" type="curve" smooth="yes"/>
      <point x="66" y="358"/>
      <point x="81" y="314"/>
      <point x="118" y="288" type="curve"/>
      <point x="242" y="359" type="line"/>
      <point x="230" y="369"/>
      <point x="224" y="374"/>
      <point x="224" y="389" type="curve" smooth="yes"/>
      <point x="224" y="415"/>
      <point x="271" y="428"/>
      <point x="337" y="428" type="curve" smooth="yes"/>
      <point x="386" y="428"/>
      <point x="441" y="422"/>
      <point x="441" y="394" type="curve" smooth="yes"/>
      <point x="441" y="361"/>
      <point x="389" y="355"/>
      <point x="333" y="355" type="curve" smooth="yes"/>
      <point x="307" y="355" type="line"/>
      <point x="307" y="226" type="line"/>
      <point x="341" y="226" type="line" smooth="yes"/>
      <point x="430" y="226"/>
      <point x="462" y="218"/>
      <point x="462" y="179" type="curve" smooth="yes"/>
      <point x="462" y="151"/>
      <point x="425" y="132"/>
      <point x="363" y="132" type="curve" smooth="yes"/>
      <point x="267" y="132"/>
      <point x="209" y="159"/>
      <point x="162" y="218" type="curve"/>
      <point x="31" y="143" type="line"/>
      <point x="84" y="43"/>
      <point x="202" y="-10"/>
    </contour>
  </outline>
</glyph>
<glyph name="dha" format="2">
  <advance width="734"/>
  <unicode hex="1013"/>
  <note>
dha
</note>
  <outline>
    <contour>
      <point x="240" y="175" type="line"/>
      <point x="270" y="187"/>
      <point x="305" y="196"/>
      <point x="368" y="196" type="curve" smooth="yes"/>
      <point x="425" y="196"/>
      <point x="451" y="189"/>
      <point x="496" y="176" type="curve"/>
      <point x="533" y="274" type="line"/>
      <point x="469" y="298"/>
      <point x="422" y="305"/>
      <point x="368" y="305" type="curve" smooth="yes"/>
      <point x="307" y="305"/>
      <point x="256" y="290"/>
      <point x="206" y="274" type="curve"/>
    </contour>
    <contour>
      <point x="370" y="-10" type="curve" smooth="yes"/>
      <point x="555" y="-10"/>
      <point x="685" y="105"/>
      <point x="685" y="276" type="curve" smooth="yes"/>
      <point x="685" y="442"/>
      <point x="558" y="563"/>
      <point x="368" y="563" type="curve" smooth="yes"/>
      <point x="183" y="563"/>
      <point x="48" y="451"/>
      <point x="48" y="276" type="curve" smooth="yes"/>
      <point x="48" y="102"/>
      <point x="183" y="-10"/>
    </contour>
    <contour>
      <point x="366" y="130" type="curve" smooth="yes"/>
      <point x="257" y="130"/>
      <point x="227" y="193"/>
      <point x="227" y="278" type="curve" smooth="yes"/>
      <point x="227" y="356"/>
      <point x="282" y="412"/>
      <point x="366" y="412" type="curve" smooth="yes"/>
      <point x="445" y="412"/>
      <point x="507" y="362"/>
      <point x="507" y="276" type="curve" smooth="yes"/>
      <point x="507" y="189"/>
      <point x="475" y="130"/>
    </contour>
  </outline>
</glyph>
<glyph name="na" format="2">
  <advance width="625"/>
  <unicode hex="1014"/>
  <note>
na
</note>
  <outline>
    <contour>
      <point x="209" y="-465" type="line"/>
      <point x="357" y="-465" type="line"/>
      <point x="357" y="37" type="line" smooth="yes"/>
      <point x="357" y="158"/>
      <point x="275" y="236"/>
      <point x="180" y="236" type="curve" smooth="yes"/>
      <point x="89" y="236"/>
      <point x="39" y="182"/>
      <point x="39" y="125" type="curve" smooth="yes"/>
      <point x="39" y="41"/>
      <point x="101" y="-7"/>
      <point x="243" y="-7" type="curve" smooth="yes"/>
      <point x="317" y="-7" type="line" smooth="yes"/>
      <point x="464" y="-7"/>
      <point x="553" y="62"/>
      <point x="553" y="177" type="curve" smooth="yes"/>
      <point x="553" y="273"/>
      <point x="499" y="312"/>
      <point x="387" y="351" type="curve" smooth="yes"/>
      <point x="317" y="375"/>
      <point x="293" y="392"/>
      <point x="293" y="414" type="curve" smooth="yes"/>
      <point x="293" y="438"/>
      <point x="313" y="442"/>
      <point x="329" y="442" type="curve" smooth="yes"/>
      <point x="365" y="442"/>
      <point x="399" y="418"/>
      <point x="432" y="384" type="curve"/>
      <point x="522" y="487" type="line"/>
      <point x="469" y="538"/>
      <point x="385" y="564"/>
      <point x="317" y="564" type="curve" smooth="yes"/>
      <point x="205" y="564"/>
      <point x="129" y="503"/>
      <point x="129" y="415" type="curve" smooth="yes"/>
      <point x="129" y="342"/>
      <point x="165" y="297"/>
      <point x="269" y="254" type="curve" smooth="yes"/>
      <point x="338" y="230"/>
      <point x="386" y="205"/>
      <point x="386" y="166" type="curve" smooth="yes"/>
      <point x="386" y="111"/>
      <point x="343" y="97"/>
      <point x="245" y="97" type="curve" smooth="yes"/>
      <point x="228" y="97" type="line" smooth="yes"/>
      <point x="161" y="97"/>
      <point x="139" y="111"/>
      <point x="139" y="138" type="curve" smooth="yes"/>
      <point x="139" y="152"/>
      <point x="149" y="164"/>
      <point x="165" y="164" type="curve" smooth="yes"/>
      <point x="202" y="164"/>
      <point x="209" y="132"/>
      <point x="209" y="9" type="curve" smooth="yes"/>
    </contour>
  </outline>
</glyph>
<glyph name="pa" format="2">
  <advance width="731"/>
  <unicode hex="1015"/>
  <note>
pa
</note>
  <outline>
    <contour>
      <point x="371" y="-10" type="curve" smooth="yes"/>
      <point x="570" y="-10"/>
      <point x="683" y="111"/>
      <point x="683" y="270" type="curve" smooth="yes"/>
      <point x="683" y="425"/>
      <point x="618" y="514"/>
      <point x="526" y="563" type="curve"/>
      <point x="435" y="406" type="line"/>
      <point x="484" y="354"/>
      <point x="491" y="311"/>
      <point x="491" y="269" type="curve" smooth="yes"/>
      <point x="491" y="193"/>
      <point x="439" y="141"/>
      <point x="367" y="141" type="curve" smooth="yes"/>
      <point x="287" y="141"/>
      <point x="240" y="198"/>
      <point x="240" y="269" type="curve" smooth="yes"/>
      <point x="240" y="315"/>
      <point x="247" y="354"/>
      <point x="296" y="406" type="curve"/>
      <point x="205" y="563" type="line"/>
      <point x="112" y="513"/>
      <point x="48" y="422"/>
      <point x="48" y="270" type="curve" smooth="yes"/>
      <point x="48" y="100"/>
      <point x="166" y="-10"/>
    </contour>
  </outline>
</glyph>
<glyph name="pha" format="2">
  <advance width="731"/>
  <unicode hex="1016"/>
  <note>
pha
</note>
  <outline>
    <contour>
      <point x="365" y="-10" type="curve" smooth="yes"/>
      <point x="564" y="-10"/>
      <point x="683" y="101"/>
      <point x="683" y="270" type="curve" smooth="yes"/>
      <point x="683" y="411"/>
      <point x="598" y="523"/>
      <point x="464" y="563" type="curve"/>
      <point x="405" y="477"/>
      <point x="356" y="397"/>
      <point x="356" y="289" type="curve" smooth="yes"/>
      <point x="356" y="236"/>
      <point x="366" y="183"/>
      <point x="392" y="118" type="curve"/>
      <point x="483" y="161" type="line"/>
      <point x="464" y="208"/>
      <point x="453" y="248"/>
      <point x="453" y="289" type="curve" smooth="yes"/>
      <point x="453" y="333"/>
      <point x="468" y="362"/>
      <point x="487" y="388" type="curve"/>
      <point x="530" y="349"/>
      <point x="534" y="313"/>
      <point x="534" y="281" type="curve" smooth="yes"/>
      <point x="534" y="189"/>
      <point x="455" y="140"/>
      <point x="385" y="140" type="curve" smooth="yes"/>
      <point x="293" y="140"/>
      <point x="240" y="185"/>
      <point x="240" y="268" type="curve" smooth="yes"/>
      <point x="240" y="309"/>
      <point x="249" y="354"/>
      <point x="299" y="406" type="curve"/>
      <point x="208" y="563" type="line"/>
      <point x="118" y="518"/>
      <point x="48" y="424"/>
      <point x="48" y="270" type="curve" smooth="yes"/>
      <point x="48" y="102"/>
      <point x="164" y="-10"/>
    </contour>
  </outline>
</glyph>
<glyph name="ba" format="2">
  <advance width="737"/>
  <unicode hex="1017"/>
  <note>
ba
</note>
  <outline>
    <contour>
      <point x="369" y="-10" type="curve" smooth="yes"/>
      <point x="557" y="-10"/>
      <point x="688" y="99"/>
      <point x="688" y="270" type="curve" smooth="yes"/>
      <point x="688" y="424"/>
      <point x="641" y="513"/>
      <point x="597" y="562" type="curve"/>
      <point x="444" y="422" type="line"/>
      <point x="479" y="364"/>
      <point x="496" y="316"/>
      <point x="496" y="269" type="curve" smooth="yes"/>
      <point x="496" y="197"/>
      <point x="446" y="141"/>
      <point x="367" y="141" type="curve" smooth="yes"/>
      <point x="280" y="141"/>
      <point x="240" y="195"/>
      <point x="240" y="269" type="curve" smooth="yes"/>
      <point x="240" y="321"/>
      <point x="246" y="365"/>
      <point x="289" y="423" type="curve"/>
      <point x="144" y="563" type="line"/>
      <point x="87" y="513"/>
      <point x="48" y="422"/>
      <point x="48" y="270" type="curve" smooth="yes"/>
      <point x="48" y="100"/>
      <point x="169" y="-10"/>
    </contour>
    <contour>
      <point x="372" y="275" type="curve" smooth="yes"/>
      <point x="504" y="275"/>
      <point x="613" y="370"/>
      <point x="613" y="486" type="curve" smooth="yes"/>
      <point x="613" y="513"/>
      <point x="607" y="538"/>
      <point x="597" y="562" type="curve"/>
      <point x="452" y="497" type="line"/>
      <point x="453" y="490"/>
      <point x="454" y="483"/>
      <point x="454" y="476" type="curve" smooth="yes"/>
      <point x="454" y="444"/>
      <point x="425" y="417"/>
      <point x="371" y="417" type="curve" smooth="yes"/>
      <point x="322" y="417"/>
      <point x="290" y="444"/>
      <point x="290" y="476" type="curve" smooth="yes"/>
      <point x="290" y="482"/>
      <point x="290" y="489"/>
      <point x="291" y="495" type="curve"/>
      <point x="144" y="563" type="line"/>
      <point x="136" y="539"/>
      <point x="131" y="513"/>
      <point x="131" y="486" type="curve" smooth="yes"/>
      <point x="131" y="370"/>
      <point x="239" y="275"/>
    </contour>
  </outline>
</glyph>
<glyph name="bha" format="2">
  <advance width="1122"/>
  <unicode hex="1018"/>
  <note>
bha
</note>
  <outline>
    <contour>
      <point x="319" y="-8" type="curve" smooth="yes"/>
      <point x="514" y="-8"/>
      <point x="625" y="100"/>
      <point x="625" y="276" type="curve" smooth="yes"/>
      <point x="625" y="446"/>
      <point x="496" y="563"/>
      <point x="319" y="563" type="curve" smooth="yes"/>
      <point x="214" y="563"/>
      <point x="113" y="521"/>
      <point x="68" y="451" type="curve"/>
      <point x="194" y="369" type="line"/>
      <point x="234" y="402"/>
      <point x="268" y="412"/>
      <point x="314" y="412" type="curve" smooth="yes"/>
      <point x="397" y="412"/>
      <point x="449" y="355"/>
      <point x="449" y="275" type="curve" smooth="yes"/>
      <point x="449" y="189"/>
      <point x="394" y="142"/>
      <point x="314" y="142" type="curve" smooth="yes"/>
      <point x="261" y="142"/>
      <point x="225" y="161"/>
      <point x="189" y="194" type="curve"/>
      <point x="46" y="117" type="line"/>
      <point x="95" y="46"/>
      <point x="196" y="-8"/>
    </contour>
    <contour>
      <point x="790" y="-11" type="curve" smooth="yes"/>
      <point x="953" y="-11"/>
      <point x="1074" y="114"/>
      <point x="1074" y="276" type="curve" smooth="yes"/>
      <point x="1074" y="448"/>
      <point x="943" y="563"/>
      <point x="753" y="563" type="curve" smooth="yes"/>
      <point x="665" y="563"/>
      <point x="589" y="536"/>
      <point x="529" y="477" type="curve"/>
      <point x="612" y="327" type="line"/>
      <point x="629" y="364"/>
      <point x="672" y="413"/>
      <point x="746" y="413" type="curve" smooth="yes"/>
      <point x="826" y="413"/>
      <point x="882" y="363"/>
      <point x="882" y="278" type="curve" smooth="yes"/>
      <point x="882" y="203"/>
      <point x="848" y="152"/>
      <point x="775" y="152" type="curve" smooth="yes"/>
      <point x="756" y="152"/>
      <point x="732" y="158"/>
      <point x="711" y="166" type="curve"/>
      <point x="649" y="25" type="line"/>
      <point x="682" y="0"/>
      <point x="738" y="-11"/>
    </contour>
  </outline>
</glyph>
<glyph name="ya" format="2">
  <advance width="1120"/>
  <unicode hex="101A"/>
  <note>
ya
</note>
  <outline>
    <contour>
      <point x="361" y="-10" type="curve" smooth="yes"/>
      <point x="538" y="-10"/>
      <point x="641" y="92"/>
      <point x="641" y="270" type="curve" smooth="yes"/>
      <point x="641" y="429"/>
      <point x="587" y="509"/>
      <point x="490" y="563" type="curve"/>
      <point x="399" y="406" type="line"/>
      <point x="462" y="362"/>
      <point x="472" y="311"/>
      <point x="472" y="269" type="curve" smooth="yes"/>
      <point x="472" y="187"/>
      <point x="429" y="141"/>
      <point x="354" y="141" type="curve" smooth="yes"/>
      <point x="287" y="141"/>
      <point x="240" y="198"/>
      <point x="240" y="269" type="curve" smooth="yes"/>
      <point x="240" y="315"/>
      <point x="247" y="354"/>
      <point x="296" y="406" type="curve"/>
      <point x="205" y="563" type="line"/>
      <point x="112" y="513"/>
      <point x="48" y="422"/>
      <point x="48" y="270" type="curve" smooth="yes"/>
      <point x="48" y="100"/>
      <point x="166" y="-10"/>
    </contour>
    <contour>
      <point x="763" y="-10" type="curve" smooth="yes"/>
      <point x="949" y="-10"/>
      <point x="1071" y="89"/>
      <point x="1071" y="275" type="curve" smooth="yes"/>
      <point x="1071" y="420"/>
      <point x="989" y="563"/>
      <point x="798" y="563" type="curve" smooth="yes"/>
      <point x="734" y="563"/>
      <point x="688" y="547"/>
      <point x="661" y="527" type="curve"/>
      <point x="723" y="386" type="line"/>
      <point x="746" y="398"/>
      <point x="763" y="401"/>
      <point x="788" y="401" type="curve" smooth="yes"/>
      <point x="843" y="401"/>
      <point x="879" y="354"/>
      <point x="879" y="273" type="curve" smooth="yes"/>
      <point x="879" y="201"/>
      <point x="833" y="139"/>
      <point x="765" y="139" type="curve" smooth="yes"/>
      <point x="681" y="139"/>
      <point x="642" y="185"/>
      <point x="632" y="219" type="curve"/>
      <point x="555" y="63" type="line"/>
      <point x="584" y="38"/>
      <point x="641" y="-10"/>
    </contour>
  </outline>
</glyph>
<glyph name="la" format="2">
  <advance width="1119"/>
  <unicode hex="101C"/>
  <note>
la
</note>
  <outline>
    <contour>
      <point x="328" y="-10" type="curve" smooth="yes"/>
      <point x="372" y="-10"/>
      <point x="444" y="0"/>
      <point x="481" y="26" type="curve"/>
      <point x="418" y="166" type="line"/>
      <point x="393" y="158"/>
      <point x="377" y="152"/>
      <point x="346" y="152" type="curve" smooth="yes"/>
      <point x="282" y="152"/>
      <point x="240" y="199"/>
      <point x="240" y="278" type="curve" smooth="yes"/>
      <point x="240" y="351"/>
      <point x="272" y="400"/>
      <point x="334" y="400" type="curve" smooth="yes"/>
      <point x="406" y="400"/>
      <point x="435" y="350"/>
      <point x="484" y="215" type="curve" smooth="yes"/>
      <point x="538" y="65"/>
      <point x="635" y="-8"/>
      <point x="790" y="-8" type="curve" smooth="yes"/>
      <point x="968" y="-8"/>
      <point x="1071" y="119"/>
      <point x="1071" y="276" type="curve" smooth="yes"/>
      <point x="1071" y="463"/>
      <point x="975" y="563"/>
      <point x="790" y="563" type="curve" smooth="yes"/>
      <point x="748" y="563"/>
      <point x="676" y="552"/>
      <point x="637" y="527" type="curve"/>
      <point x="702" y="386" type="line"/>
      <point x="732" y="395"/>
      <point x="741" y="401"/>
      <point x="773" y="401" type="curve" smooth="yes"/>
      <point x="846" y="401"/>
      <point x="880" y="339"/>
      <point x="880" y="275" type="curve" smooth="yes"/>
      <point x="880" y="205"/>
      <point x="853" y="153"/>
      <point x="795" y="153" type="curve" smooth="yes"/>
      <point x="741" y="153"/>
      <point x="703" y="180"/>
      <point x="635" y="343" type="curve" smooth="yes"/>
      <point x="566" y="507"/>
      <point x="481" y="563"/>
      <point x="326" y="563" type="curve" smooth="yes"/>
      <point x="159" y="563"/>
      <point x="48" y="439"/>
      <point x="48" y="276" type="curve" smooth="yes"/>
      <point x="48" y="90"/>
      <point x="146" y="-10"/>
    </contour>
  </outline>
</glyph>
<glyph name="wa" format="2">
  <advance width="734"/>
  <unicode hex="101D"/>
  <note>
wa
</note>
  <outline>
    <contour>
      <point x="370" y="-10" type="curve" smooth="yes"/>
      <point x="555" y="-10"/>
      <point x="685" y="105"/>
      <point x="685" y="276" type="curve" smooth="yes"/>
      <point x="685" y="442"/>
      <point x="558" y="563"/>
      <point x="368" y="563" type="curve" smooth="yes"/>
      <point x="183" y="563"/>
      <point x="48" y="451"/>
      <point x="48" y="276" type="curve" smooth="yes"/>
      <point x="48" y="102"/>
      <point x="183" y="-10"/>
    </contour>
    <contour>
      <point x="366" y="140" type="curve" smooth="yes"/>
      <point x="285" y="140"/>
      <point x="240" y="199"/>
      <point x="240" y="278" type="curve" smooth="yes"/>
      <point x="240" y="356"/>
      <point x="290" y="412"/>
      <point x="366" y="412" type="curve" smooth="yes"/>
      <point x="438" y="412"/>
      <point x="494" y="363"/>
      <point x="494" y="278" type="curve" smooth="yes"/>
      <point x="494" y="196"/>
      <point x="445" y="140"/>
    </contour>
  </outline>
</glyph>
<glyph name="sa" format="2">
  <advance width="1125"/>
  <unicode hex="101E"/>
  <note>
sa
</note>
  <outline>
    <contour>
      <point x="321" y="-8" type="curve" smooth="yes"/>
      <point x="506" y="-8"/>
      <point x="633" y="101"/>
      <point x="633" y="273" type="curve" smooth="yes"/>
      <point x="633" y="449"/>
      <point x="502" y="563"/>
      <point x="321" y="563" type="curve" smooth="yes"/>
      <point x="216" y="563"/>
      <point x="115" y="521"/>
      <point x="70" y="451" type="curve"/>
      <point x="196" y="369" type="line"/>
      <point x="236" y="402"/>
      <point x="270" y="412"/>
      <point x="316" y="412" type="curve" smooth="yes"/>
      <point x="393" y="412"/>
      <point x="441" y="354"/>
      <point x="441" y="272" type="curve" smooth="yes"/>
      <point x="441" y="188"/>
      <point x="390" y="142"/>
      <point x="316" y="142" type="curve" smooth="yes"/>
      <point x="263" y="142"/>
      <point x="227" y="161"/>
      <point x="191" y="194" type="curve"/>
      <point x="48" y="117" type="line"/>
      <point x="97" y="46"/>
      <point x="198" y="-8"/>
    </contour>
    <contour>
      <point x="769" y="-10" type="curve" smooth="yes"/>
      <point x="955" y="-10"/>
      <point x="1077" y="89"/>
      <point x="1077" y="275" type="curve" smooth="yes"/>
      <point x="1077" y="426"/>
      <point x="980" y="563"/>
      <point x="810" y="563" type="curve" smooth="yes"/>
      <point x="740" y="563"/>
      <point x="694" y="547"/>
      <point x="667" y="527" type="curve"/>
      <point x="729" y="386" type="line"/>
      <point x="752" y="398"/>
      <point x="769" y="401"/>
      <point x="794" y="401" type="curve" smooth="yes"/>
      <point x="849" y="401"/>
      <point x="885" y="354"/>
      <point x="885" y="273" type="curve" smooth="yes"/>
      <point x="885" y="197"/>
      <point x="840" y="139"/>
      <point x="764" y="139" type="curve" smooth="yes"/>
      <point x="700" y="139"/>
      <point x="659" y="168"/>
      <point x="623" y="223" type="curve"/>
      <point x="544" y="77" type="line"/>
      <point x="576" y="47"/>
      <point x="637" y="-10"/>
    </contour>
  </outline>
</glyph>
<glyph name="ha" format="2">
  <advance width="1119"/>
  <unicode hex="101F"/>
  <note>
ha
</note>
  <outline>
    <contour>
      <point x="361" y="-10" type="curve" smooth="yes"/>
      <point x="538" y="-10"/>
      <point x="641" y="92"/>
      <point x="641" y="270" type="curve" smooth="yes"/>
      <point x="641" y="429"/>
      <point x="587" y="509"/>
      <point x="490" y="563" type="curve"/>
      <point x="399" y="406" type="line"/>
      <point x="462" y="362"/>
      <point x="472" y="311"/>
      <point x="472" y="269" type="curve" smooth="yes"/>
      <point x="472" y="187"/>
      <point x="429" y="141"/>
      <point x="354" y="141" type="curve" smooth="yes"/>
      <point x="287" y="141"/>
      <point x="240" y="198"/>
      <point x="240" y="269" type="curve" smooth="yes"/>
      <point x="240" y="315"/>
      <point x="247" y="354"/>
      <point x="296" y="406" type="curve"/>
      <point x="205" y="563" type="line"/>
      <point x="112" y="513"/>
      <point x="48" y="422"/>
      <point x="48" y="270" type="curve" smooth="yes"/>
      <point x="48" y="100"/>
      <point x="166" y="-10"/>
    </contour>
    <contour>
      <point x="798" y="-10" type="curve" smooth="yes"/>
      <point x="989" y="-10"/>
      <point x="1071" y="133"/>
      <point x="1071" y="278" type="curve" smooth="yes"/>
      <point x="1071" y="464"/>
      <point x="949" y="563"/>
      <point x="769" y="563" type="curve" smooth="yes"/>
      <point x="648" y="563"/>
      <point x="597" y="522"/>
      <point x="555" y="490" type="curve"/>
      <point x="632" y="334" type="line"/>
      <point x="642" y="368"/>
      <point x="681" y="414"/>
      <point x="765" y="414" type="curve" smooth="yes"/>
      <point x="833" y="414"/>
      <point x="879" y="352"/>
      <point x="879" y="280" type="curve" smooth="yes"/>
      <point x="879" y="199"/>
      <point x="843" y="152"/>
      <point x="788" y="152" type="curve" smooth="yes"/>
      <point x="763" y="152"/>
      <point x="746" y="155"/>
      <point x="723" y="167" type="curve"/>
      <point x="661" y="26" type="line"/>
      <point x="688" y="6"/>
      <point x="734" y="-10"/>
    </contour>
  </outline>
</glyph>
<glyph name="lla" format="2">
  <advance width="718"/>
  <unicode hex="1020"/>
  <note>
lla
</note>
  <outline>
    <contour>
      <point x="269" y="-466" type="curve" smooth="yes"/>
      <point x="423" y="-466" type="line" smooth="yes"/>
      <point x="549" y="-466"/>
      <point x="612" y="-392"/>
      <point x="612" y="-239" type="curve" smooth="yes"/>
      <point x="612" y="-231" type="line"/>
      <point x="453" y="-231" type="line"/>
      <point x="453" y="-285" type="line" smooth="yes"/>
      <point x="453" y="-330"/>
      <point x="435" y="-348"/>
      <point x="394" y="-348" type="curve" smooth="yes"/>
      <point x="298" y="-348" type="line" smooth="yes"/>
      <point x="257" y="-348"/>
      <point x="234" y="-334"/>
      <point x="234" y="-277" type="curve" smooth="yes"/>
      <point x="234" y="-68" type="line"/>
      <point x="274" y="-76"/>
      <point x="317" y="-76"/>
      <point x="357" y="-76" type="curve" smooth="yes"/>
      <point x="450" y="-76"/>
      <point x="539" y="-55"/>
      <point x="607" y="-24" type="curve"/>
      <point x="607" y="196" type="line"/>
      <point x="416" y="119" type="line"/>
      <point x="416" y="37" type="line"/>
      <point x="389" y="29"/>
      <point x="364" y="23"/>
      <point x="308" y="23" type="curve" smooth="yes"/>
      <point x="225" y="23"/>
      <point x="143" y="51"/>
      <point x="71" y="81" type="curve"/>
      <point x="71" y="-245" type="line" smooth="yes"/>
      <point x="71" y="-392"/>
      <point x="137" y="-466"/>
    </contour>
    <contour>
      <point x="322" y="71" type="curve" smooth="yes"/>
      <point x="393" y="71"/>
      <point x="446" y="85"/>
      <point x="607" y="196" type="curve"/>
      <point x="464" y="273" type="line"/>
      <point x="446" y="240"/>
      <point x="410" y="221"/>
      <point x="369" y="221" type="curve" smooth="yes"/>
      <point x="287" y="221"/>
      <point x="246" y="248"/>
      <point x="246" y="318" type="curve" smooth="yes"/>
      <point x="246" y="368"/>
      <point x="287" y="412"/>
      <point x="352" y="412" type="curve" smooth="yes"/>
      <point x="400" y="412"/>
      <point x="438" y="399"/>
      <point x="461" y="369" type="curve"/>
      <point x="589" y="453" type="line"/>
      <point x="557" y="514"/>
      <point x="471" y="563"/>
      <point x="353" y="563" type="curve" smooth="yes"/>
      <point x="178" y="563"/>
      <point x="54" y="473"/>
      <point x="54" y="324" type="curve" smooth="yes"/>
      <point x="54" y="174"/>
      <point x="157" y="71"/>
    </contour>
  </outline>
</glyph>
<glyph name="a_m" format="2">
  <advance width="1103"/>
  <unicode hex="1021"/>
  <note>
a_m
</note>
  <outline>
    <contour>
      <point x="347" y="-10" type="curve" smooth="yes"/>
      <point x="533" y="-10"/>
      <point x="611" y="56"/>
      <point x="611" y="153" type="curve" smooth="yes"/>
      <point x="611" y="243"/>
      <point x="535" y="274"/>
      <point x="444" y="282" type="curve"/>
      <point x="444" y="287" type="line"/>
      <point x="540" y="313"/>
      <point x="570" y="352"/>
      <point x="570" y="409" type="curve" smooth="yes"/>
      <point x="570" y="508"/>
      <point x="484" y="563"/>
      <point x="309" y="563" type="curve" smooth="yes"/>
      <point x="157" y="563"/>
      <point x="66" y="497"/>
      <point x="66" y="395" type="curve" smooth="yes"/>
      <point x="66" y="358"/>
      <point x="81" y="314"/>
      <point x="118" y="288" type="curve"/>
      <point x="242" y="359" type="line"/>
      <point x="230" y="369"/>
      <point x="224" y="374"/>
      <point x="224" y="389" type="curve" smooth="yes"/>
      <point x="224" y="415"/>
      <point x="263" y="428"/>
      <point x="317" y="428" type="curve" smooth="yes"/>
      <point x="357" y="428"/>
      <point x="401" y="422"/>
      <point x="401" y="394" type="curve" smooth="yes"/>
      <point x="401" y="361"/>
      <point x="359" y="355"/>
      <point x="313" y="355" type="curve" smooth="yes"/>
      <point x="287" y="355" type="line"/>
      <point x="287" y="226" type="line"/>
      <point x="321" y="226" type="line" smooth="yes"/>
      <point x="395" y="226"/>
      <point x="422" y="218"/>
      <point x="422" y="179" type="curve" smooth="yes"/>
      <point x="422" y="151"/>
      <point x="392" y="132"/>
      <point x="343" y="132" type="curve" smooth="yes"/>
      <point x="257" y="132"/>
      <point x="204" y="159"/>
      <point x="162" y="218" type="curve"/>
      <point x="31" y="143" type="line"/>
      <point x="81" y="43"/>
      <point x="192" y="-10"/>
    </contour>
    <contour>
      <point x="772" y="-10" type="curve" smooth="yes"/>
      <point x="937" y="-10"/>
      <point x="1055" y="101"/>
      <point x="1055" y="276" type="curve" smooth="yes"/>
      <point x="1055" y="449"/>
      <point x="930" y="563"/>
      <point x="756" y="563" type="curve" smooth="yes"/>
      <point x="643" y="563"/>
      <point x="569" y="521"/>
      <point x="513" y="481" type="curve"/>
      <point x="540" y="340" type="line"/>
      <point x="587" y="379"/>
      <point x="647" y="412"/>
      <point x="753" y="412" type="curve" smooth="yes"/>
      <point x="873" y="412"/>
      <point x="916" y="336"/>
      <point x="916" y="254" type="curve" smooth="yes"/>
      <point x="916" y="167"/>
      <point x="868" y="108"/>
      <point x="763" y="108" type="curve" smooth="yes"/>
      <point x="750" y="108"/>
      <point x="732" y="108"/>
      <point x="717" y="108" type="curve"/>
      <point x="772" y="81" type="line"/>
      <point x="794" y="168"/>
      <point x="838" y="223"/>
      <point x="934" y="245" type="curve"/>
      <point x="926" y="350" type="line"/>
      <point x="740" y="311"/>
      <point x="665" y="204"/>
      <point x="660" y="7" type="curve"/>
      <point x="706" y="-9"/>
      <point x="743" y="-10"/>
    </contour>
  </outline>
</glyph>
<glyph name="i_m" format="2">
  <advance width="1100"/>
  <unicode hex="1023"/>
  <note>
i_m
</note>
  <outline>
    <contour>
      <point x="195" y="-10" type="curve"/>
      <point x="286" y="147" type="line"/>
      <point x="244" y="200"/>
      <point x="240" y="238"/>
      <point x="240" y="284" type="curve" smooth="yes"/>
      <point x="240" y="356"/>
      <point x="280" y="412"/>
      <point x="345" y="412" type="curve" smooth="yes"/>
      <point x="415" y="412"/>
      <point x="453" y="360"/>
      <point x="453" y="265" type="curve" smooth="yes"/>
      <point x="453" y="122" type="line"/>
      <point x="647" y="122" type="line"/>
      <point x="647" y="265" type="line" smooth="yes"/>
      <point x="647" y="360"/>
      <point x="690" y="412"/>
      <point x="752" y="412" type="curve" smooth="yes"/>
      <point x="818" y="412"/>
      <point x="859" y="358"/>
      <point x="859" y="284" type="curve" smooth="yes"/>
      <point x="859" y="245"/>
      <point x="854" y="200"/>
      <point x="813" y="147" type="curve"/>
      <point x="904" y="-10" type="line"/>
      <point x="988" y="38"/>
      <point x="1051" y="127"/>
      <point x="1051" y="283" type="curve" smooth="yes"/>
      <point x="1051" y="448"/>
      <point x="955" y="563"/>
      <point x="764" y="563" type="curve" smooth="yes"/>
      <point x="659" y="563"/>
      <point x="564" y="523"/>
      <point x="524" y="416" type="curve"/>
      <point x="576" y="416" type="line"/>
      <point x="549" y="523"/>
      <point x="456" y="563"/>
      <point x="347" y="563" type="curve" smooth="yes"/>
      <point x="160" y="563"/>
      <point x="48" y="452"/>
      <point x="48" y="283" type="curve" smooth="yes"/>
      <point x="48" y="131"/>
      <point x="109" y="40"/>
    </contour>
    <contour>
      <point x="805" y="-465" type="line"/>
      <point x="978" y="-465" type="line"/>
      <point x="978" y="-346" type="line"/>
      <point x="897" y="-346" type="line"/>
      <point x="910" y="-317"/>
      <point x="915" y="-296"/>
      <point x="915" y="-252" type="curve" smooth="yes"/>
      <point x="915" y="-145"/>
      <point x="848" y="-46"/>
      <point x="722" y="-46" type="curve" smooth="yes"/>
      <point x="628" y="-46"/>
      <point x="555" y="-88"/>
      <point x="528" y="-192" type="curve"/>
      <point x="584" y="-197" type="line"/>
      <point x="547" y="-87"/>
      <point x="474" y="-46"/>
      <point x="392" y="-46" type="curve" smooth="yes"/>
      <point x="262" y="-46"/>
      <point x="180" y="-143"/>
      <point x="180" y="-271" type="curve" smooth="yes"/>
      <point x="180" y="-380"/>
      <point x="225" y="-449"/>
      <point x="290" y="-482" type="curve"/>
      <point x="359" y="-361" type="line"/>
      <point x="334" y="-332"/>
      <point x="325" y="-300"/>
      <point x="325" y="-261" type="curve" smooth="yes"/>
      <point x="325" y="-207"/>
      <point x="355" y="-161"/>
      <point x="402" y="-161" type="curve" smooth="yes"/>
      <point x="453" y="-161"/>
      <point x="475" y="-198"/>
      <point x="475" y="-257" type="curve" smooth="yes"/>
      <point x="475" y="-381" type="line"/>
      <point x="620" y="-381" type="line"/>
      <point x="620" y="-254" type="line" smooth="yes"/>
      <point x="620" y="-201"/>
      <point x="649" y="-161"/>
      <point x="696" y="-161" type="curve" smooth="yes"/>
      <point x="745" y="-161"/>
      <point x="771" y="-197"/>
      <point x="771" y="-255" type="curve" smooth="yes"/>
      <point x="771" y="-284"/>
      <point x="761" y="-314"/>
      <point x="738" y="-344" type="curve"/>
    </contour>
  </outline>
</glyph>
<glyph name="ii" format="2">
  <advance width="1362"/>
  <unicode hex="1024"/>
  <note>
ii
</note>
  <outline>
    <contour>
      <point x="289" y="-465" type="curve" smooth="yes"/>
      <point x="736" y="-465" type="line" smooth="yes"/>
      <point x="897" y="-465"/>
      <point x="970" y="-392"/>
      <point x="970" y="-245" type="curve" smooth="yes"/>
      <point x="970" y="270" type="line" smooth="yes"/>
      <point x="970" y="430"/>
      <point x="886" y="563"/>
      <point x="726" y="563" type="curve" smooth="yes"/>
      <point x="632" y="563"/>
      <point x="577" y="519"/>
      <point x="546" y="481" type="curve"/>
      <point x="616" y="375" type="line"/>
      <point x="632" y="386"/>
      <point x="646" y="401"/>
      <point x="692" y="401" type="curve" smooth="yes"/>
      <point x="758" y="401"/>
      <point x="781" y="343"/>
      <point x="781" y="267" type="curve" smooth="yes"/>
      <point x="781" y="-255" type="line" smooth="yes"/>
      <point x="781" y="-287"/>
      <point x="770" y="-305"/>
      <point x="736" y="-305" type="curve" smooth="yes"/>
      <point x="289" y="-305" type="line" smooth="yes"/>
      <point x="255" y="-305"/>
      <point x="234" y="-290"/>
      <point x="234" y="-264" type="curve" smooth="yes"/>
      <point x="234" y="-228"/>
      <point x="270" y="-213"/>
      <point x="371" y="-213" type="curve" smooth="yes"/>
      <point x="493" y="-213"/>
      <point x="594" y="-222"/>
      <point x="664" y="-247" type="curve"/>
      <point x="751" y="-122" type="line"/>
      <point x="653" y="-71"/>
      <point x="526" y="-52"/>
      <point x="371" y="-52" type="curve" smooth="yes"/>
      <point x="148" y="-52"/>
      <point x="43" y="-131"/>
      <point x="43" y="-264" type="curve" smooth="yes"/>
      <point x="43" y="-374"/>
      <point x="105" y="-465"/>
    </contour>
    <contour>
      <point x="185" y="-10" type="curve"/>
      <point x="276" y="147" type="line"/>
      <point x="236" y="199"/>
      <point x="230" y="238"/>
      <point x="230" y="284" type="curve" smooth="yes"/>
      <point x="230" y="348"/>
      <point x="266" y="412"/>
      <point x="335" y="412" type="curve" smooth="yes"/>
      <point x="406" y="412"/>
      <point x="442" y="360"/>
      <point x="442" y="284" type="curve" smooth="yes"/>
      <point x="442" y="242"/>
      <point x="436" y="199"/>
      <point x="396" y="147" type="curve"/>
      <point x="487" y="-10" type="line"/>
      <point x="573" y="39"/>
      <point x="634" y="128"/>
      <point x="634" y="283" type="curve" smooth="yes"/>
      <point x="634" y="454"/>
      <point x="526" y="563"/>
      <point x="337" y="563" type="curve" smooth="yes"/>
      <point x="156" y="563"/>
      <point x="38" y="453"/>
      <point x="38" y="283" type="curve" smooth="yes"/>
      <point x="38" y="131"/>
      <point x="98" y="40"/>
    </contour>
    <contour>
      <point x="1109" y="-465" type="line"/>
      <point x="1301" y="-465" type="line"/>
      <point x="1301" y="272" type="line" smooth="yes"/>
      <point x="1301" y="495"/>
      <point x="1246" y="579"/>
      <point x="1089" y="740" type="curve" smooth="yes"/>
      <point x="1067" y="762"/>
      <point x="1047" y="785"/>
      <point x="1047" y="811" type="curve" smooth="yes"/>
      <point x="1047" y="835"/>
      <point x="1064" y="849"/>
      <point x="1085" y="849" type="curve" smooth="yes"/>
      <point x="1126" y="849"/>
      <point x="1142" y="816"/>
      <point x="1155" y="795" type="curve"/>
      <point x="1292" y="865" type="line"/>
      <point x="1265" y="943"/>
      <point x="1192" y="1004"/>
      <point x="1080" y="1004" type="curve" smooth="yes"/>
      <point x="949" y="1004"/>
      <point x="861" y="925"/>
      <point x="861" y="818" type="curve" smooth="yes"/>
      <point x="861" y="738"/>
      <point x="902" y="687"/>
      <point x="993" y="587" type="curve" smooth="yes"/>
      <point x="1077" y="495"/>
      <point x="1109" y="416"/>
      <point x="1109" y="276" type="curve" smooth="yes"/>
    </contour>
  </outline>
</glyph>
<glyph name="u_m" format="2">
  <advance width="684"/>
  <unicode hex="1025"/>
  <note>
u_m
</note>
  <outline>
    <contour>
      <point x="304" y="-465" type="curve" smooth="yes"/>
      <point x="409" y="-465" type="line" smooth="yes"/>
      <point x="548" y="-465"/>
      <point x="632" y="-405"/>
      <point x="632" y="-292" type="curve" smooth="yes"/>
      <point x="632" y="-193"/>
      <point x="549" y="-125"/>
      <point x="450" y="-125" type="curve" smooth="yes"/>
      <point x="372" y="-125"/>
      <point x="328" y="-140"/>
      <point x="291" y="-158" type="curve"/>
      <point x="352" y="-273" type="line"/>
      <point x="374" y="-261"/>
      <point x="392" y="-254"/>
      <point x="421" y="-254" type="curve" smooth="yes"/>
      <point x="449" y="-254"/>
      <point x="460" y="-268"/>
      <point x="460" y="-279" type="curve" smooth="yes"/>
      <point x="460" y="-297"/>
      <point x="443" y="-306"/>
      <point x="411" y="-306" type="curve" smooth="yes"/>
      <point x="309" y="-306" type="line" smooth="yes"/>
      <point x="278" y="-306"/>
      <point x="268" y="-288"/>
      <point x="268" y="-256" type="curve" smooth="yes"/>
      <point x="268" y="12" type="line"/>
      <point x="79" y="115" type="line"/>
      <point x="79" y="-246" type="line" smooth="yes"/>
      <point x="79" y="-392"/>
      <point x="152" y="-465"/>
    </contour>
    <contour>
      <point x="364" y="-10" type="curve" smooth="yes"/>
      <point x="529" y="-10"/>
      <point x="632" y="116"/>
      <point x="632" y="276" type="curve" smooth="yes"/>
      <point x="632" y="444"/>
      <point x="508" y="563"/>
      <point x="333" y="563" type="curve" smooth="yes"/>
      <point x="215" y="563"/>
      <point x="129" y="514"/>
      <point x="97" y="453" type="curve"/>
      <point x="225" y="369" type="line"/>
      <point x="248" y="399"/>
      <point x="286" y="412"/>
      <point x="334" y="412" type="curve" smooth="yes"/>
      <point x="399" y="412"/>
      <point x="440" y="358"/>
      <point x="440" y="275" type="curve" smooth="yes"/>
      <point x="440" y="199"/>
      <point x="399" y="140"/>
      <point x="317" y="140" type="curve" smooth="yes"/>
      <point x="276" y="140"/>
      <point x="240" y="159"/>
      <point x="222" y="192" type="curve"/>
      <point x="79" y="115" type="line"/>
      <point x="210" y="0"/>
      <point x="278" y="-10"/>
    </contour>
  </outline>
</glyph>
<glyph name="e_m" format="2">
  <advance width="722"/>
  <unicode hex="1027"/>
  <note>
e_m
</note>
  <outline>
    <contour>
      <point x="374" y="-10" type="curve" smooth="yes"/>
      <point x="527" y="-10"/>
      <point x="670" y="75"/>
      <point x="674" y="212" type="curve"/>
      <point x="605" y="241"/>
      <point x="518" y="257"/>
      <point x="388" y="257" type="curve" smooth="yes"/>
      <point x="321" y="257"/>
      <point x="270" y="249"/>
      <point x="240" y="239" type="curve"/>
      <point x="238" y="251"/>
      <point x="237" y="262"/>
      <point x="237" y="277" type="curve" smooth="yes"/>
      <point x="237" y="291"/>
      <point x="238" y="302"/>
      <point x="240" y="314" type="curve"/>
      <point x="270" y="304"/>
      <point x="331" y="296"/>
      <point x="388" y="296" type="curve" smooth="yes"/>
      <point x="518" y="296"/>
      <point x="605" y="312"/>
      <point x="674" y="341" type="curve"/>
      <point x="670" y="478"/>
      <point x="542" y="563"/>
      <point x="374" y="563" type="curve" smooth="yes"/>
      <point x="156" y="563"/>
      <point x="48" y="440"/>
      <point x="48" y="277" type="curve" smooth="yes"/>
      <point x="48" y="108"/>
      <point x="174" y="-10"/>
    </contour>
    <contour>
      <point x="361" y="107" type="curve" smooth="yes"/>
      <point x="313" y="107"/>
      <point x="274" y="129"/>
      <point x="260" y="157" type="curve"/>
      <point x="278" y="163"/>
      <point x="334" y="166"/>
      <point x="365" y="166" type="curve" smooth="yes"/>
      <point x="404" y="166"/>
      <point x="416" y="164"/>
      <point x="462" y="157" type="curve"/>
      <point x="456" y="134"/>
      <point x="421" y="107"/>
    </contour>
    <contour>
      <point x="365" y="387" type="curve" smooth="yes"/>
      <point x="334" y="387"/>
      <point x="278" y="390"/>
      <point x="260" y="396" type="curve"/>
      <point x="274" y="424"/>
      <point x="313" y="446"/>
      <point x="361" y="446" type="curve" smooth="yes"/>
      <point x="421" y="446"/>
      <point x="456" y="419"/>
      <point x="462" y="396" type="curve"/>
      <point x="416" y="389"/>
      <point x="404" y="387"/>
    </contour>
  </outline>
</glyph>
<glyph name="e_mon" format="2">
  <advance width="813"/>
  <unicode hex="1028"/>
  <note>
e_mon
</note>
  <outline>
    <contour>
      <point x="404" y="-482" type="curve" smooth="yes"/>
      <point x="618" y="-482"/>
      <point x="729" y="-389"/>
      <point x="729" y="-163" type="curve" smooth="yes"/>
      <point x="729" y="-159" type="line"/>
      <point x="543" y="-159" type="line"/>
      <point x="543" y="-161" type="line" smooth="yes"/>
      <point x="543" y="-291"/>
      <point x="488" y="-324"/>
      <point x="405" y="-324" type="curve" smooth="yes"/>
      <point x="321" y="-324"/>
      <point x="265" y="-290"/>
      <point x="265" y="-179" type="curve" smooth="yes"/>
      <point x="265" y="261" type="line" smooth="yes"/>
      <point x="265" y="369"/>
      <point x="329" y="406"/>
      <point x="413" y="406" type="curve" smooth="yes"/>
      <point x="501" y="406"/>
      <point x="555" y="344"/>
      <point x="555" y="251" type="curve" smooth="yes"/>
      <point x="555" y="194"/>
      <point x="534" y="113"/>
      <point x="477" y="113" type="curve" smooth="yes"/>
      <point x="454" y="113"/>
      <point x="451" y="127"/>
      <point x="451" y="135" type="curve" smooth="yes"/>
      <point x="451" y="148"/>
      <point x="464" y="159"/>
      <point x="485" y="177" type="curve" smooth="yes"/>
      <point x="503" y="193"/>
      <point x="514" y="214"/>
      <point x="514" y="248" type="curve" smooth="yes"/>
      <point x="514" y="309"/>
      <point x="468" y="355"/>
      <point x="395" y="355" type="curve" smooth="yes"/>
      <point x="356" y="355"/>
      <point x="309" y="339"/>
      <point x="292" y="314" type="curve"/>
      <point x="346" y="243" type="line"/>
      <point x="355" y="253"/>
      <point x="370" y="259"/>
      <point x="382" y="259" type="curve" smooth="yes"/>
      <point x="394" y="259"/>
      <point x="401" y="254"/>
      <point x="401" y="244" type="curve" smooth="yes"/>
      <point x="401" y="233"/>
      <point x="393" y="226"/>
      <point x="382" y="218" type="curve" smooth="yes"/>
      <point x="356" y="200"/>
      <point x="308" y="172"/>
      <point x="308" y="110" type="curve" smooth="yes"/>
      <point x="308" y="43"/>
      <point x="362" y="-10"/>
      <point x="478" y="-10" type="curve" smooth="yes"/>
      <point x="621" y="-10"/>
      <point x="729" y="72"/>
      <point x="729" y="275" type="curve" smooth="yes"/>
      <point x="729" y="466"/>
      <point x="617" y="564"/>
      <point x="404" y="564" type="curve" smooth="yes"/>
      <point x="197" y="564"/>
      <point x="79" y="465"/>
      <point x="79" y="262" type="curve" smooth="yes"/>
      <point x="79" y="-180" type="line" smooth="yes"/>
      <point x="79" y="-378"/>
      <point x="195" y="-482"/>
    </contour>
  </outline>
</glyph>
<glyph name="o_m" format="2">
  <advance width="1455"/>
  <unicode hex="1029"/>
  <note>
o_m
</note>
  <outline>
    <contour>
      <point x="294" y="-466" type="curve" smooth="yes"/>
      <point x="1172" y="-466" type="line" smooth="yes"/>
      <point x="1322" y="-466"/>
      <point x="1396" y="-392"/>
      <point x="1396" y="-242" type="curve" smooth="yes"/>
      <point x="1396" y="180" type="line"/>
      <point x="1256" y="180" type="line"/>
      <point x="1256" y="-256" type="line" smooth="yes"/>
      <point x="1256" y="-292"/>
      <point x="1245" y="-306"/>
      <point x="1205" y="-306" type="curve" smooth="yes"/>
      <point x="310" y="-306" type="line" smooth="yes"/>
      <point x="271" y="-306"/>
      <point x="258" y="-292"/>
      <point x="258" y="-256" type="curve" smooth="yes"/>
      <point x="258" y="794" type="line" smooth="yes"/>
      <point x="258" y="830"/>
      <point x="271" y="845"/>
      <point x="310" y="845" type="curve" smooth="yes"/>
      <point x="1205" y="845" type="line" smooth="yes"/>
      <point x="1245" y="845"/>
      <point x="1256" y="830"/>
      <point x="1256" y="794" type="curve" smooth="yes"/>
      <point x="1256" y="750" type="line"/>
      <point x="1396" y="750" type="line"/>
      <point x="1396" y="781" type="line" smooth="yes"/>
      <point x="1396" y="930"/>
      <point x="1322" y="1005"/>
      <point x="1172" y="1005" type="curve" smooth="yes"/>
      <point x="294" y="1005" type="line" smooth="yes"/>
      <point x="144" y="1005"/>
      <point x="69" y="930"/>
      <point x="69" y="781" type="curve" smooth="yes"/>
      <point x="69" y="-242" type="line" smooth="yes"/>
      <point x="69" y="-392"/>
      <point x="144" y="-466"/>
    </contour>
    <contour>
      <point x="652" y="-8" type="curve" smooth="yes"/>
      <point x="837" y="-8"/>
      <point x="964" y="101"/>
      <point x="964" y="273" type="curve" smooth="yes"/>
      <point x="964" y="449"/>
      <point x="833" y="563"/>
      <point x="652" y="563" type="curve" smooth="yes"/>
      <point x="547" y="563"/>
      <point x="446" y="521"/>
      <point x="401" y="451" type="curve"/>
      <point x="527" y="369" type="line"/>
      <point x="567" y="402"/>
      <point x="601" y="412"/>
      <point x="647" y="412" type="curve" smooth="yes"/>
      <point x="724" y="412"/>
      <point x="772" y="354"/>
      <point x="772" y="272" type="curve" smooth="yes"/>
      <point x="772" y="188"/>
      <point x="721" y="142"/>
      <point x="647" y="142" type="curve" smooth="yes"/>
      <point x="594" y="142"/>
      <point x="558" y="161"/>
      <point x="522" y="194" type="curve"/>
      <point x="379" y="117" type="line"/>
      <point x="428" y="46"/>
      <point x="529" y="-8"/>
    </contour>
    <contour>
      <point x="1100" y="-10" type="curve" smooth="yes"/>
      <point x="1286" y="-10"/>
      <point x="1408" y="89"/>
      <point x="1408" y="275" type="curve" smooth="yes"/>
      <point x="1408" y="426"/>
      <point x="1311" y="563"/>
      <point x="1141" y="563" type="curve" smooth="yes"/>
      <point x="1071" y="563"/>
      <point x="1025" y="547"/>
      <point x="998" y="527" type="curve"/>
      <point x="1060" y="386" type="line"/>
      <point x="1083" y="398"/>
      <point x="1100" y="401"/>
      <point x="1125" y="401" type="curve" smooth="yes"/>
      <point x="1180" y="401"/>
      <point x="1216" y="354"/>
      <point x="1216" y="273" type="curve" smooth="yes"/>
      <point x="1216" y="197"/>
      <point x="1171" y="139"/>
      <point x="1095" y="139" type="curve" smooth="yes"/>
      <point x="1031" y="139"/>
      <point x="990" y="168"/>
      <point x="954" y="223" type="curve"/>
      <point x="875" y="77" type="line"/>
      <point x="907" y="47"/>
      <point x="968" y="-10"/>
    </contour>
  </outline>
</glyph>
<glyph name="_tall_aa" format="2">
  <advance width="326"/>
  <unicode hex="102B"/>
  <note>
_tall_aa
</note>
  <outline>
    <contour>
      <point x="69" y="0" type="line"/>
      <point x="257" y="0" type="line"/>
      <point x="257" y="743" type="line" smooth="yes"/>
      <point x="257" y="907"/>
      <point x="147" y="1005"/>
      <point x="-47" y="1005" type="curve" smooth="yes"/>
      <point x="-242" y="1005"/>
      <point x="-347" y="903"/>
      <point x="-347" y="732" type="curve" smooth="yes"/>
      <point x="-347" y="716" type="line"/>
      <point x="-161" y="716" type="line"/>
      <point x="-161" y="729" type="line" smooth="yes"/>
      <point x="-161" y="826"/>
      <point x="-118" y="852"/>
      <point x="-46" y="852" type="curve" smooth="yes"/>
      <point x="33" y="852"/>
      <point x="69" y="824"/>
      <point x="69" y="734" type="curve" smooth="yes"/>
    </contour>
  </outline>
</glyph>
<glyph name="_aa" format="2">
  <advance width="440"/>
  <unicode hex="102C"/>
  <note>
_aa
</note>
  <outline>
    <contour>
      <point x="138" y="-11" type="curve" smooth="yes"/>
      <point x="287" y="-11"/>
      <point x="390" y="104"/>
      <point x="390" y="276" type="curve" smooth="yes"/>
      <point x="390" y="450"/>
      <point x="265" y="563"/>
      <point x="70" y="563" type="curve" smooth="yes"/>
      <point x="-52" y="563"/>
      <point x="-132" y="527"/>
      <point x="-190" y="485" type="curve"/>
      <point x="-108" y="344" type="line"/>
      <point x="-54" y="384"/>
      <point x="-18" y="404"/>
      <point x="58" y="404" type="curve" smooth="yes"/>
      <point x="137" y="404"/>
      <point x="198" y="363"/>
      <point x="198" y="278" type="curve" smooth="yes"/>
      <point x="198" y="203"/>
      <point x="170" y="152"/>
      <point x="123" y="152" type="curve" smooth="yes"/>
      <point x="100" y="152"/>
      <point x="78" y="158"/>
      <point x="57" y="166" type="curve"/>
      <point x="-5" y="25" type="line"/>
      <point x="28" y="0"/>
      <point x="99" y="-11"/>
    </contour>
  </outline>
</glyph>
<glyph name="_i" format="2">
  <unicode hex="102D"/>
  <note>
_i
</note>
  <outline>
    <contour>
      <point x="-319" y="624" type="curve" smooth="yes"/>
      <point x="-203" y="624"/>
      <point x="-120" y="701"/>
      <point x="-120" y="822" type="curve" smooth="yes"/>
      <point x="-120" y="933"/>
      <point x="-200" y="1010"/>
      <point x="-320" y="1010" type="curve" smooth="yes"/>
      <point x="-441" y="1010"/>
      <point x="-522" y="936"/>
      <point x="-522" y="819" type="curve" smooth="yes"/>
      <point x="-522" y="701"/>
      <point x="-438" y="624"/>
    </contour>
    <contour>
      <point x="-321" y="739" type="curve" smooth="yes"/>
      <point x="-361" y="739"/>
      <point x="-377" y="779"/>
      <point x="-377" y="820" type="curve" smooth="yes"/>
      <point x="-377" y="858"/>
      <point x="-360" y="897"/>
      <point x="-321" y="897" type="curve" smooth="yes"/>
      <point x="-282" y="897"/>
      <point x="-265" y="860"/>
      <point x="-265" y="823" type="curve" smooth="yes"/>
      <point x="-265" y="778"/>
      <point x="-280" y="739"/>
    </contour>
  </outline>
</glyph>
<glyph name="_ii" format="2">
  <unicode hex="102E"/>
  <note>
_ii
</note>
  <outline>
    <contour>
      <point x="-319" y="624" type="curve" smooth="yes"/>
      <point x="-204" y="624"/>
      <point x="-120" y="701"/>
      <point x="-120" y="820" type="curve" smooth="yes"/>
      <point x="-120" y="932"/>
      <point x="-199" y="1010"/>
      <point x="-320" y="1010" type="curve" smooth="yes"/>
      <point x="-437" y="1010"/>
      <point x="-522" y="936"/>
      <point x="-522" y="817" type="curve" smooth="yes"/>
      <point x="-522" y="700"/>
      <point x="-438" y="624"/>
    </contour>
    <contour>
      <point x="-319" y="721" type="curve" smooth="yes"/>
      <point x="-376" y="721"/>
      <point x="-396" y="742"/>
      <point x="-396" y="819" type="curve" smooth="yes"/>
      <point x="-396" y="871"/>
      <point x="-367" y="907"/>
      <point x="-322" y="907" type="curve" smooth="yes"/>
      <point x="-276" y="907"/>
      <point x="-247" y="873"/>
      <point x="-247" y="821" type="curve" smooth="yes"/>
      <point x="-247" y="746"/>
      <point x="-254" y="721"/>
    </contour>
    <contour>
      <point x="-397" y="736" type="line"/>
      <point x="-375" y="750"/>
      <point x="-348" y="756"/>
      <point x="-320" y="756" type="curve" smooth="yes"/>
      <point x="-292" y="756"/>
      <point x="-265" y="750"/>
      <point x="-243" y="736" type="curve"/>
      <point x="-232" y="799" type="line"/>
      <point x="-261" y="817"/>
      <point x="-292" y="826"/>
      <point x="-320" y="826" type="curve" smooth="yes"/>
      <point x="-348" y="826"/>
      <point x="-379" y="817"/>
      <point x="-408" y="799" type="curve"/>
    </contour>
  </outline>
</glyph>
<glyph name="_uu" format="2">
  <unicode hex="1030"/>
  <note>
_uu
</note>
  <outline>
    <contour>
      <point x="-247" y="-466" type="line"/>
      <point x="-26" y="-466" type="line"/>
      <point x="-26" y="-368" type="line"/>
      <point x="-147" y="-368" type="line"/>
      <point x="-147" y="-47" type="line"/>
      <point x="-247" y="-47" type="line"/>
    </contour>
    <contour>
      <point x="-416" y="-466" type="line"/>
      <point x="-316" y="-466" type="line"/>
      <point x="-316" y="-47" type="line"/>
      <point x="-416" y="-47" type="line"/>
    </contour>
  </outline>
</glyph>
<glyph name="_e" format="2">
  <advance width="734"/>
  <unicode hex="1031"/>
  <note>
_e
</note>
  <outline>
    <contour>
      <point x="378" y="-10" type="curve" smooth="yes"/>
      <point x="556" y="-10"/>
      <point x="672" y="86"/>
      <point x="686" y="240" type="curve"/>
      <point x="571" y="292"/>
      <point x="491" y="312"/>
      <point x="379" y="312" type="curve" smooth="yes"/>
      <point x="330" y="312"/>
      <point x="278" y="310"/>
      <point x="216" y="295" type="curve"/>
      <point x="235" y="176" type="line"/>
      <point x="281" y="191"/>
      <point x="330" y="196"/>
      <point x="365" y="196" type="curve" smooth="yes"/>
      <point x="399" y="196"/>
      <point x="454" y="189"/>
      <point x="511" y="167" type="curve"/>
      <point x="499" y="152"/>
      <point x="437" y="130"/>
      <point x="383" y="130" type="curve" smooth="yes"/>
      <point x="275" y="130"/>
      <point x="239" y="184"/>
      <point x="239" y="275" type="curve" smooth="yes"/>
      <point x="239" y="382"/>
      <point x="296" y="426"/>
      <point x="406" y="426" type="curve" smooth="yes"/>
      <point x="461" y="426"/>
      <point x="521" y="418"/>
      <point x="606" y="388" type="curve"/>
      <point x="653" y="519" type="line"/>
      <point x="563" y="553"/>
      <point x="495" y="563"/>
      <point x="405" y="563" type="curve" smooth="yes"/>
      <point x="171" y="563"/>
      <point x="47" y="467"/>
      <point x="47" y="276" type="curve" smooth="yes"/>
      <point x="47" y="80"/>
      <point x="192" y="-10"/>
    </contour>
  </outline>
</glyph>
<glyph name="_ai" format="2">
  <unicode hex="1032"/>
  <note>
_ai
</note>
  <outline>
    <contour>
      <point x="-204" y="677" type="line"/>
      <point x="-110" y="791" type="line"/>
      <point x="-333" y="954" type="line"/>
      <point x="-426" y="836" type="line"/>
    </contour>
  </outline>
</glyph>
<glyph name="_ii_mon" format="2">
  <unicode hex="1033"/>
  <note>
_ii_mon
</note>
  <outline>
    <contour>
      <point x="-328" y="624" type="curve" smooth="yes"/>
      <point x="-196" y="624"/>
      <point x="-107" y="708"/>
      <point x="-107" y="817" type="curve" smooth="yes"/>
      <point x="-107" y="929"/>
      <point x="-205" y="1014"/>
      <point x="-328" y="1014" type="curve" smooth="yes"/>
      <point x="-457" y="1014"/>
      <point x="-553" y="934"/>
      <point x="-553" y="817" type="curve" smooth="yes"/>
      <point x="-553" y="704"/>
      <point x="-465" y="624"/>
    </contour>
    <contour>
      <point x="-328" y="690" type="curve" smooth="yes"/>
      <point x="-409" y="690"/>
      <point x="-459" y="744"/>
      <point x="-459" y="819" type="curve" smooth="yes"/>
      <point x="-459" y="897"/>
      <point x="-399" y="949"/>
      <point x="-328" y="949" type="curve" smooth="yes"/>
      <point x="-261" y="949"/>
      <point x="-200" y="898"/>
      <point x="-200" y="819" type="curve" smooth="yes"/>
      <point x="-200" y="749"/>
      <point x="-253" y="690"/>
    </contour>
    <contour>
      <point x="-328" y="728" type="curve" smooth="yes"/>
      <point x="-275" y="728"/>
      <point x="-237" y="762"/>
      <point x="-237" y="819" type="curve" smooth="yes"/>
      <point x="-237" y="869"/>
      <point x="-276" y="911"/>
      <point x="-328" y="911" type="curve" smooth="yes"/>
      <point x="-379" y="911"/>
      <point x="-420" y="871"/>
      <point x="-420" y="819" type="curve" smooth="yes"/>
      <point x="-420" y="766"/>
      <point x="-385" y="728"/>
    </contour>
    <contour>
      <point x="-331" y="781" type="curve" smooth="yes"/>
      <point x="-354" y="781"/>
      <point x="-368" y="797"/>
      <point x="-368" y="819" type="curve" smooth="yes"/>
      <point x="-368" y="841"/>
      <point x="-354" y="856"/>
      <point x="-331" y="856" type="curve" smooth="yes"/>
      <point x="-308" y="856"/>
      <point x="-292" y="841"/>
      <point x="-292" y="819" type="curve" smooth="yes"/>
      <point x="-292" y="797"/>
      <point x="-307" y="781"/>
    </contour>
  </outline>
</glyph>
<glyph name="_o_mon" format="2">
  <unicode hex="1034"/>
  <note>
_o_mon
</note>
  <outline>
    <contour>
      <point x="-420" y="663" type="line"/>
      <point x="-183" y="834" type="line"/>
      <point x="-276" y="952" type="line"/>
      <point x="-513" y="778" type="line"/>
    </contour>
  </outline>
</glyph>
<glyph name="_e_above" format="2">
  <unicode hex="1035"/>
  <note>
_e_above
</note>
  <outline>
    <contour>
      <point x="-323" y="624" type="curve" smooth="yes"/>
      <point x="-232" y="624"/>
      <point x="-156" y="669"/>
      <point x="-131" y="751" type="curve"/>
      <point x="-174" y="794"/>
      <point x="-239" y="827"/>
      <point x="-308" y="827" type="curve" smooth="yes"/>
      <point x="-349" y="827"/>
      <point x="-386" y="816"/>
      <point x="-407" y="803" type="curve"/>
      <point x="-394" y="734" type="line"/>
      <point x="-374" y="749"/>
      <point x="-350" y="758"/>
      <point x="-322" y="758" type="curve" smooth="yes"/>
      <point x="-298" y="758"/>
      <point x="-275" y="753"/>
      <point x="-261" y="740" type="curve"/>
      <point x="-271" y="729"/>
      <point x="-293" y="721"/>
      <point x="-323" y="721" type="curve" smooth="yes"/>
      <point x="-378" y="721"/>
      <point x="-395" y="747"/>
      <point x="-395" y="813" type="curve" smooth="yes"/>
      <point x="-395" y="868"/>
      <point x="-373" y="907"/>
      <point x="-321" y="907" type="curve" smooth="yes"/>
      <point x="-291" y="907"/>
      <point x="-258" y="895"/>
      <point x="-245" y="856" type="curve"/>
      <point x="-143" y="903" type="line"/>
      <point x="-173" y="972"/>
      <point x="-234" y="1010"/>
      <point x="-329" y="1010" type="curve" smooth="yes"/>
      <point x="-450" y="1010"/>
      <point x="-522" y="920"/>
      <point x="-522" y="817" type="curve" smooth="yes"/>
      <point x="-522" y="704"/>
      <point x="-442" y="624"/>
    </contour>
  </outline>
</glyph>
<glyph name="anusvara" format="2">
  <unicode hex="1036"/>
  <note>
anusvara
</note>
  <outline>
    <contour>
      <point x="-329" y="606" type="curve" smooth="yes"/>
      <point x="-245" y="606"/>
      <point x="-186" y="652"/>
      <point x="-186" y="735" type="curve" smooth="yes"/>
      <point x="-186" y="804"/>
      <point x="-243" y="862"/>
      <point x="-329" y="862" type="curve" smooth="yes"/>
      <point x="-412" y="862"/>
      <point x="-468" y="813"/>
      <point x="-468" y="734" type="curve" smooth="yes"/>
      <point x="-468" y="653"/>
      <point x="-412" y="606"/>
    </contour>
    <contour>
      <point x="-326" y="692" type="curve" smooth="yes"/>
      <point x="-353" y="692"/>
      <point x="-365" y="709"/>
      <point x="-365" y="733" type="curve" smooth="yes"/>
      <point x="-365" y="760"/>
      <point x="-348" y="776"/>
      <point x="-326" y="776" type="curve" smooth="yes"/>
      <point x="-304" y="776"/>
      <point x="-288" y="762"/>
      <point x="-288" y="734" type="curve" smooth="yes"/>
      <point x="-288" y="710"/>
      <point x="-304" y="692"/>
    </contour>
  </outline>
</glyph>
<glyph name="dot_below" format="2">
  <unicode hex="1037"/>
  <note>
dot_below
</note>
  <outline>
    <contour>
      <point x="-312" y="-300" type="curve" smooth="yes"/>
      <point x="-228" y="-300"/>
      <point x="-169" y="-254"/>
      <point x="-169" y="-171" type="curve" smooth="yes"/>
      <point x="-169" y="-102"/>
      <point x="-226" y="-44"/>
      <point x="-312" y="-44" type="curve" smooth="yes"/>
      <point x="-395" y="-44"/>
      <point x="-451" y="-93"/>
      <point x="-451" y="-172" type="curve" smooth="yes"/>
      <point x="-451" y="-253"/>
      <point x="-395" y="-300"/>
    </contour>
    <contour>
      <point x="-309" y="-214" type="curve" smooth="yes"/>
      <point x="-336" y="-214"/>
      <point x="-348" y="-197"/>
      <point x="-348" y="-173" type="curve" smooth="yes"/>
      <point x="-348" y="-146"/>
      <point x="-331" y="-130"/>
      <point x="-309" y="-130" type="curve" smooth="yes"/>
      <point x="-287" y="-130"/>
      <point x="-271" y="-144"/>
      <point x="-271" y="-172" type="curve" smooth="yes"/>
      <point x="-271" y="-196"/>
      <point x="-287" y="-214"/>
    </contour>
  </outline>
</glyph>
<glyph name="visarga" format="2">
  <advance width="407"/>
  <unicode hex="1038"/>
  <note>
visarga
</note>
  <outline>
    <contour>
      <point x="201" y="284" type="curve" smooth="yes"/>
      <point x="285" y="284"/>
      <point x="344" y="330"/>
      <point x="344" y="413" type="curve" smooth="yes"/>
      <point x="344" y="482"/>
      <point x="287" y="540"/>
      <point x="201" y="540" type="curve" smooth="yes"/>
      <point x="118" y="540"/>
      <point x="62" y="491"/>
      <point x="62" y="412" type="curve" smooth="yes"/>
      <point x="62" y="331"/>
      <point x="118" y="284"/>
    </contour>
    <contour>
      <point x="201" y="-8" type="curve" smooth="yes"/>
      <point x="285" y="-8"/>
      <point x="344" y="38"/>
      <point x="344" y="121" type="curve" smooth="yes"/>
      <point x="344" y="190"/>
      <point x="287" y="248"/>
      <point x="201" y="248" type="curve" smooth="yes"/>
      <point x="118" y="248"/>
      <point x="62" y="199"/>
      <point x="62" y="120" type="curve" smooth="yes"/>
      <point x="62" y="39"/>
      <point x="118" y="-8"/>
    </contour>
    <contour>
      <point x="204" y="78" type="curve" smooth="yes"/>
      <point x="177" y="78"/>
      <point x="165" y="95"/>
      <point x="165" y="119" type="curve" smooth="yes"/>
      <point x="165" y="146"/>
      <point x="182" y="162"/>
      <point x="204" y="162" type="curve" smooth="yes"/>
      <point x="226" y="162"/>
      <point x="242" y="148"/>
      <point x="242" y="120" type="curve" smooth="yes"/>
      <point x="242" y="96"/>
      <point x="226" y="78"/>
    </contour>
    <contour>
      <point x="204" y="370" type="curve" smooth="yes"/>
      <point x="177" y="370"/>
      <point x="165" y="387"/>
      <point x="165" y="411" type="curve" smooth="yes"/>
      <point x="165" y="438"/>
      <point x="182" y="454"/>
      <point x="204" y="454" type="curve" smooth="yes"/>
      <point x="226" y="454"/>
      <point x="242" y="440"/>
      <point x="242" y="412" type="curve" smooth="yes"/>
      <point x="242" y="388"/>
      <point x="226" y="370"/>
    </contour>
  </outline>
</glyph>
<glyph name="virama" format="2">
  <unicode hex="1039"/>
  <note>
virama
</note>
  <outline>
    <contour>
      <point x="-391" y="-451" type="line"/>
      <point x="-243" y="-451" type="line"/>
      <point x="-243" y="-334" type="line"/>
      <point x="-128" y="-334" type="line"/>
      <point x="-128" y="-215" type="line"/>
      <point x="-243" y="-215" type="line"/>
      <point x="-243" y="-98" type="line"/>
      <point x="-391" y="-98" type="line"/>
      <point x="-391" y="-215" type="line"/>
      <point x="-506" y="-215" type="line"/>
      <point x="-506" y="-334" type="line"/>
      <point x="-391" y="-334" type="line"/>
    </contour>
  </outline>
</glyph>
<glyph name="asat" format="2">
  <unicode hex="103A"/>
  <note>
asat
</note>
  <outline>
    <contour>
      <point x="-392" y="624" type="curve"/>
      <point x="-295" y="711" type="line"/>
      <point x="-344" y="748"/>
      <point x="-376" y="783"/>
      <point x="-376" y="829" type="curve" smooth="yes"/>
      <point x="-376" y="865"/>
      <point x="-350" y="895"/>
      <point x="-313" y="895" type="curve" smooth="yes"/>
      <point x="-280" y="895"/>
      <point x="-261" y="870"/>
      <point x="-255" y="860" type="curve"/>
      <point x="-155" y="916" type="line"/>
      <point x="-180" y="976"/>
      <point x="-249" y="1010"/>
      <point x="-319" y="1010" type="curve" smooth="yes"/>
      <point x="-438" y="1010"/>
      <point x="-521" y="930"/>
      <point x="-521" y="833" type="curve" smooth="yes"/>
      <point x="-521" y="732"/>
      <point x="-473" y="689"/>
    </contour>
  </outline>
</glyph>
<glyph name="medial_ya" format="2">
  <advance width="302"/>
  <unicode hex="103B"/>
  <note>
medial_ya
</note>
  <outline>
    <contour>
      <point x="243" y="-482" type="line"/>
      <point x="243" y="567" type="line"/>
      <point x="59" y="567" type="line"/>
      <point x="59" y="-261" type="line"/>
      <point x="-97" y="-214" type="line"/>
      <point x="-97" y="246" type="line"/>
      <point x="-241" y="246" type="line"/>
      <point x="-241" y="-334" type="line"/>
    </contour>
  </outline>
</glyph>
<glyph name="medial_ra" format="2">
  <advance width="338"/>
  <unicode hex="103C"/>
  <note>
medial_ra
</note>
  <outline>
    <contour>
      <point x="294" y="-466" type="curve" smooth="yes"/>
      <point x="775" y="-466" type="line" smooth="yes"/>
      <point x="925" y="-466"/>
      <point x="999" y="-392"/>
      <point x="999" y="-242" type="curve" smooth="yes"/>
      <point x="999" y="179" type="line"/>
      <point x="859" y="179" type="line"/>
      <point x="859" y="-256" type="line" smooth="yes"/>
      <point x="859" y="-292"/>
      <point x="848" y="-306"/>
      <point x="808" y="-306" type="curve" smooth="yes"/>
      <point x="310" y="-306" type="line" smooth="yes"/>
      <point x="271" y="-306"/>
      <point x="258" y="-292"/>
      <point x="258" y="-256" type="curve" smooth="yes"/>
      <point x="258" y="794" type="line" smooth="yes"/>
      <point x="258" y="830"/>
      <point x="271" y="845"/>
      <point x="310" y="845" type="curve" smooth="yes"/>
      <point x="808" y="845" type="line" smooth="yes"/>
      <point x="848" y="845"/>
      <point x="859" y="830"/>
      <point x="859" y="794" type="curve" smooth="yes"/>
      <point x="859" y="750" type="line"/>
      <point x="999" y="750" type="line"/>
      <point x="999" y="781" type="line" smooth="yes"/>
      <point x="999" y="930"/>
      <point x="925" y="1005"/>
      <point x="775" y="1005" type="curve" smooth="yes"/>
      <point x="294" y="1005" type="line" smooth="yes"/>
      <point x="144" y="1005"/>
      <point x="69" y="930"/>
      <point x="69" y="781" type="curve" smooth="yes"/>
      <point x="69" y="-242" type="line" smooth="yes"/>
      <point x="69" y="-392"/>
      <point x="144" y="-466"/>
    </contour>
  </outline>
</glyph>
<glyph name="medial_wa" format="2">
  <unicode hex="103D"/>
  <note>
medial_wa
</note>
  <outline>
    <contour>
      <point x="-328" y="-451" type="curve" smooth="yes"/>
      <point x="-181" y="-451"/>
      <point x="-104" y="-368"/>
      <point x="-104" y="-246" type="curve" smooth="yes"/>
      <point x="-104" y="-128"/>
      <point x="-182" y="-46"/>
      <point x="-323" y="-46" type="curve" smooth="yes"/>
      <point x="-463" y="-46"/>
      <point x="-542" y="-128"/>
      <point x="-542" y="-250" type="curve" smooth="yes"/>
      <point x="-542" y="-372"/>
      <point x="-458" y="-451"/>
    </contour>
    <contour>
      <point x="-323" y="-339" type="curve" smooth="yes"/>
      <point x="-374" y="-339"/>
      <point x="-397" y="-300"/>
      <point x="-397" y="-247" type="curve" smooth="yes"/>
      <point x="-397" y="-188"/>
      <point x="-372" y="-158"/>
      <point x="-322" y="-158" type="curve" smooth="yes"/>
      <point x="-274" y="-158"/>
      <point x="-248" y="-192"/>
      <point x="-248" y="-245" type="curve" smooth="yes"/>
      <point x="-248" y="-299"/>
      <point x="-273" y="-339"/>
    </contour>
  </outline>
</glyph>
<glyph name="medial_ha" format="2">
  <unicode hex="103E"/>
  <note>
medial_ha
</note>
  <outline>
    <contour>
      <point x="-491" y="-466" type="line"/>
      <point x="-265" y="-466" type="line"/>
      <point x="-265" y="-47" type="line"/>
      <point x="-365" y="-47" type="line"/>
      <point x="-365" y="-368" type="line"/>
      <point x="-491" y="-368" type="line"/>
    </contour>
  </outline>
</glyph>
<glyph name="great_sa" format="2">
  <advance width="1505"/>
  <unicode hex="103F"/>
  <note>
great_sa
</note>
  <outline>
    <contour>
      <point x="311" y="-8" type="curve" smooth="yes"/>
      <point x="494" y="-8"/>
      <point x="613" y="101"/>
      <point x="613" y="273" type="curve" smooth="yes"/>
      <point x="613" y="449"/>
      <point x="490" y="563"/>
      <point x="311" y="563" type="curve" smooth="yes"/>
      <point x="216" y="563"/>
      <point x="115" y="521"/>
      <point x="70" y="451" type="curve"/>
      <point x="196" y="369" type="line"/>
      <point x="236" y="402"/>
      <point x="270" y="412"/>
      <point x="306" y="412" type="curve" smooth="yes"/>
      <point x="381" y="412"/>
      <point x="421" y="354"/>
      <point x="421" y="272" type="curve" smooth="yes"/>
      <point x="421" y="188"/>
      <point x="378" y="142"/>
      <point x="306" y="142" type="curve" smooth="yes"/>
      <point x="263" y="142"/>
      <point x="227" y="161"/>
      <point x="191" y="194" type="curve"/>
      <point x="48" y="117" type="line"/>
      <point x="97" y="46"/>
      <point x="198" y="-8"/>
    </contour>
    <contour>
      <point x="726" y="-10" type="curve" smooth="yes"/>
      <point x="916" y="-10"/>
      <point x="1034" y="89"/>
      <point x="1034" y="275" type="curve" smooth="yes"/>
      <point x="1034" y="426"/>
      <point x="941" y="563"/>
      <point x="767" y="563" type="curve" smooth="yes"/>
      <point x="707" y="563"/>
      <point x="661" y="547"/>
      <point x="634" y="527" type="curve"/>
      <point x="696" y="386" type="line"/>
      <point x="719" y="398"/>
      <point x="736" y="401"/>
      <point x="751" y="401" type="curve" smooth="yes"/>
      <point x="810" y="401"/>
      <point x="842" y="354"/>
      <point x="842" y="273" type="curve" smooth="yes"/>
      <point x="842" y="197"/>
      <point x="801" y="139"/>
      <point x="721" y="139" type="curve" smooth="yes"/>
      <point x="667" y="139"/>
      <point x="626" y="168"/>
      <point x="590" y="223" type="curve"/>
      <point x="511" y="77" type="line"/>
      <point x="543" y="47"/>
      <point x="604" y="-10"/>
    </contour>
    <contour>
      <point x="1149" y="-10" type="curve" smooth="yes"/>
      <point x="1339" y="-10"/>
      <point x="1457" y="89"/>
      <point x="1457" y="275" type="curve" smooth="yes"/>
      <point x="1457" y="426"/>
      <point x="1364" y="563"/>
      <point x="1190" y="563" type="curve" smooth="yes"/>
      <point x="1130" y="563"/>
      <point x="1084" y="547"/>
      <point x="1057" y="527" type="curve"/>
      <point x="1119" y="386" type="line"/>
      <point x="1142" y="398"/>
      <point x="1159" y="401"/>
      <point x="1174" y="401" type="curve" smooth="yes"/>
      <point x="1233" y="401"/>
      <point x="1265" y="354"/>
      <point x="1265" y="273" type="curve" smooth="yes"/>
      <point x="1265" y="197"/>
      <point x="1224" y="139"/>
      <point x="1144" y="139" type="curve" smooth="yes"/>
      <point x="1090" y="139"/>
      <point x="1049" y="168"/>
      <point x="1013" y="223" type="curve"/>
      <point x="934" y="77" type="line"/>
      <point x="966" y="47"/>
      <point x="1027" y="-10"/>
    </contour>
  </outline>
</glyph>
<glyph name="zero_m" format="2">
  <advance width="733"/>
  <unicode hex="1040"/>
  <note>
zero_m
</note>
  <outline>
    <contour>
      <point x="370" y="-10" type="curve" smooth="yes"/>
      <point x="555" y="-10"/>
      <point x="685" y="105"/>
      <point x="685" y="276" type="curve" smooth="yes"/>
      <point x="685" y="442"/>
      <point x="558" y="563"/>
      <point x="368" y="563" type="curve" smooth="yes"/>
      <point x="183" y="563"/>
      <point x="48" y="451"/>
      <point x="48" y="276" type="curve" smooth="yes"/>
      <point x="48" y="102"/>
      <point x="183" y="-10"/>
    </contour>
    <contour>
      <point x="366" y="140" type="curve" smooth="yes"/>
      <point x="285" y="140"/>
      <point x="240" y="199"/>
      <point x="240" y="278" type="curve" smooth="yes"/>
      <point x="240" y="356"/>
      <point x="290" y="412"/>
      <point x="366" y="412" type="curve" smooth="yes"/>
      <point x="438" y="412"/>
      <point x="494" y="363"/>
      <point x="494" y="278" type="curve" smooth="yes"/>
      <point x="494" y="196"/>
      <point x="445" y="140"/>
    </contour>
  </outline>
</glyph>
<glyph name="one_m" format="2">
  <advance width="733"/>
  <unicode hex="1041"/>
  <note>
one_m
</note>
  <outline>
    <contour>
      <point x="370" y="-8" type="curve" smooth="yes"/>
      <point x="545" y="-8"/>
      <point x="685" y="105"/>
      <point x="685" y="276" type="curve" smooth="yes"/>
      <point x="685" y="450"/>
      <point x="548" y="563"/>
      <point x="370" y="563" type="curve" smooth="yes"/>
      <point x="235" y="563"/>
      <point x="129" y="521"/>
      <point x="87" y="451" type="curve"/>
      <point x="213" y="369" type="line"/>
      <point x="258" y="402"/>
      <point x="298" y="412"/>
      <point x="365" y="412" type="curve" smooth="yes"/>
      <point x="440" y="412"/>
      <point x="493" y="355"/>
      <point x="493" y="275" type="curve" smooth="yes"/>
      <point x="493" y="189"/>
      <point x="437" y="142"/>
      <point x="365" y="142" type="curve" smooth="yes"/>
      <point x="292" y="142"/>
      <point x="250" y="161"/>
      <point x="208" y="194" type="curve"/>
      <point x="65" y="117" type="line"/>
      <point x="111" y="46"/>
      <point x="207" y="-8"/>
    </contour>
  </outline>
</glyph>
<glyph name="two_m" format="2">
  <advance width="748"/>
  <unicode hex="1042"/>
  <note>
two_m
</note>
  <outline>
    <contour>
      <point x="367" y="-482" type="curve" smooth="yes"/>
      <point x="576" y="-482"/>
      <point x="688" y="-376"/>
      <point x="688" y="-167" type="curve" smooth="yes"/>
      <point x="688" y="553" type="line"/>
      <point x="502" y="553" type="line"/>
      <point x="502" y="-165" type="line" smooth="yes"/>
      <point x="502" y="-289"/>
      <point x="446" y="-326"/>
      <point x="361" y="-326" type="curve" smooth="yes"/>
      <point x="275" y="-326"/>
      <point x="224" y="-288"/>
      <point x="224" y="-164" type="curve" smooth="yes"/>
      <point x="224" y="-161" type="line"/>
      <point x="38" y="-161" type="line"/>
      <point x="38" y="-167" type="line" smooth="yes"/>
      <point x="38" y="-383"/>
      <point x="146" y="-482"/>
    </contour>
  </outline>
</glyph>
<glyph name="three_m" format="2">
  <advance width="706"/>
  <unicode hex="1043"/>
  <note>
three_m
</note>
  <outline>
    <contour>
      <point x="380" y="-465" type="line"/>
      <point x="571" y="-465" type="line"/>
      <point x="406" y="-158" type="line" smooth="yes"/>
      <point x="381" y="-111"/>
      <point x="331" y="-38"/>
      <point x="273" y="46" type="curve"/>
      <point x="245" y="10" type="line"/>
      <point x="267" y="-1"/>
      <point x="326" y="-8"/>
      <point x="348" y="-8" type="curve" smooth="yes"/>
      <point x="519" y="-8"/>
      <point x="658" y="101"/>
      <point x="658" y="276" type="curve" smooth="yes"/>
      <point x="658" y="450"/>
      <point x="521" y="563"/>
      <point x="343" y="563" type="curve" smooth="yes"/>
      <point x="220" y="563"/>
      <point x="126" y="521"/>
      <point x="85" y="451" type="curve"/>
      <point x="211" y="369" type="line"/>
      <point x="248" y="401"/>
      <point x="284" y="412"/>
      <point x="340" y="412" type="curve" smooth="yes"/>
      <point x="413" y="412"/>
      <point x="466" y="355"/>
      <point x="466" y="275" type="curve" smooth="yes"/>
      <point x="466" y="189"/>
      <point x="410" y="142"/>
      <point x="331" y="142" type="curve" smooth="yes"/>
      <point x="294" y="142"/>
      <point x="238" y="159"/>
      <point x="208" y="192" type="curve"/>
      <point x="65" y="115" type="line"/>
    </contour>
  </outline>
</glyph>
<glyph name="four_m" format="2">
  <advance width="706"/>
  <unicode hex="1044"/>
  <note>
four_m
</note>
  <outline>
    <contour>
      <point x="135" y="-465" type="line"/>
      <point x="326" y="-465" type="line"/>
      <point x="641" y="115" type="line"/>
      <point x="498" y="192" type="line"/>
      <point x="468" y="159"/>
      <point x="412" y="142"/>
      <point x="375" y="142" type="curve" smooth="yes"/>
      <point x="296" y="142"/>
      <point x="240" y="189"/>
      <point x="240" y="275" type="curve" smooth="yes"/>
      <point x="240" y="355"/>
      <point x="293" y="412"/>
      <point x="366" y="412" type="curve" smooth="yes"/>
      <point x="422" y="412"/>
      <point x="458" y="401"/>
      <point x="495" y="369" type="curve"/>
      <point x="621" y="451" type="line"/>
      <point x="580" y="521"/>
      <point x="486" y="563"/>
      <point x="363" y="563" type="curve" smooth="yes"/>
      <point x="185" y="563"/>
      <point x="48" y="450"/>
      <point x="48" y="276" type="curve" smooth="yes"/>
      <point x="48" y="101"/>
      <point x="187" y="-8"/>
      <point x="358" y="-8" type="curve" smooth="yes"/>
      <point x="380" y="-8"/>
      <point x="439" y="-1"/>
      <point x="461" y="10" type="curve"/>
      <point x="433" y="46" type="line"/>
      <point x="375" y="-38"/>
      <point x="325" y="-111"/>
      <point x="300" y="-158" type="curve" smooth="yes"/>
    </contour>
  </outline>
</glyph>
<glyph name="five_m" format="2">
  <advance width="811"/>
  <unicode hex="1045"/>
  <note>
five_m
</note>
  <outline>
    <contour>
      <point x="409" y="-482" type="curve" smooth="yes"/>
      <point x="618" y="-482"/>
      <point x="741" y="-378"/>
      <point x="741" y="-163" type="curve" smooth="yes"/>
      <point x="741" y="253" type="line" smooth="yes"/>
      <point x="741" y="465"/>
      <point x="626" y="564"/>
      <point x="413" y="564" type="curve" smooth="yes"/>
      <point x="194" y="564"/>
      <point x="71" y="459"/>
      <point x="71" y="279" type="curve" smooth="yes"/>
      <point x="71" y="170"/>
      <point x="144" y="97"/>
      <point x="254" y="97" type="curve" smooth="yes"/>
      <point x="367" y="97"/>
      <point x="435" y="166"/>
      <point x="435" y="265" type="curve" smooth="yes"/>
      <point x="435" y="357"/>
      <point x="375" y="401"/>
      <point x="303" y="401" type="curve" smooth="yes"/>
      <point x="289" y="401"/>
      <point x="280" y="400"/>
      <point x="268" y="397" type="curve"/>
      <point x="286" y="413"/>
      <point x="334" y="425"/>
      <point x="392" y="425" type="curve" smooth="yes"/>
      <point x="492" y="425"/>
      <point x="555" y="356"/>
      <point x="555" y="252" type="curve" smooth="yes"/>
      <point x="555" y="-161" type="line" smooth="yes"/>
      <point x="555" y="-289"/>
      <point x="492" y="-326"/>
      <point x="404" y="-326" type="curve" smooth="yes"/>
      <point x="321" y="-326"/>
      <point x="256" y="-288"/>
      <point x="256" y="-164" type="curve" smooth="yes"/>
      <point x="256" y="-161" type="line"/>
      <point x="70" y="-161" type="line"/>
      <point x="70" y="-167" type="line" smooth="yes"/>
      <point x="70" y="-383"/>
      <point x="181" y="-482"/>
    </contour>
    <contour>
      <point x="262" y="201" type="curve" smooth="yes"/>
      <point x="236" y="201"/>
      <point x="215" y="219"/>
      <point x="215" y="251" type="curve" smooth="yes"/>
      <point x="215" y="280"/>
      <point x="234" y="302"/>
      <point x="262" y="302" type="curve" smooth="yes"/>
      <point x="291" y="302"/>
      <point x="312" y="283"/>
      <point x="312" y="251" type="curve" smooth="yes"/>
      <point x="312" y="224"/>
      <point x="294" y="201"/>
    </contour>
  </outline>
</glyph>
<glyph name="six_m" format="2">
  <advance width="791"/>
  <unicode hex="1046"/>
  <note>
six_m
</note>
  <outline>
    <contour>
      <point x="390" y="-10" type="curve" smooth="yes"/>
      <point x="584" y="-10"/>
      <point x="706" y="82"/>
      <point x="706" y="242" type="curve" smooth="yes"/>
      <point x="706" y="328"/>
      <point x="672" y="388"/>
      <point x="580" y="388" type="curve" smooth="yes"/>
      <point x="539" y="388"/>
      <point x="523" y="376"/>
      <point x="480" y="376" type="curve" smooth="yes"/>
      <point x="457" y="376"/>
      <point x="438" y="387"/>
      <point x="438" y="411" type="curve" smooth="yes"/>
      <point x="438" y="431"/>
      <point x="452" y="443"/>
      <point x="468" y="443" type="curve" smooth="yes"/>
      <point x="488" y="443"/>
      <point x="497" y="434"/>
      <point x="509" y="421" type="curve"/>
      <point x="593" y="490" type="line"/>
      <point x="565" y="536"/>
      <point x="517" y="564"/>
      <point x="462" y="564" type="curve" smooth="yes"/>
      <point x="358" y="564"/>
      <point x="303" y="498"/>
      <point x="303" y="406" type="curve" smooth="yes"/>
      <point x="303" y="313"/>
      <point x="361" y="261"/>
      <point x="447" y="261" type="curve" smooth="yes"/>
      <point x="473" y="261"/>
      <point x="484" y="265"/>
      <point x="500" y="265" type="curve" smooth="yes"/>
      <point x="515" y="265"/>
      <point x="523" y="255"/>
      <point x="523" y="239" type="curve" smooth="yes"/>
      <point x="523" y="189"/>
      <point x="472" y="146"/>
      <point x="399" y="146" type="curve" smooth="yes"/>
      <point x="308" y="146"/>
      <point x="265" y="182"/>
      <point x="265" y="289" type="curve" smooth="yes"/>
      <point x="265" y="720" type="line" smooth="yes"/>
      <point x="265" y="838"/>
      <point x="316" y="880"/>
      <point x="393" y="880" type="curve" smooth="yes"/>
      <point x="468" y="880"/>
      <point x="520" y="843"/>
      <point x="520" y="717" type="curve" smooth="yes"/>
      <point x="520" y="715" type="line"/>
      <point x="706" y="715" type="line"/>
      <point x="706" y="720" type="line" smooth="yes"/>
      <point x="706" y="929"/>
      <point x="600" y="1036"/>
      <point x="390" y="1036" type="curve" smooth="yes"/>
      <point x="191" y="1036"/>
      <point x="79" y="929"/>
      <point x="79" y="720" type="curve" smooth="yes"/>
      <point x="79" y="292" type="line" smooth="yes"/>
      <point x="79" y="93"/>
      <point x="194" y="-10"/>
    </contour>
  </outline>
</glyph>
<glyph name="seven_m" format="2">
  <advance width="651"/>
  <unicode hex="1047"/>
  <note>
seven_m
</note>
  <outline>
    <contour>
      <point x="382" y="-482" type="curve" smooth="yes"/>
      <point x="482" y="-482"/>
      <point x="561" y="-426"/>
      <point x="608" y="-328" type="curve"/>
      <point x="469" y="-234" type="line"/>
      <point x="445" y="-292"/>
      <point x="425" y="-322"/>
      <point x="395" y="-322" type="curve" smooth="yes"/>
      <point x="374" y="-322"/>
      <point x="360" y="-304"/>
      <point x="360" y="-273" type="curve" smooth="yes"/>
      <point x="360" y="-232"/>
      <point x="370" y="-194"/>
      <point x="469" y="-44" type="curve" smooth="yes"/>
      <point x="574" y="114"/>
      <point x="605" y="193"/>
      <point x="605" y="271" type="curve" smooth="yes"/>
      <point x="605" y="446"/>
      <point x="500" y="563"/>
      <point x="338" y="563" type="curve" smooth="yes"/>
      <point x="145" y="563"/>
      <point x="42" y="410"/>
      <point x="42" y="249" type="curve" smooth="yes"/>
      <point x="42" y="84"/>
      <point x="133" y="20"/>
      <point x="190" y="-9" type="curve"/>
      <point x="278" y="125" type="line"/>
      <point x="257" y="143"/>
      <point x="228" y="168"/>
      <point x="228" y="252" type="curve" smooth="yes"/>
      <point x="228" y="349"/>
      <point x="270" y="406"/>
      <point x="330" y="406" type="curve" smooth="yes"/>
      <point x="387" y="406"/>
      <point x="417" y="361"/>
      <point x="417" y="287" type="curve" smooth="yes"/>
      <point x="417" y="226"/>
      <point x="393" y="170"/>
      <point x="313" y="45" type="curve" smooth="yes"/>
      <point x="265" y="-39"/>
      <point x="172" y="-125"/>
      <point x="172" y="-272" type="curve" smooth="yes"/>
      <point x="172" y="-413"/>
      <point x="258" y="-482"/>
    </contour>
  </outline>
</glyph>
<glyph name="eight_m" format="2">
  <advance width="723"/>
  <unicode hex="1048"/>
  <note>
eight_m
</note>
  <outline>
    <contour>
      <point x="251" y="-9" type="curve"/>
      <point x="309" y="58"/>
      <point x="355" y="135"/>
      <point x="355" y="259" type="curve" smooth="yes"/>
      <point x="355" y="299"/>
      <point x="350" y="362"/>
      <point x="322" y="438" type="curve"/>
      <point x="232" y="394" type="line"/>
      <point x="248" y="331"/>
      <point x="260" y="294"/>
      <point x="260" y="259" type="curve" smooth="yes"/>
      <point x="260" y="215"/>
      <point x="253" y="188"/>
      <point x="236" y="160" type="curve"/>
      <point x="200" y="201"/>
      <point x="197" y="237"/>
      <point x="197" y="279" type="curve" smooth="yes"/>
      <point x="197" y="350"/>
      <point x="261" y="412"/>
      <point x="347" y="412" type="curve" smooth="yes"/>
      <point x="441" y="412"/>
      <point x="483" y="366"/>
      <point x="483" y="284" type="curve" smooth="yes"/>
      <point x="483" y="242"/>
      <point x="476" y="199"/>
      <point x="426" y="147" type="curve"/>
      <point x="527" y="-10" type="line"/>
      <point x="614" y="39"/>
      <point x="675" y="128"/>
      <point x="675" y="283" type="curve" smooth="yes"/>
      <point x="675" y="442"/>
      <point x="566" y="563"/>
      <point x="354" y="563" type="curve" smooth="yes"/>
      <point x="156" y="563"/>
      <point x="48" y="436"/>
      <point x="48" y="283" type="curve" smooth="yes"/>
      <point x="48" y="138"/>
      <point x="129" y="33"/>
    </contour>
  </outline>
</glyph>
<glyph name="nine_m" format="2">
  <advance width="791"/>
  <unicode hex="1049"/>
  <note>
nine_m
</note>
  <outline>
    <contour>
      <point x="390" y="-482" type="curve" smooth="yes"/>
      <point x="600" y="-482"/>
      <point x="706" y="-375"/>
      <point x="706" y="-166" type="curve" smooth="yes"/>
      <point x="706" y="-161" type="line"/>
      <point x="520" y="-161" type="line"/>
      <point x="520" y="-163" type="line" smooth="yes"/>
      <point x="520" y="-289"/>
      <point x="468" y="-326"/>
      <point x="393" y="-326" type="curve" smooth="yes"/>
      <point x="316" y="-326"/>
      <point x="265" y="-284"/>
      <point x="265" y="-166" type="curve" smooth="yes"/>
      <point x="265" y="265" type="line" smooth="yes"/>
      <point x="265" y="372"/>
      <point x="308" y="408"/>
      <point x="399" y="408" type="curve" smooth="yes"/>
      <point x="472" y="408"/>
      <point x="523" y="365"/>
      <point x="523" y="315" type="curve" smooth="yes"/>
      <point x="523" y="299"/>
      <point x="515" y="289"/>
      <point x="500" y="289" type="curve" smooth="yes"/>
      <point x="484" y="289"/>
      <point x="473" y="293"/>
      <point x="447" y="293" type="curve" smooth="yes"/>
      <point x="361" y="293"/>
      <point x="303" y="241"/>
      <point x="303" y="148" type="curve" smooth="yes"/>
      <point x="303" y="56"/>
      <point x="358" y="-10"/>
      <point x="462" y="-10" type="curve" smooth="yes"/>
      <point x="517" y="-10"/>
      <point x="565" y="18"/>
      <point x="593" y="64" type="curve"/>
      <point x="509" y="133" type="line"/>
      <point x="497" y="120"/>
      <point x="488" y="111"/>
      <point x="468" y="111" type="curve" smooth="yes"/>
      <point x="452" y="111"/>
      <point x="438" y="123"/>
      <point x="438" y="143" type="curve" smooth="yes"/>
      <point x="438" y="167"/>
      <point x="457" y="178"/>
      <point x="480" y="178" type="curve" smooth="yes"/>
      <point x="516" y="178"/>
      <point x="530" y="166"/>
      <point x="580" y="166" type="curve" smooth="yes"/>
      <point x="672" y="166"/>
      <point x="706" y="226"/>
      <point x="706" y="312" type="curve" smooth="yes"/>
      <point x="706" y="472"/>
      <point x="584" y="564"/>
      <point x="390" y="564" type="curve" smooth="yes"/>
      <point x="194" y="564"/>
      <point x="79" y="461"/>
      <point x="79" y="262" type="curve" smooth="yes"/>
      <point x="79" y="-166" type="line" smooth="yes"/>
      <point x="79" y="-375"/>
      <point x="191" y="-482"/>
    </contour>
  </outline>
</glyph>
<glyph name="little_section" format="2">
  <advance width="328"/>
  <unicode hex="104A"/>
  <note>
little_section
</note>
  <outline>
    <contour>
      <point x="69" y="0" type="line"/>
      <point x="258" y="0" type="line"/>
      <point x="258" y="553" type="line"/>
      <point x="69" y="553" type="line"/>
    </contour>
  </outline>
</glyph>
<glyph name="locative" format="2">
  <advance width="690"/>
  <unicode hex="104C"/>
  <note>
locative
</note>
  <outline>
    <contour>
      <point x="294" y="-466" type="curve" smooth="yes"/>
      <point x="399" y="-466" type="line" smooth="yes"/>
      <point x="551" y="-466"/>
      <point x="624" y="-401"/>
      <point x="624" y="-273" type="curve" smooth="yes"/>
      <point x="624" y="0" type="line"/>
      <point x="552" y="-30"/>
      <point x="471" y="-58"/>
      <point x="388" y="-58" type="curve" smooth="yes"/>
      <point x="332" y="-58"/>
      <point x="307" y="-55"/>
      <point x="280" y="-50" type="curve"/>
      <point x="280" y="38" type="line"/>
      <point x="89" y="115" type="line"/>
      <point x="89" y="-126" type="line"/>
      <point x="165" y="-152"/>
      <point x="266" y="-169"/>
      <point x="370" y="-169" type="curve" smooth="yes"/>
      <point x="388" y="-169"/>
      <point x="414" y="-167"/>
      <point x="435" y="-164" type="curve"/>
      <point x="435" y="-293" type="line" smooth="yes"/>
      <point x="435" y="-325"/>
      <point x="425" y="-343"/>
      <point x="394" y="-343" type="curve" smooth="yes"/>
      <point x="299" y="-343" type="line" smooth="yes"/>
      <point x="269" y="-343"/>
      <point x="250" y="-336"/>
      <point x="250" y="-318" type="curve" smooth="yes"/>
      <point x="250" y="-305"/>
      <point x="259" y="-297"/>
      <point x="280" y="-297" type="curve" smooth="yes"/>
      <point x="307" y="-297"/>
      <point x="323" y="-304"/>
      <point x="344" y="-316" type="curve"/>
      <point x="399" y="-235" type="line"/>
      <point x="368" y="-212"/>
      <point x="321" y="-193"/>
      <point x="256" y="-193" type="curve" smooth="yes"/>
      <point x="140" y="-193"/>
      <point x="83" y="-242"/>
      <point x="83" y="-324" type="curve" smooth="yes"/>
      <point x="83" y="-407"/>
      <point x="158" y="-466"/>
    </contour>
    <contour>
      <point x="374" y="-10" type="curve" smooth="yes"/>
      <point x="539" y="-10"/>
      <point x="642" y="116"/>
      <point x="642" y="276" type="curve" smooth="yes"/>
      <point x="642" y="444"/>
      <point x="518" y="563"/>
      <point x="343" y="563" type="curve" smooth="yes"/>
      <point x="225" y="563"/>
      <point x="139" y="514"/>
      <point x="107" y="453" type="curve"/>
      <point x="235" y="369" type="line"/>
      <point x="258" y="399"/>
      <point x="296" y="412"/>
      <point x="344" y="412" type="curve" smooth="yes"/>
      <point x="409" y="412"/>
      <point x="450" y="358"/>
      <point x="450" y="275" type="curve" smooth="yes"/>
      <point x="450" y="199"/>
      <point x="409" y="140"/>
      <point x="327" y="140" type="curve" smooth="yes"/>
      <point x="286" y="140"/>
      <point x="250" y="159"/>
      <point x="232" y="192" type="curve"/>
      <point x="89" y="115" type="line"/>
      <point x="227" y="8"/>
      <point x="264" y="-10"/>
    </contour>
    <component base="asat" xOffset="767"/>
  </outline>
</glyph>
<glyph name="completed" format="2">
  <advance width="1059"/>
  <unicode hex="104D"/>
  <note>
completed
</note>
  <outline>
    <contour>
      <point x="261" y="-465" type="curve" smooth="yes"/>
      <point x="773" y="-465" type="line" smooth="yes"/>
      <point x="925" y="-465"/>
      <point x="998" y="-395"/>
      <point x="998" y="-246" type="curve" smooth="yes"/>
      <point x="998" y="272" type="line" smooth="yes"/>
      <point x="998" y="495"/>
      <point x="943" y="579"/>
      <point x="786" y="740" type="curve" smooth="yes"/>
      <point x="764" y="762"/>
      <point x="744" y="785"/>
      <point x="744" y="811" type="curve" smooth="yes"/>
      <point x="744" y="835"/>
      <point x="761" y="849"/>
      <point x="782" y="849" type="curve" smooth="yes"/>
      <point x="823" y="849"/>
      <point x="839" y="816"/>
      <point x="852" y="795" type="curve"/>
      <point x="989" y="865" type="line"/>
      <point x="962" y="943"/>
      <point x="889" y="1004"/>
      <point x="777" y="1004" type="curve" smooth="yes"/>
      <point x="646" y="1004"/>
      <point x="558" y="925"/>
      <point x="558" y="818" type="curve" smooth="yes"/>
      <point x="558" y="738"/>
      <point x="599" y="687"/>
      <point x="690" y="587" type="curve" smooth="yes"/>
      <point x="774" y="495"/>
      <point x="806" y="416"/>
      <point x="806" y="276" type="curve" smooth="yes"/>
      <point x="806" y="-256" type="line" smooth="yes"/>
      <point x="806" y="-288"/>
      <point x="796" y="-306"/>
      <point x="765" y="-306" type="curve" smooth="yes"/>
      <point x="259" y="-306" type="line" smooth="yes"/>
      <point x="227" y="-306"/>
      <point x="210" y="-297"/>
      <point x="210" y="-279" type="curve" smooth="yes"/>
      <point x="210" y="-268"/>
      <point x="221" y="-254"/>
      <point x="249" y="-254" type="curve" smooth="yes"/>
      <point x="278" y="-254"/>
      <point x="296" y="-261"/>
      <point x="318" y="-273" type="curve"/>
      <point x="379" y="-158" type="line"/>
      <point x="342" y="-140"/>
      <point x="298" y="-125"/>
      <point x="220" y="-125" type="curve" smooth="yes"/>
      <point x="121" y="-125"/>
      <point x="38" y="-193"/>
      <point x="38" y="-292" type="curve" smooth="yes"/>
      <point x="38" y="-405"/>
      <point x="122" y="-465"/>
    </contour>
    <contour>
      <point x="478" y="-130" type="line"/>
      <point x="667" y="-130" type="line"/>
      <point x="667" y="252" type="line" smooth="yes"/>
      <point x="667" y="426"/>
      <point x="560" y="563"/>
      <point x="337" y="563" type="curve" smooth="yes"/>
      <point x="163" y="563"/>
      <point x="38" y="449"/>
      <point x="38" y="276" type="curve" smooth="yes"/>
      <point x="38" y="101"/>
      <point x="161" y="-10"/>
      <point x="334" y="-10" type="curve" smooth="yes"/>
      <point x="363" y="-10"/>
      <point x="400" y="-9"/>
      <point x="446" y="7" type="curve"/>
      <point x="441" y="204"/>
      <point x="373" y="318"/>
      <point x="178" y="357" type="curve"/>
      <point x="159" y="245" type="line"/>
      <point x="263" y="223"/>
      <point x="310" y="168"/>
      <point x="334" y="81" type="curve"/>
      <point x="376" y="108" type="line"/>
      <point x="361" y="108"/>
      <point x="343" y="108"/>
      <point x="330" y="108" type="curve" smooth="yes"/>
      <point x="225" y="108"/>
      <point x="170" y="167"/>
      <point x="170" y="254" type="curve" smooth="yes"/>
      <point x="170" y="339"/>
      <point x="220" y="412"/>
      <point x="325" y="412" type="curve" smooth="yes"/>
      <point x="434" y="412"/>
      <point x="478" y="341"/>
      <point x="478" y="239" type="curve" smooth="yes"/>
    </contour>
  </outline>
</glyph>
<glyph name="aforementioned" format="2">
  <advance width="671"/>
  <unicode hex="104E"/>
  <note>
aforementioned
</note>
  <outline>
    <contour>
      <point x="350" y="-8" type="curve" smooth="yes"/>
      <point x="474" y="-8"/>
      <point x="560" y="45"/>
      <point x="601" y="115" type="curve"/>
      <point x="460" y="194" type="line"/>
      <point x="436" y="161"/>
      <point x="411" y="142"/>
      <point x="355" y="142" type="curve" smooth="yes"/>
      <point x="295" y="142"/>
      <point x="240" y="189"/>
      <point x="240" y="275" type="curve" smooth="yes"/>
      <point x="240" y="354"/>
      <point x="279" y="412"/>
      <point x="355" y="412" type="curve" smooth="yes"/>
      <point x="406" y="412"/>
      <point x="431" y="394"/>
      <point x="455" y="369" type="curve"/>
      <point x="581" y="451" type="line"/>
      <point x="546" y="515"/>
      <point x="456" y="563"/>
      <point x="350" y="563" type="curve" smooth="yes"/>
      <point x="169" y="563"/>
      <point x="48" y="449"/>
      <point x="48" y="276" type="curve" smooth="yes"/>
      <point x="48" y="105"/>
      <point x="167" y="-8"/>
    </contour>
    <contour>
      <point x="412" y="-482" type="line"/>
      <point x="601" y="-482" type="line"/>
      <point x="601" y="115" type="line"/>
      <point x="412" y="5" type="line"/>
    </contour>
  </outline>
</glyph>
<glyph name="genitive" format="2">
  <advance width="1396"/>
  <unicode hex="104F"/>
  <note>
genitive
</note>
  <outline>
    <contour>
      <point x="1146" y="0" type="line"/>
      <point x="1335" y="0" type="line"/>
      <point x="1335" y="258" type="line" smooth="yes"/>
      <point x="1335" y="450"/>
      <point x="1293" y="541"/>
      <point x="1175" y="682" type="curve" smooth="yes"/>
      <point x="1124" y="743"/>
      <point x="1106" y="777"/>
      <point x="1106" y="804" type="curve" smooth="yes"/>
      <point x="1106" y="833"/>
      <point x="1124" y="849"/>
      <point x="1148" y="849" type="curve" smooth="yes"/>
      <point x="1185" y="849"/>
      <point x="1201" y="816"/>
      <point x="1230" y="762" type="curve"/>
      <point x="1367" y="836" type="line"/>
      <point x="1322" y="951"/>
      <point x="1247" y="1005"/>
      <point x="1142" y="1005" type="curve" smooth="yes"/>
      <point x="1005" y="1005"/>
      <point x="920" y="922"/>
      <point x="920" y="808" type="curve" smooth="yes"/>
      <point x="920" y="735"/>
      <point x="947" y="681"/>
      <point x="1033" y="578" type="curve" smooth="yes"/>
      <point x="1113" y="482"/>
      <point x="1146" y="378"/>
      <point x="1146" y="250" type="curve" smooth="yes"/>
    </contour>
    <contour>
      <point x="815" y="0" type="line"/>
      <point x="1004" y="0" type="line"/>
      <point x="1004" y="251" type="line" smooth="yes"/>
      <point x="1004" y="443"/>
      <point x="913" y="563"/>
      <point x="755" y="563" type="curve" smooth="yes"/>
      <point x="673" y="563"/>
      <point x="611" y="522"/>
      <point x="582" y="486" type="curve"/>
      <point x="664" y="341" type="line"/>
      <point x="665" y="362"/>
      <point x="691" y="401"/>
      <point x="736" y="401" type="curve" smooth="yes"/>
      <point x="797" y="401"/>
      <point x="815" y="341"/>
      <point x="815" y="236" type="curve" smooth="yes"/>
    </contour>
    <component base="e_m" xOffset="-10"/>
  </outline>
</glyph>
<glyph name="sha_skt" format="2">
  <advance width="722"/>
  <unicode hex="1050"/>
  <note>
sha_skt
</note>
  <outline>
    <contour>
      <point x="360" y="194" type="curve" smooth="yes"/>
      <point x="398" y="194"/>
      <point x="435" y="217"/>
      <point x="435" y="275" type="curve" smooth="yes"/>
      <point x="435" y="333"/>
      <point x="399" y="356"/>
      <point x="360" y="356" type="curve" smooth="yes"/>
      <point x="324" y="356"/>
      <point x="286" y="335"/>
      <point x="286" y="275" type="curve" smooth="yes"/>
      <point x="286" y="217"/>
      <point x="325" y="194"/>
    </contour>
    <component base="ga"/>
  </outline>
</glyph>
<glyph name="ssa_skt" format="2">
  <advance width="731"/>
  <unicode hex="1051"/>
  <note>
ssa_skt
</note>
  <outline>
    <contour>
      <point x="366" y="-10" type="curve" smooth="yes"/>
      <point x="569" y="-10"/>
      <point x="682" y="103"/>
      <point x="682" y="270" type="curve" smooth="yes"/>
      <point x="682" y="426"/>
      <point x="615" y="517"/>
      <point x="527" y="563" type="curve"/>
      <point x="436" y="406" type="line"/>
      <point x="483" y="354"/>
      <point x="491" y="309"/>
      <point x="491" y="268" type="curve" smooth="yes"/>
      <point x="491" y="191"/>
      <point x="438" y="140"/>
      <point x="364" y="140" type="curve" smooth="yes"/>
      <point x="291" y="140"/>
      <point x="240" y="197"/>
      <point x="240" y="268" type="curve" smooth="yes"/>
      <point x="240" y="314"/>
      <point x="249" y="354"/>
      <point x="299" y="406" type="curve"/>
      <point x="208" y="563" type="line"/>
      <point x="118" y="518"/>
      <point x="48" y="424"/>
      <point x="48" y="270" type="curve" smooth="yes"/>
      <point x="48" y="102"/>
      <point x="165" y="-10"/>
    </contour>
    <contour>
      <point x="366" y="200" type="curve" smooth="yes"/>
      <point x="406" y="200"/>
      <point x="441" y="222"/>
      <point x="441" y="281" type="curve" smooth="yes"/>
      <point x="441" y="339"/>
      <point x="405" y="361"/>
      <point x="366" y="361" type="curve" smooth="yes"/>
      <point x="330" y="361"/>
      <point x="292" y="339"/>
      <point x="292" y="281" type="curve" smooth="yes"/>
      <point x="292" y="223"/>
      <point x="331" y="200"/>
    </contour>
  </outline>
</glyph>
<glyph name="vocR_skt" format="2">
  <advance width="739"/>
  <unicode hex="1052"/>
  <note>
vocR_skt
</note>
  <outline>
    <contour>
      <point x="365" y="-10" type="curve" smooth="yes"/>
      <point x="553" y="-10"/>
      <point x="655" y="78"/>
      <point x="655" y="193" type="curve" smooth="yes"/>
      <point x="655" y="250"/>
      <point x="628" y="291"/>
      <point x="580" y="334" type="curve" smooth="yes"/>
      <point x="534" y="375"/>
      <point x="506" y="392"/>
      <point x="506" y="414" type="curve" smooth="yes"/>
      <point x="506" y="422"/>
      <point x="511" y="431"/>
      <point x="527" y="431" type="curve" smooth="yes"/>
      <point x="554" y="431"/>
      <point x="585" y="406"/>
      <point x="601" y="383" type="curve"/>
      <point x="680" y="464" type="line"/>
      <point x="645" y="529"/>
      <point x="569" y="564"/>
      <point x="502" y="564" type="curve" smooth="yes"/>
      <point x="396" y="564"/>
      <point x="339" y="506"/>
      <point x="339" y="422" type="curve" smooth="yes"/>
      <point x="339" y="359"/>
      <point x="377" y="311"/>
      <point x="420" y="277" type="curve" smooth="yes"/>
      <point x="455" y="250"/>
      <point x="464" y="232"/>
      <point x="464" y="208" type="curve" smooth="yes"/>
      <point x="464" y="168"/>
      <point x="415" y="140"/>
      <point x="356" y="140" type="curve" smooth="yes"/>
      <point x="273" y="140"/>
      <point x="215" y="187"/>
      <point x="215" y="268" type="curve" smooth="yes"/>
      <point x="215" y="329"/>
      <point x="244" y="375"/>
      <point x="298" y="406" type="curve"/>
      <point x="207" y="563" type="line"/>
      <point x="116" y="503"/>
      <point x="48" y="424"/>
      <point x="48" y="280" type="curve" smooth="yes"/>
      <point x="48" y="100"/>
      <point x="171" y="-10"/>
    </contour>
  </outline>
</glyph>
<glyph name="vocRR_skt" format="2">
  <advance width="714"/>
  <unicode hex="1053"/>
  <note>
vocRR_skt
</note>
  <outline>
    <contour>
      <point x="354" y="-10" type="curve" smooth="yes"/>
      <point x="553" y="-10"/>
      <point x="655" y="78"/>
      <point x="655" y="193" type="curve" smooth="yes"/>
      <point x="655" y="250"/>
      <point x="628" y="291"/>
      <point x="587" y="333" type="curve" smooth="yes"/>
      <point x="546" y="375"/>
      <point x="526" y="392"/>
      <point x="526" y="414" type="curve" smooth="yes"/>
      <point x="526" y="422"/>
      <point x="531" y="431"/>
      <point x="547" y="431" type="curve" smooth="yes"/>
      <point x="567" y="431"/>
      <point x="589" y="406"/>
      <point x="601" y="383" type="curve"/>
      <point x="680" y="464" type="line"/>
      <point x="649" y="529"/>
      <point x="591" y="564"/>
      <point x="520" y="564" type="curve" smooth="yes"/>
      <point x="412" y="564"/>
      <point x="369" y="504"/>
      <point x="369" y="422" type="curve" smooth="yes"/>
      <point x="369" y="359"/>
      <point x="388" y="321"/>
      <point x="422" y="284" type="curve" smooth="yes"/>
      <point x="453" y="251"/>
      <point x="464" y="232"/>
      <point x="464" y="208" type="curve" smooth="yes"/>
      <point x="464" y="168"/>
      <point x="424" y="140"/>
      <point x="354" y="140" type="curve" smooth="yes"/>
      <point x="284" y="140"/>
      <point x="244" y="168"/>
      <point x="244" y="208" type="curve" smooth="yes"/>
      <point x="244" y="232"/>
      <point x="255" y="251"/>
      <point x="286" y="284" type="curve" smooth="yes"/>
      <point x="320" y="321"/>
      <point x="339" y="359"/>
      <point x="339" y="422" type="curve" smooth="yes"/>
      <point x="339" y="504"/>
      <point x="296" y="564"/>
      <point x="188" y="564" type="curve" smooth="yes"/>
      <point x="117" y="564"/>
      <point x="59" y="529"/>
      <point x="28" y="464" type="curve"/>
      <point x="107" y="383" type="line"/>
      <point x="119" y="406"/>
      <point x="141" y="431"/>
      <point x="161" y="431" type="curve" smooth="yes"/>
      <point x="177" y="431"/>
      <point x="182" y="422"/>
      <point x="182" y="414" type="curve" smooth="yes"/>
      <point x="182" y="392"/>
      <point x="162" y="375"/>
      <point x="121" y="333" type="curve" smooth="yes"/>
      <point x="80" y="291"/>
      <point x="53" y="250"/>
      <point x="53" y="193" type="curve" smooth="yes"/>
      <point x="53" y="78"/>
      <point x="155" y="-10"/>
    </contour>
  </outline>
</glyph>
<glyph name="vocL_skt" format="2">
  <advance width="734"/>
  <unicode hex="1054"/>
  <note>
vocL_skt
</note>
  <outline>
    <contour>
      <point x="406" y="-10" type="curve" smooth="yes"/>
      <point x="496" y="-10"/>
      <point x="564" y="0"/>
      <point x="654" y="34" type="curve"/>
      <point x="607" y="165" type="line"/>
      <point x="522" y="135"/>
      <point x="462" y="127"/>
      <point x="407" y="127" type="curve" smooth="yes"/>
      <point x="297" y="127"/>
      <point x="240" y="171"/>
      <point x="240" y="278" type="curve" smooth="yes"/>
      <point x="240" y="369"/>
      <point x="276" y="423"/>
      <point x="384" y="423" type="curve" smooth="yes"/>
      <point x="438" y="423"/>
      <point x="500" y="401"/>
      <point x="512" y="386" type="curve"/>
      <point x="455" y="364"/>
      <point x="400" y="357"/>
      <point x="366" y="357" type="curve" smooth="yes"/>
      <point x="331" y="357"/>
      <point x="282" y="362"/>
      <point x="236" y="377" type="curve"/>
      <point x="217" y="258" type="line"/>
      <point x="279" y="243"/>
      <point x="331" y="241"/>
      <point x="380" y="241" type="curve" smooth="yes"/>
      <point x="492" y="241"/>
      <point x="572" y="261"/>
      <point x="687" y="313" type="curve"/>
      <point x="673" y="467"/>
      <point x="557" y="563"/>
      <point x="379" y="563" type="curve" smooth="yes"/>
      <point x="193" y="563"/>
      <point x="48" y="473"/>
      <point x="48" y="277" type="curve" smooth="yes"/>
      <point x="48" y="86"/>
      <point x="172" y="-10"/>
    </contour>
  </outline>
</glyph>
<glyph name="vocLL_skt" format="2">
  <advance width="735"/>
  <unicode hex="1055"/>
  <note>
vocLL_skt
</note>
  <outline>
    <contour>
      <point x="254" y="-8" type="curve" smooth="yes"/>
      <point x="334" y="-8"/>
      <point x="385" y="21"/>
      <point x="394" y="61" type="curve"/>
      <point x="372" y="57" type="line"/>
      <point x="378" y="43"/>
      <point x="417" y="-8"/>
      <point x="515" y="-8" type="curve" smooth="yes"/>
      <point x="640" y="-8"/>
      <point x="675" y="79"/>
      <point x="675" y="167" type="curve"/>
      <point x="512" y="195" type="line"/>
      <point x="512" y="171"/>
      <point x="508" y="152"/>
      <point x="480" y="152" type="curve" smooth="yes"/>
      <point x="459" y="152"/>
      <point x="449" y="165"/>
      <point x="449" y="188" type="curve" smooth="yes"/>
      <point x="449" y="195" type="line"/>
      <point x="311" y="195" type="line"/>
      <point x="311" y="188" type="line" smooth="yes"/>
      <point x="311" y="164"/>
      <point x="298" y="152"/>
      <point x="281" y="152" type="curve" smooth="yes"/>
      <point x="250" y="152"/>
      <point x="240" y="186"/>
      <point x="240" y="264" type="curve" smooth="yes"/>
      <point x="240" y="369"/>
      <point x="276" y="423"/>
      <point x="384" y="423" type="curve" smooth="yes"/>
      <point x="438" y="423"/>
      <point x="500" y="401"/>
      <point x="512" y="386" type="curve"/>
      <point x="455" y="364"/>
      <point x="400" y="357"/>
      <point x="366" y="357" type="curve" smooth="yes"/>
      <point x="331" y="357"/>
      <point x="282" y="362"/>
      <point x="236" y="377" type="curve"/>
      <point x="217" y="258" type="line"/>
      <point x="279" y="243"/>
      <point x="331" y="241"/>
      <point x="380" y="241" type="curve" smooth="yes"/>
      <point x="492" y="241"/>
      <point x="572" y="261"/>
      <point x="687" y="313" type="curve"/>
      <point x="673" y="467"/>
      <point x="557" y="563"/>
      <point x="379" y="563" type="curve" smooth="yes"/>
      <point x="193" y="563"/>
      <point x="48" y="473"/>
      <point x="48" y="264" type="curve" smooth="yes"/>
      <point x="48" y="95"/>
      <point x="131" y="-8"/>
    </contour>
  </outline>
</glyph>
<glyph name="_vocR_skt" format="2">
  <advance width="374"/>
  <unicode hex="1056"/>
  <note>
_vocR_skt
</note>
  <outline>
    <contour>
      <point x="108" y="-10" type="curve" smooth="yes"/>
      <point x="249" y="-10"/>
      <point x="332" y="70"/>
      <point x="332" y="185" type="curve" smooth="yes"/>
      <point x="332" y="264"/>
      <point x="288" y="308"/>
      <point x="215" y="346" type="curve" smooth="yes"/>
      <point x="168" y="371"/>
      <point x="149" y="383"/>
      <point x="149" y="402" type="curve" smooth="yes"/>
      <point x="149" y="410"/>
      <point x="156" y="421"/>
      <point x="171" y="421" type="curve" smooth="yes"/>
      <point x="197" y="421"/>
      <point x="224" y="403"/>
      <point x="249" y="378" type="curve"/>
      <point x="342" y="477" type="line"/>
      <point x="302" y="527"/>
      <point x="241" y="559"/>
      <point x="145" y="559" type="curve" smooth="yes"/>
      <point x="40" y="559"/>
      <point x="-34" y="498"/>
      <point x="-34" y="394" type="curve" smooth="yes"/>
      <point x="-34" y="338"/>
      <point x="-8" y="286"/>
      <point x="63" y="243" type="curve" smooth="yes"/>
      <point x="125" y="206"/>
      <point x="145" y="190"/>
      <point x="145" y="170" type="curve" smooth="yes"/>
      <point x="145" y="154"/>
      <point x="137" y="138"/>
      <point x="99" y="138" type="curve" smooth="yes"/>
      <point x="49" y="138"/>
      <point x="-9" y="181"/>
      <point x="-50" y="260" type="curve"/>
      <point x="-183" y="170" type="line"/>
      <point x="-107" y="39"/>
      <point x="-16" y="-10"/>
    </contour>
  </outline>
</glyph>
<glyph name="_vocRR_skt" format="2">
  <advance width="397"/>
  <unicode hex="1057"/>
  <note>
_vocRR_skt
</note>
  <outline>
    <contour>
      <point x="-62" y="-8" type="curve" smooth="yes"/>
      <point x="30" y="-8"/>
      <point x="58" y="45"/>
      <point x="59" y="62" type="curve"/>
      <point x="27" y="82" type="line"/>
      <point x="47" y="24"/>
      <point x="82" y="-8"/>
      <point x="176" y="-8" type="curve" smooth="yes"/>
      <point x="276" y="-8"/>
      <point x="355" y="63"/>
      <point x="355" y="172" type="curve" smooth="yes"/>
      <point x="355" y="261"/>
      <point x="311" y="307"/>
      <point x="234" y="348" type="curve" smooth="yes"/>
      <point x="191" y="371"/>
      <point x="172" y="383"/>
      <point x="172" y="402" type="curve" smooth="yes"/>
      <point x="172" y="410"/>
      <point x="179" y="421"/>
      <point x="194" y="421" type="curve" smooth="yes"/>
      <point x="220" y="421"/>
      <point x="247" y="403"/>
      <point x="272" y="378" type="curve"/>
      <point x="365" y="477" type="line"/>
      <point x="325" y="527"/>
      <point x="264" y="559"/>
      <point x="168" y="559" type="curve" smooth="yes"/>
      <point x="63" y="559"/>
      <point x="-11" y="498"/>
      <point x="-11" y="394" type="curve" smooth="yes"/>
      <point x="-11" y="338"/>
      <point x="15" y="286"/>
      <point x="86" y="245" type="curve" smooth="yes"/>
      <point x="146" y="210"/>
      <point x="166" y="195"/>
      <point x="166" y="177" type="curve" smooth="yes"/>
      <point x="166" y="165"/>
      <point x="160" y="152"/>
      <point x="143" y="152" type="curve" smooth="yes"/>
      <point x="129" y="152"/>
      <point x="118" y="161"/>
      <point x="118" y="188" type="curve" smooth="yes"/>
      <point x="118" y="200" type="line"/>
      <point x="-14" y="200" type="line"/>
      <point x="-14" y="188" type="line" smooth="yes"/>
      <point x="-14" y="161"/>
      <point x="-24" y="152"/>
      <point x="-36" y="152" type="curve" smooth="yes"/>
      <point x="-55" y="152"/>
      <point x="-59" y="171"/>
      <point x="-59" y="200" type="curve"/>
      <point x="-215" y="172" type="line"/>
      <point x="-215" y="79"/>
      <point x="-182" y="-8"/>
    </contour>
  </outline>
</glyph>
<glyph name="_vocL_skt" format="2">
  <unicode hex="1058"/>
  <note>
_vocL_skt
</note>
  <outline>
    <contour>
      <point x="-300" y="-482" type="curve" smooth="yes"/>
      <point x="-239" y="-482"/>
      <point x="-192" y="-474"/>
      <point x="-131" y="-448" type="curve"/>
      <point x="-162" y="-325" type="line"/>
      <point x="-220" y="-349"/>
      <point x="-261" y="-355"/>
      <point x="-299" y="-355" type="curve" smooth="yes"/>
      <point x="-367" y="-355"/>
      <point x="-402" y="-334"/>
      <point x="-402" y="-269" type="curve" smooth="yes"/>
      <point x="-402" y="-205"/>
      <point x="-377" y="-162"/>
      <point x="-316" y="-162" type="curve" smooth="yes"/>
      <point x="-293" y="-162"/>
      <point x="-266" y="-175"/>
      <point x="-261" y="-185" type="curve"/>
      <point x="-287" y="-193"/>
      <point x="-311" y="-196"/>
      <point x="-332" y="-196" type="curve" smooth="yes"/>
      <point x="-348" y="-196"/>
      <point x="-382" y="-192"/>
      <point x="-413" y="-180" type="curve"/>
      <point x="-430" y="-284" type="line"/>
      <point x="-388" y="-296"/>
      <point x="-352" y="-297"/>
      <point x="-319" y="-297" type="curve" smooth="yes"/>
      <point x="-243" y="-297"/>
      <point x="-188" y="-280"/>
      <point x="-110" y="-235" type="curve"/>
      <point x="-119" y="-119"/>
      <point x="-208" y="-46"/>
      <point x="-324" y="-46" type="curve" smooth="yes"/>
      <point x="-452" y="-46"/>
      <point x="-546" y="-116"/>
      <point x="-546" y="-269" type="curve" smooth="yes"/>
      <point x="-546" y="-411"/>
      <point x="-456" y="-482"/>
    </contour>
  </outline>
</glyph>
<glyph name="_vocLL_skt" format="2">
  <unicode hex="1059"/>
  <note>
_vocLL_skt
</note>
  <outline>
    <contour>
      <point x="-405" y="-483" type="curve" smooth="yes"/>
      <point x="-352" y="-483"/>
      <point x="-326" y="-460"/>
      <point x="-313" y="-421" type="curve"/>
      <point x="-334" y="-430" type="line"/>
      <point x="-316" y="-463"/>
      <point x="-292" y="-483"/>
      <point x="-242" y="-483" type="curve" smooth="yes"/>
      <point x="-153" y="-483"/>
      <point x="-128" y="-416"/>
      <point x="-128" y="-349" type="curve"/>
      <point x="-244" y="-327" type="line"/>
      <point x="-244" y="-346"/>
      <point x="-247" y="-360"/>
      <point x="-261" y="-360" type="curve" smooth="yes"/>
      <point x="-270" y="-360"/>
      <point x="-278" y="-353"/>
      <point x="-278" y="-333" type="curve" smooth="yes"/>
      <point x="-278" y="-327" type="line"/>
      <point x="-375" y="-327" type="line"/>
      <point x="-375" y="-333" type="line" smooth="yes"/>
      <point x="-375" y="-353"/>
      <point x="-381" y="-360"/>
      <point x="-391" y="-360" type="curve" smooth="yes"/>
      <point x="-408" y="-360"/>
      <point x="-415" y="-334"/>
      <point x="-415" y="-275" type="curve" smooth="yes"/>
      <point x="-415" y="-192"/>
      <point x="-387" y="-153"/>
      <point x="-329" y="-153" type="curve" smooth="yes"/>
      <point x="-288" y="-153"/>
      <point x="-259" y="-171"/>
      <point x="-254" y="-182" type="curve"/>
      <point x="-283" y="-198"/>
      <point x="-307" y="-204"/>
      <point x="-329" y="-204" type="curve" smooth="yes"/>
      <point x="-351" y="-204"/>
      <point x="-386" y="-200"/>
      <point x="-418" y="-189" type="curve"/>
      <point x="-432" y="-279" type="line"/>
      <point x="-388" y="-291"/>
      <point x="-351" y="-292"/>
      <point x="-317" y="-292" type="curve" smooth="yes"/>
      <point x="-249" y="-292"/>
      <point x="-201" y="-273"/>
      <point x="-131" y="-237" type="curve"/>
      <point x="-138" y="-124"/>
      <point x="-209" y="-46"/>
      <point x="-326" y="-46" type="curve" smooth="yes"/>
      <point x="-459" y="-46"/>
      <point x="-551" y="-115"/>
      <point x="-551" y="-275" type="curve" smooth="yes"/>
      <point x="-551" y="-404"/>
      <point x="-492" y="-483"/>
    </contour>
  </outline>
</glyph>
<glyph name="nga_mon" format="2">
  <advance width="691"/>
  <unicode hex="105A"/>
  <note>
nga_mon
</note>
  <outline>
    <contour>
      <point x="370" y="-8" type="curve" smooth="yes"/>
      <point x="493" y="-8"/>
      <point x="594" y="46"/>
      <point x="643" y="117" type="curve"/>
      <point x="500" y="194" type="line"/>
      <point x="464" y="161"/>
      <point x="428" y="142"/>
      <point x="375" y="142" type="curve" smooth="yes"/>
      <point x="295" y="142"/>
      <point x="240" y="189"/>
      <point x="240" y="275" type="curve" smooth="yes"/>
      <point x="240" y="355"/>
      <point x="292" y="412"/>
      <point x="375" y="412" type="curve" smooth="yes"/>
      <point x="421" y="412"/>
      <point x="455" y="402"/>
      <point x="495" y="369" type="curve"/>
      <point x="621" y="451" type="line"/>
      <point x="576" y="521"/>
      <point x="475" y="563"/>
      <point x="370" y="563" type="curve" smooth="yes"/>
      <point x="183" y="563"/>
      <point x="48" y="450"/>
      <point x="48" y="276" type="curve" smooth="yes"/>
      <point x="48" y="105"/>
      <point x="186" y="-8"/>
    </contour>
    <contour>
      <point x="394" y="-482" type="curve" smooth="yes"/>
      <point x="448" y="-482"/>
      <point x="478" y="-468"/>
      <point x="503" y="-453" type="curve"/>
      <point x="461" y="-364" type="line"/>
      <point x="451" y="-369"/>
      <point x="441" y="-374"/>
      <point x="427" y="-374" type="curve" smooth="yes"/>
      <point x="416" y="-374"/>
      <point x="410" y="-369"/>
      <point x="410" y="-360" type="curve" smooth="yes"/>
      <point x="410" y="-349"/>
      <point x="418" y="-342"/>
      <point x="441" y="-326" type="curve" smooth="yes"/>
      <point x="452" y="-318"/>
      <point x="530" y="-269"/>
      <point x="530" y="-188" type="curve" smooth="yes"/>
      <point x="530" y="-100"/>
      <point x="461" y="-46"/>
      <point x="353" y="-46" type="curve" smooth="yes"/>
      <point x="237" y="-46"/>
      <point x="172" y="-114"/>
      <point x="163" y="-207" type="curve"/>
      <point x="296" y="-207" type="line"/>
      <point x="300" y="-178"/>
      <point x="315" y="-157"/>
      <point x="342" y="-157" type="curve" smooth="yes"/>
      <point x="372" y="-157"/>
      <point x="385" y="-172"/>
      <point x="385" y="-192" type="curve" smooth="yes"/>
      <point x="385" y="-211"/>
      <point x="378" y="-224"/>
      <point x="362" y="-238" type="curve" smooth="yes"/>
      <point x="334" y="-262"/>
      <point x="278" y="-303"/>
      <point x="278" y="-375" type="curve" smooth="yes"/>
      <point x="278" y="-450"/>
      <point x="335" y="-482"/>
    </contour>
  </outline>
</glyph>
<glyph name="jha_mon" format="2">
  <advance width="965"/>
  <unicode hex="105B"/>
  <note>
jha_mon
</note>
  <outline>
    <contour>
      <point x="357" y="-10" type="curve" smooth="yes"/>
      <point x="435" y="-10"/>
      <point x="491" y="5"/>
      <point x="547" y="53" type="curve"/>
      <point x="443" y="168" type="line"/>
      <point x="415" y="147"/>
      <point x="394" y="140"/>
      <point x="360" y="140" type="curve" smooth="yes"/>
      <point x="285" y="140"/>
      <point x="240" y="191"/>
      <point x="240" y="275" type="curve" smooth="yes"/>
      <point x="240" y="355"/>
      <point x="281" y="412"/>
      <point x="343" y="412" type="curve" smooth="yes"/>
      <point x="362" y="412"/>
      <point x="382" y="411"/>
      <point x="396" y="402" type="curve"/>
      <point x="378" y="433" type="line"/>
      <point x="353" y="406"/>
      <point x="347" y="381"/>
      <point x="347" y="353" type="curve" smooth="yes"/>
      <point x="347" y="279"/>
      <point x="391" y="239"/>
      <point x="467" y="239" type="curve" smooth="yes"/>
      <point x="489" y="239"/>
      <point x="505" y="249"/>
      <point x="521" y="260" type="curve"/>
      <point x="480" y="271" type="line"/>
      <point x="493" y="189"/>
      <point x="518" y="152"/>
      <point x="615" y="152" type="curve" smooth="yes"/>
      <point x="649" y="152" type="line"/>
      <point x="649" y="300" type="line"/>
      <point x="631" y="300" type="line" smooth="yes"/>
      <point x="598" y="300"/>
      <point x="588" y="311"/>
      <point x="588" y="333" type="curve" smooth="yes"/>
      <point x="588" y="342"/>
      <point x="590" y="378"/>
      <point x="590" y="393" type="curve" smooth="yes"/>
      <point x="590" y="462"/>
      <point x="525" y="563"/>
      <point x="361" y="563" type="curve" smooth="yes"/>
      <point x="162" y="563"/>
      <point x="48" y="444"/>
      <point x="48" y="276" type="curve" smooth="yes"/>
      <point x="48" y="94"/>
      <point x="177" y="-10"/>
    </contour>
    <contour>
      <point x="577" y="-482" type="curve" smooth="yes"/>
      <point x="730" y="-482"/>
      <point x="833" y="-369"/>
      <point x="833" y="-217" type="curve" smooth="yes"/>
      <point x="833" y="554" type="line"/>
      <point x="641" y="554" type="line"/>
      <point x="641" y="-169" type="line" smooth="yes"/>
      <point x="641" y="-282"/>
      <point x="625" y="-319"/>
      <point x="581" y="-319" type="curve" smooth="yes"/>
      <point x="521" y="-319"/>
      <point x="520" y="-251"/>
      <point x="520" y="-171" type="curve" smooth="yes"/>
      <point x="520" y="48" type="line"/>
      <point x="329" y="3" type="line"/>
      <point x="329" y="-215" type="line" smooth="yes"/>
      <point x="329" y="-373"/>
      <point x="429" y="-482"/>
    </contour>
    <contour>
      <point x="464" y="327" type="curve" smooth="yes"/>
      <point x="438" y="327"/>
      <point x="425" y="340"/>
      <point x="425" y="361" type="curve" smooth="yes"/>
      <point x="425" y="381"/>
      <point x="439" y="394"/>
      <point x="464" y="394" type="curve" smooth="yes"/>
      <point x="486" y="394"/>
      <point x="501" y="384"/>
      <point x="501" y="361" type="curve" smooth="yes"/>
      <point x="501" y="338"/>
      <point x="486" y="327"/>
    </contour>
  </outline>
</glyph>
<glyph name="bba_mon" format="2">
  <advance width="756"/>
  <unicode hex="105C"/>
  <note>
bba_mon
</note>
  <outline>
    <contour>
      <point x="382" y="-10" type="curve" smooth="yes"/>
      <point x="578" y="-10"/>
      <point x="708" y="107"/>
      <point x="708" y="275" type="curve" smooth="yes"/>
      <point x="708" y="439"/>
      <point x="579" y="563"/>
      <point x="380" y="563" type="curve" smooth="yes"/>
      <point x="181" y="563"/>
      <point x="48" y="446"/>
      <point x="48" y="276" type="curve" smooth="yes"/>
      <point x="48" y="106"/>
      <point x="183" y="-10"/>
    </contour>
    <contour>
      <point x="375" y="105" type="curve" smooth="yes"/>
      <point x="257" y="105"/>
      <point x="196" y="184"/>
      <point x="196" y="278" type="curve" smooth="yes"/>
      <point x="196" y="365"/>
      <point x="265" y="440"/>
      <point x="375" y="440" type="curve" smooth="yes"/>
      <point x="490" y="440"/>
      <point x="561" y="369"/>
      <point x="561" y="276" type="curve" smooth="yes"/>
      <point x="561" y="184"/>
      <point x="498" y="105"/>
    </contour>
    <contour>
      <point x="378" y="150" type="curve" smooth="yes"/>
      <point x="453" y="150"/>
      <point x="507" y="194"/>
      <point x="507" y="274" type="curve" smooth="yes"/>
      <point x="507" y="350"/>
      <point x="450" y="397"/>
      <point x="378" y="397" type="curve" smooth="yes"/>
      <point x="304" y="397"/>
      <point x="252" y="352"/>
      <point x="252" y="273" type="curve" smooth="yes"/>
      <point x="252" y="195"/>
      <point x="304" y="150"/>
    </contour>
    <contour>
      <point x="380" y="237" type="curve" smooth="yes"/>
      <point x="358" y="237"/>
      <point x="347" y="250"/>
      <point x="347" y="273" type="curve" smooth="yes"/>
      <point x="347" y="296"/>
      <point x="362" y="311"/>
      <point x="380" y="311" type="curve" smooth="yes"/>
      <point x="398" y="311"/>
      <point x="412" y="296"/>
      <point x="412" y="273" type="curve" smooth="yes"/>
      <point x="412" y="250"/>
      <point x="398" y="237"/>
    </contour>
  </outline>
</glyph>
<glyph name="bbe_mon" format="2">
  <advance width="689"/>
  <unicode hex="105D"/>
  <note>
bbe_mon
</note>
  <outline>
    <contour>
      <point x="265" y="-465" type="curve" smooth="yes"/>
      <point x="388" y="-465" type="line" smooth="yes"/>
      <point x="540" y="-465"/>
      <point x="613" y="-392"/>
      <point x="613" y="-246" type="curve" smooth="yes"/>
      <point x="613" y="149" type="line"/>
      <point x="424" y="12" type="line"/>
      <point x="424" y="-256" type="line" smooth="yes"/>
      <point x="424" y="-288"/>
      <point x="414" y="-306"/>
      <point x="383" y="-306" type="curve" smooth="yes"/>
      <point x="263" y="-306" type="line" smooth="yes"/>
      <point x="231" y="-306"/>
      <point x="214" y="-297"/>
      <point x="214" y="-279" type="curve" smooth="yes"/>
      <point x="214" y="-268"/>
      <point x="225" y="-254"/>
      <point x="253" y="-254" type="curve" smooth="yes"/>
      <point x="282" y="-254"/>
      <point x="300" y="-261"/>
      <point x="322" y="-273" type="curve"/>
      <point x="383" y="-158" type="line"/>
      <point x="346" y="-140"/>
      <point x="302" y="-125"/>
      <point x="224" y="-125" type="curve" smooth="yes"/>
      <point x="125" y="-125"/>
      <point x="42" y="-193"/>
      <point x="42" y="-292" type="curve" smooth="yes"/>
      <point x="42" y="-405"/>
      <point x="126" y="-465"/>
    </contour>
    <contour>
      <point x="240" y="175" type="line"/>
      <point x="266" y="187"/>
      <point x="297" y="196"/>
      <point x="353" y="196" type="curve" smooth="yes"/>
      <point x="403" y="196"/>
      <point x="425" y="189"/>
      <point x="465" y="175" type="curve"/>
      <point x="502" y="273" type="line"/>
      <point x="444" y="298"/>
      <point x="402" y="305"/>
      <point x="353" y="305" type="curve" smooth="yes"/>
      <point x="298" y="305"/>
      <point x="251" y="290"/>
      <point x="206" y="274" type="curve"/>
    </contour>
    <contour>
      <point x="346" y="-10" type="curve" smooth="yes"/>
      <point x="531" y="-10"/>
      <point x="645" y="99"/>
      <point x="645" y="270" type="curve" smooth="yes"/>
      <point x="645" y="425"/>
      <point x="584" y="514"/>
      <point x="498" y="563" type="curve"/>
      <point x="407" y="406" type="line"/>
      <point x="459" y="351"/>
      <point x="467" y="306"/>
      <point x="467" y="262" type="curve" smooth="yes"/>
      <point x="467" y="169"/>
      <point x="424" y="129"/>
      <point x="354" y="129" type="curve" smooth="yes"/>
      <point x="265" y="129"/>
      <point x="227" y="183"/>
      <point x="227" y="266" type="curve" smooth="yes"/>
      <point x="227" y="313"/>
      <point x="235" y="353"/>
      <point x="286" y="406" type="curve"/>
      <point x="195" y="563" type="line"/>
      <point x="108" y="513"/>
      <point x="48" y="422"/>
      <point x="48" y="270" type="curve" smooth="yes"/>
      <point x="48" y="100"/>
      <point x="160" y="-10"/>
    </contour>
  </outline>
</glyph>
<glyph name="_medialNa_mon" format="2">
  <unicode hex="105E"/>
  <note>
_medialNa_mon
</note>
  <outline>
    <contour>
      <point x="-401" y="-482" type="curve" smooth="yes"/>
      <point x="-263" y="-482"/>
      <point x="-214" y="-422"/>
      <point x="-214" y="-312" type="curve" smooth="yes"/>
      <point x="-214" y="-52" type="line"/>
      <point x="-370" y="-52" type="line"/>
      <point x="-370" y="-310" type="line" smooth="yes"/>
      <point x="-370" y="-344"/>
      <point x="-381" y="-363"/>
      <point x="-407" y="-363" type="curve" smooth="yes"/>
      <point x="-427" y="-363"/>
      <point x="-439" y="-351"/>
      <point x="-439" y="-331" type="curve" smooth="yes"/>
      <point x="-439" y="-299"/>
      <point x="-400" y="-270"/>
      <point x="-332" y="-270" type="curve" smooth="yes"/>
      <point x="-263" y="-270"/>
      <point x="-219" y="-285"/>
      <point x="-135" y="-351" type="curve"/>
      <point x="-60" y="-244" type="line"/>
      <point x="-156" y="-186"/>
      <point x="-227" y="-158"/>
      <point x="-332" y="-158" type="curve" smooth="yes"/>
      <point x="-480" y="-158"/>
      <point x="-588" y="-224"/>
      <point x="-588" y="-329" type="curve" smooth="yes"/>
      <point x="-588" y="-432"/>
      <point x="-520" y="-482"/>
    </contour>
  </outline>
</glyph>
<glyph name="_medialMa_mon" format="2">
  <unicode hex="105F"/>
  <note>
_medialMa_mon
</note>
  <outline>
    <contour>
      <point x="-339" y="-482" type="curve" smooth="yes"/>
      <point x="-251" y="-482"/>
      <point x="-141" y="-451"/>
      <point x="-71" y="-398" type="curve"/>
      <point x="-140" y="-300" type="line"/>
      <point x="-175" y="-325"/>
      <point x="-248" y="-367"/>
      <point x="-333" y="-367" type="curve" smooth="yes"/>
      <point x="-390" y="-367"/>
      <point x="-415" y="-348"/>
      <point x="-415" y="-322" type="curve" smooth="yes"/>
      <point x="-415" y="-298"/>
      <point x="-398" y="-274"/>
      <point x="-345" y="-274" type="curve" smooth="yes"/>
      <point x="-308" y="-274"/>
      <point x="-281" y="-280"/>
      <point x="-241" y="-287" type="curve"/>
      <point x="-241" y="-52" type="line"/>
      <point x="-397" y="-52" type="line"/>
      <point x="-397" y="-160" type="line"/>
      <point x="-512" y="-172"/>
      <point x="-570" y="-236"/>
      <point x="-570" y="-317" type="curve" smooth="yes"/>
      <point x="-570" y="-431"/>
      <point x="-501" y="-482"/>
    </contour>
  </outline>
</glyph>
<glyph name="_medialLa_mon" format="2">
  <unicode hex="1060"/>
  <note>
_medialLa_mon
</note>
  <outline>
    <contour>
      <point x="-587" y="-465" type="line"/>
      <point x="-133" y="-465" type="line"/>
      <point x="-133" y="-311" type="line"/>
      <point x="-269" y="-311" type="line"/>
      <point x="-120" y="-46" type="line"/>
      <point x="-350" y="-46" type="line"/>
    </contour>
  </outline>
</glyph>
<glyph name="sha_skn" format="2">
  <advance width="790"/>
  <unicode hex="1061"/>
  <note>
sha_skn
</note>
  <outline>
    <contour>
      <point x="521" y="-465" type="line"/>
      <point x="710" y="-465" type="line"/>
      <point x="710" y="252" type="line" smooth="yes"/>
      <point x="710" y="416"/>
      <point x="602" y="563"/>
      <point x="366" y="563" type="curve" smooth="yes"/>
      <point x="181" y="563"/>
      <point x="48" y="449"/>
      <point x="48" y="276" type="curve" smooth="yes"/>
      <point x="48" y="101"/>
      <point x="162" y="-10"/>
      <point x="317" y="-10" type="curve" smooth="yes"/>
      <point x="365" y="-10"/>
      <point x="399" y="-9"/>
      <point x="449" y="7" type="curve"/>
      <point x="449" y="204"/>
      <point x="391" y="318"/>
      <point x="188" y="357" type="curve"/>
      <point x="169" y="245" type="line"/>
      <point x="280" y="223"/>
      <point x="312" y="168"/>
      <point x="337" y="81" type="curve"/>
      <point x="386" y="108" type="line"/>
      <point x="371" y="108"/>
      <point x="353" y="108"/>
      <point x="340" y="108" type="curve" smooth="yes"/>
      <point x="235" y="108"/>
      <point x="180" y="167"/>
      <point x="180" y="254" type="curve" smooth="yes"/>
      <point x="180" y="333"/>
      <point x="223" y="412"/>
      <point x="354" y="412" type="curve" smooth="yes"/>
      <point x="478" y="412"/>
      <point x="521" y="336"/>
      <point x="521" y="239" type="curve" smooth="yes"/>
    </contour>
    <contour>
      <point x="158" y="-465" type="line"/>
      <point x="449" y="-465" type="line"/>
      <point x="449" y="10" type="line"/>
      <point x="260" y="10" type="line"/>
      <point x="260" y="-311" type="line"/>
      <point x="158" y="-311" type="line"/>
    </contour>
  </outline>
</glyph>
<glyph name="eu_skn" format="2">
  <advance width="362"/>
  <unicode hex="1062"/>
  <note>
eu_skn
</note>
  <outline>
    <contour>
      <point x="103" y="0" type="line"/>
      <point x="292" y="0" type="line"/>
      <point x="292" y="553" type="line"/>
      <point x="0" y="553" type="line"/>
      <point x="0" y="398" type="line"/>
      <point x="103" y="398" type="line"/>
    </contour>
  </outline>
</glyph>
<glyph name="hathi_skn" format="2">
  <advance width="679"/>
  <unicode hex="1063"/>
  <note>
hathi_skn
</note>
  <outline>
    <contour>
      <point x="79" y="-465" type="line"/>
      <point x="270" y="-465" type="line"/>
      <point x="270" y="38" type="line"/>
      <point x="79" y="115" type="line"/>
    </contour>
    <contour>
      <point x="364" y="-10" type="curve" smooth="yes"/>
      <point x="529" y="-10"/>
      <point x="632" y="116"/>
      <point x="632" y="276" type="curve" smooth="yes"/>
      <point x="632" y="444"/>
      <point x="508" y="563"/>
      <point x="333" y="563" type="curve" smooth="yes"/>
      <point x="215" y="563"/>
      <point x="129" y="514"/>
      <point x="97" y="453" type="curve"/>
      <point x="225" y="369" type="line"/>
      <point x="248" y="399"/>
      <point x="286" y="412"/>
      <point x="334" y="412" type="curve" smooth="yes"/>
      <point x="399" y="412"/>
      <point x="440" y="358"/>
      <point x="440" y="275" type="curve" smooth="yes"/>
      <point x="440" y="199"/>
      <point x="399" y="140"/>
      <point x="317" y="140" type="curve" smooth="yes"/>
      <point x="276" y="140"/>
      <point x="240" y="159"/>
      <point x="222" y="192" type="curve"/>
      <point x="79" y="115" type="line"/>
      <point x="217" y="8"/>
      <point x="254" y="-10"/>
    </contour>
  </outline>
</glyph>
<glyph name="kepho_skn" format="2">
  <advance width="439"/>
  <unicode hex="1064"/>
  <note>
kepho_skn
</note>
  <outline>
    <contour>
      <point x="126" y="0" type="line"/>
      <point x="417" y="0" type="line"/>
      <point x="417" y="156" type="line"/>
      <point x="315" y="156" type="line"/>
      <point x="315" y="553" type="line"/>
      <point x="23" y="553" type="line"/>
      <point x="23" y="398" type="line"/>
      <point x="126" y="398" type="line"/>
    </contour>
  </outline>
</glyph>
<glyph name="tha_wpk" format="2">
  <advance width="738"/>
  <unicode hex="1065"/>
  <note>
tha_wpk
</note>
  <outline>
    <contour>
      <point x="364" y="-8" type="curve" smooth="yes"/>
      <point x="548" y="-8"/>
      <point x="686" y="105"/>
      <point x="686" y="276" type="curve" smooth="yes"/>
      <point x="686" y="450"/>
      <point x="551" y="563"/>
      <point x="364" y="563" type="curve" smooth="yes"/>
      <point x="259" y="563"/>
      <point x="158" y="521"/>
      <point x="113" y="451" type="curve"/>
      <point x="239" y="369" type="line"/>
      <point x="279" y="402"/>
      <point x="313" y="412"/>
      <point x="359" y="412" type="curve" smooth="yes"/>
      <point x="442" y="412"/>
      <point x="494" y="355"/>
      <point x="494" y="275" type="curve" smooth="yes"/>
      <point x="494" y="189"/>
      <point x="439" y="142"/>
      <point x="359" y="142" type="curve" smooth="yes"/>
      <point x="306" y="142"/>
      <point x="270" y="161"/>
      <point x="234" y="194" type="curve"/>
      <point x="91" y="117" type="line"/>
      <point x="140" y="46"/>
      <point x="241" y="-8"/>
    </contour>
  </outline>
</glyph>
<glyph name="pwa_wpk" format="2">
  <advance width="722"/>
  <unicode hex="1066"/>
  <note>
pwa_wpk
</note>
  <outline>
    <contour>
      <point x="361" y="-10" type="curve" smooth="yes"/>
      <point x="555" y="-10"/>
      <point x="674" y="99"/>
      <point x="674" y="270" type="curve" smooth="yes"/>
      <point x="674" y="425"/>
      <point x="609" y="514"/>
      <point x="517" y="563" type="curve"/>
      <point x="426" y="406" type="line"/>
      <point x="475" y="354"/>
      <point x="482" y="311"/>
      <point x="482" y="269" type="curve" smooth="yes"/>
      <point x="482" y="193"/>
      <point x="434" y="141"/>
      <point x="359" y="141" type="curve" smooth="yes"/>
      <point x="287" y="141"/>
      <point x="240" y="198"/>
      <point x="240" y="269" type="curve" smooth="yes"/>
      <point x="240" y="315"/>
      <point x="247" y="354"/>
      <point x="296" y="406" type="curve"/>
      <point x="205" y="563" type="line"/>
      <point x="112" y="513"/>
      <point x="48" y="422"/>
      <point x="48" y="270" type="curve" smooth="yes"/>
      <point x="48" y="100"/>
      <point x="166" y="-10"/>
    </contour>
    <contour>
      <point x="172" y="-465" type="line"/>
      <point x="462" y="-465" type="line"/>
      <point x="462" y="20" type="line"/>
      <point x="273" y="14" type="line"/>
      <point x="273" y="-311" type="line"/>
      <point x="172" y="-311" type="line"/>
    </contour>
  </outline>
</glyph>
<glyph name="eu_wpk" format="2">
  <advance width="452"/>
  <unicode hex="1067"/>
  <note>
eu_wpk
</note>
  <outline>
    <contour>
      <point x="197" y="-9" type="curve" smooth="yes"/>
      <point x="308" y="-9"/>
      <point x="383" y="49"/>
      <point x="383" y="159" type="curve" smooth="yes"/>
      <point x="383" y="262"/>
      <point x="309" y="324"/>
      <point x="197" y="324" type="curve" smooth="yes"/>
      <point x="85" y="324"/>
      <point x="12" y="262"/>
      <point x="12" y="159" type="curve" smooth="yes"/>
      <point x="12" y="49"/>
      <point x="87" y="-9"/>
    </contour>
    <contour>
      <point x="197" y="108" type="curve" smooth="yes"/>
      <point x="166" y="108"/>
      <point x="150" y="129"/>
      <point x="150" y="159" type="curve" smooth="yes"/>
      <point x="150" y="190"/>
      <point x="170" y="206"/>
      <point x="197" y="206" type="curve" smooth="yes"/>
      <point x="225" y="206"/>
      <point x="245" y="190"/>
      <point x="245" y="159" type="curve" smooth="yes"/>
      <point x="245" y="129"/>
      <point x="229" y="108"/>
    </contour>
    <contour>
      <point x="383" y="159" type="line"/>
      <point x="383" y="553" type="line"/>
      <point x="203" y="553" type="line"/>
      <point x="203" y="313" type="line"/>
    </contour>
  </outline>
</glyph>
<glyph name="ue_wpk" format="2">
  <advance width="444"/>
  <unicode hex="1068"/>
  <note>
ue_wpk
</note>
  <outline>
    <contour>
      <point x="23" y="0" type="line"/>
      <point x="315" y="0" type="line"/>
      <point x="315" y="553" type="line"/>
      <point x="126" y="553" type="line"/>
      <point x="126" y="156" type="line"/>
      <point x="23" y="156" type="line"/>
    </contour>
    <contour>
      <point x="218" y="631" type="curve" smooth="yes"/>
      <point x="301" y="631"/>
      <point x="360" y="677"/>
      <point x="360" y="760" type="curve" smooth="yes"/>
      <point x="360" y="829"/>
      <point x="305" y="885"/>
      <point x="218" y="885" type="curve" smooth="yes"/>
      <point x="131" y="885"/>
      <point x="79" y="836"/>
      <point x="79" y="758" type="curve" smooth="yes"/>
      <point x="79" y="677"/>
      <point x="135" y="631"/>
    </contour>
    <contour>
      <point x="220" y="720" type="curve" smooth="yes"/>
      <point x="196" y="720"/>
      <point x="184" y="735"/>
      <point x="184" y="758" type="curve" smooth="yes"/>
      <point x="184" y="782"/>
      <point x="199" y="794"/>
      <point x="220" y="794" type="curve" smooth="yes"/>
      <point x="241" y="794"/>
      <point x="256" y="782"/>
      <point x="256" y="758" type="curve" smooth="yes"/>
      <point x="256" y="735"/>
      <point x="241" y="720"/>
    </contour>
  </outline>
</glyph>
<glyph name="tone1_wpk" format="2">
  <advance width="481"/>
  <unicode hex="1069"/>
  <note>
tone1_wpk
</note>
  <outline>
    <contour>
      <point x="213" y="-8" type="curve" smooth="yes"/>
      <point x="313" y="-8"/>
      <point x="380" y="23"/>
      <point x="449" y="102" type="curve"/>
      <point x="354" y="197" type="line"/>
      <point x="328" y="162"/>
      <point x="283" y="126"/>
      <point x="243" y="126" type="curve" smooth="yes"/>
      <point x="222" y="126"/>
      <point x="211" y="137"/>
      <point x="211" y="154" type="curve" smooth="yes"/>
      <point x="211" y="173"/>
      <point x="223" y="191"/>
      <point x="251" y="207" type="curve" smooth="yes"/>
      <point x="390" y="286"/>
      <point x="416" y="340"/>
      <point x="416" y="412" type="curve" smooth="yes"/>
      <point x="416" y="506"/>
      <point x="347" y="563"/>
      <point x="235" y="563" type="curve" smooth="yes"/>
      <point x="142" y="563"/>
      <point x="87" y="525"/>
      <point x="42" y="490" type="curve"/>
      <point x="121" y="387" type="line"/>
      <point x="151" y="407"/>
      <point x="178" y="425"/>
      <point x="208" y="425" type="curve" smooth="yes"/>
      <point x="229" y="425"/>
      <point x="236" y="415"/>
      <point x="236" y="403" type="curve" smooth="yes"/>
      <point x="236" y="390"/>
      <point x="230" y="381"/>
      <point x="191" y="354" type="curve" smooth="yes"/>
      <point x="55" y="260"/>
      <point x="36" y="214"/>
      <point x="36" y="144" type="curve" smooth="yes"/>
      <point x="36" y="76"/>
      <point x="88" y="-8"/>
    </contour>
  </outline>
</glyph>
<glyph name="tone2_wpk" format="2">
  <advance width="480"/>
  <unicode hex="106A"/>
  <note>
tone2_wpk
</note>
  <outline>
    <contour>
      <point x="203" y="-9" type="curve" smooth="yes"/>
      <point x="351" y="-9"/>
      <point x="411" y="66"/>
      <point x="411" y="183" type="curve" smooth="yes"/>
      <point x="411" y="553" type="line"/>
      <point x="230" y="553" type="line"/>
      <point x="230" y="188" type="line" smooth="yes"/>
      <point x="230" y="154"/>
      <point x="221" y="132"/>
      <point x="203" y="132" type="curve" smooth="yes"/>
      <point x="178" y="132"/>
      <point x="170" y="154"/>
      <point x="170" y="207" type="curve"/>
      <point x="-2" y="207" type="line"/>
      <point x="-2" y="69"/>
      <point x="62" y="-9"/>
    </contour>
  </outline>
</glyph>
<glyph name="tone3_wpk" format="2">
  <advance width="480"/>
  <unicode hex="106B"/>
  <note>
tone3_wpk
</note>
  <outline>
    <contour>
      <point x="230" y="0" type="line"/>
      <point x="411" y="0" type="line"/>
      <point x="411" y="370" type="line" smooth="yes"/>
      <point x="411" y="487"/>
      <point x="351" y="562"/>
      <point x="203" y="562" type="curve" smooth="yes"/>
      <point x="62" y="562"/>
      <point x="-2" y="484"/>
      <point x="-2" y="346" type="curve"/>
      <point x="170" y="346" type="line"/>
      <point x="170" y="399"/>
      <point x="178" y="421"/>
      <point x="203" y="421" type="curve" smooth="yes"/>
      <point x="221" y="421"/>
      <point x="230" y="399"/>
      <point x="230" y="365" type="curve" smooth="yes"/>
    </contour>
  </outline>
</glyph>
<glyph name="tone4_wpk" format="2">
  <advance width="480"/>
  <unicode hex="106C"/>
  <note>
tone4_wpk
</note>
  <outline>
    <contour>
      <point x="277" y="-9" type="curve" smooth="yes"/>
      <point x="418" y="-9"/>
      <point x="482" y="69"/>
      <point x="482" y="207" type="curve"/>
      <point x="310" y="207" type="line"/>
      <point x="310" y="154"/>
      <point x="302" y="132"/>
      <point x="277" y="132" type="curve" smooth="yes"/>
      <point x="259" y="132"/>
      <point x="250" y="154"/>
      <point x="250" y="188" type="curve" smooth="yes"/>
      <point x="250" y="553" type="line"/>
      <point x="69" y="553" type="line"/>
      <point x="69" y="183" type="line" smooth="yes"/>
      <point x="69" y="66"/>
      <point x="129" y="-9"/>
    </contour>
  </outline>
</glyph>
<glyph name="tone5_wpk" format="2">
  <advance width="481"/>
  <unicode hex="106D"/>
  <note>
tone5_wpk
</note>
  <outline>
    <contour>
      <point x="267" y="-8" type="curve" smooth="yes"/>
      <point x="392" y="-8"/>
      <point x="444" y="76"/>
      <point x="444" y="144" type="curve" smooth="yes"/>
      <point x="444" y="214"/>
      <point x="425" y="260"/>
      <point x="289" y="354" type="curve" smooth="yes"/>
      <point x="250" y="381"/>
      <point x="244" y="390"/>
      <point x="244" y="403" type="curve" smooth="yes"/>
      <point x="244" y="415"/>
      <point x="251" y="425"/>
      <point x="272" y="425" type="curve" smooth="yes"/>
      <point x="302" y="425"/>
      <point x="329" y="407"/>
      <point x="359" y="387" type="curve"/>
      <point x="438" y="490" type="line"/>
      <point x="393" y="525"/>
      <point x="338" y="563"/>
      <point x="245" y="563" type="curve" smooth="yes"/>
      <point x="133" y="563"/>
      <point x="64" y="506"/>
      <point x="64" y="412" type="curve" smooth="yes"/>
      <point x="64" y="340"/>
      <point x="90" y="286"/>
      <point x="229" y="207" type="curve" smooth="yes"/>
      <point x="257" y="191"/>
      <point x="269" y="173"/>
      <point x="269" y="154" type="curve" smooth="yes"/>
      <point x="269" y="137"/>
      <point x="258" y="126"/>
      <point x="237" y="126" type="curve" smooth="yes"/>
      <point x="197" y="126"/>
      <point x="152" y="162"/>
      <point x="126" y="197" type="curve"/>
      <point x="31" y="102" type="line"/>
      <point x="100" y="23"/>
      <point x="167" y="-8"/>
    </contour>
  </outline>
</glyph>
<glyph name="nna_epk" format="2">
  <advance width="1437"/>
  <unicode hex="106E"/>
  <note>
nna_epk
</note>
  <outline>
    <contour>
      <point x="205" y="-10" type="curve"/>
      <point x="296" y="147" type="line"/>
      <point x="247" y="199"/>
      <point x="240" y="238"/>
      <point x="240" y="284" type="curve" smooth="yes"/>
      <point x="240" y="355"/>
      <point x="287" y="412"/>
      <point x="359" y="412" type="curve" smooth="yes"/>
      <point x="434" y="412"/>
      <point x="482" y="360"/>
      <point x="482" y="284" type="curve" smooth="yes"/>
      <point x="482" y="242"/>
      <point x="475" y="199"/>
      <point x="426" y="147" type="curve"/>
      <point x="517" y="-10" type="line"/>
      <point x="597" y="39"/>
      <point x="654" y="128"/>
      <point x="654" y="283" type="curve" smooth="yes"/>
      <point x="654" y="454"/>
      <point x="543" y="563"/>
      <point x="361" y="563" type="curve" smooth="yes"/>
      <point x="166" y="563"/>
      <point x="48" y="453"/>
      <point x="48" y="283" type="curve" smooth="yes"/>
      <point x="48" y="131"/>
      <point x="112" y="40"/>
    </contour>
    <contour>
      <point x="805" y="-10" type="line"/>
      <point x="891" y="39"/>
      <point x="952" y="128"/>
      <point x="952" y="283" type="curve" smooth="yes"/>
      <point x="952" y="454"/>
      <point x="841" y="563"/>
      <point x="659" y="563" type="curve" smooth="yes"/>
      <point x="572" y="563"/>
      <point x="500" y="541"/>
      <point x="447" y="501" type="curve"/>
      <point x="571" y="375" type="line"/>
      <point x="592" y="398"/>
      <point x="621" y="412"/>
      <point x="657" y="412" type="curve" smooth="yes"/>
      <point x="732" y="412"/>
      <point x="780" y="360"/>
      <point x="780" y="284" type="curve" smooth="yes"/>
      <point x="780" y="242"/>
      <point x="772" y="199"/>
      <point x="714" y="147" type="curve"/>
    </contour>
    <contour>
      <point x="1114" y="-10" type="curve" smooth="yes"/>
      <point x="1301" y="-10"/>
      <point x="1388" y="129"/>
      <point x="1388" y="278" type="curve" smooth="yes"/>
      <point x="1388" y="464"/>
      <point x="1266" y="563"/>
      <point x="1080" y="563" type="curve" smooth="yes"/>
      <point x="958" y="563"/>
      <point x="901" y="515"/>
      <point x="857" y="479" type="curve"/>
      <point x="930" y="331" type="line"/>
      <point x="959" y="368"/>
      <point x="998" y="414"/>
      <point x="1082" y="414" type="curve" smooth="yes"/>
      <point x="1150" y="414"/>
      <point x="1196" y="352"/>
      <point x="1196" y="280" type="curve" smooth="yes"/>
      <point x="1196" y="199"/>
      <point x="1160" y="152"/>
      <point x="1105" y="152" type="curve" smooth="yes"/>
      <point x="1080" y="152"/>
      <point x="1063" y="155"/>
      <point x="1040" y="167" type="curve"/>
      <point x="978" y="26" type="line"/>
      <point x="1005" y="6"/>
      <point x="1051" y="-10"/>
    </contour>
  </outline>
</glyph>
<glyph name="ywa_epk" format="2">
  <advance width="1105"/>
  <unicode hex="106F"/>
  <note>
ywa_epk
</note>
  <outline>
    <contour>
      <point x="361" y="-10" type="curve" smooth="yes"/>
      <point x="536" y="-10"/>
      <point x="644" y="99"/>
      <point x="644" y="270" type="curve" smooth="yes"/>
      <point x="644" y="425"/>
      <point x="583" y="514"/>
      <point x="497" y="563" type="curve"/>
      <point x="406" y="406" type="line"/>
      <point x="446" y="354"/>
      <point x="452" y="311"/>
      <point x="452" y="269" type="curve" smooth="yes"/>
      <point x="452" y="193"/>
      <point x="416" y="141"/>
      <point x="359" y="141" type="curve" smooth="yes"/>
      <point x="287" y="141"/>
      <point x="240" y="198"/>
      <point x="240" y="269" type="curve" smooth="yes"/>
      <point x="240" y="315"/>
      <point x="246" y="354"/>
      <point x="286" y="406" type="curve"/>
      <point x="195" y="563" type="line"/>
      <point x="108" y="513"/>
      <point x="48" y="422"/>
      <point x="48" y="270" type="curve" smooth="yes"/>
      <point x="48" y="100"/>
      <point x="166" y="-10"/>
    </contour>
    <contour>
      <point x="637" y="-465" type="line"/>
      <point x="927" y="-465" type="line"/>
      <point x="927" y="35" type="line"/>
      <point x="738" y="10" type="line"/>
      <point x="738" y="-311" type="line"/>
      <point x="637" y="-311" type="line"/>
    </contour>
    <contour>
      <point x="799" y="-10" type="curve" smooth="yes"/>
      <point x="974" y="-10"/>
      <point x="1056" y="129"/>
      <point x="1056" y="278" type="curve" smooth="yes"/>
      <point x="1056" y="464"/>
      <point x="941" y="563"/>
      <point x="765" y="563" type="curve" smooth="yes"/>
      <point x="632" y="563"/>
      <point x="582" y="515"/>
      <point x="557" y="490" type="curve"/>
      <point x="634" y="334" type="line"/>
      <point x="648" y="372"/>
      <point x="676" y="414"/>
      <point x="750" y="414" type="curve" smooth="yes"/>
      <point x="826" y="414"/>
      <point x="864" y="354"/>
      <point x="864" y="280" type="curve" smooth="yes"/>
      <point x="864" y="199"/>
      <point x="835" y="152"/>
      <point x="780" y="152" type="curve" smooth="yes"/>
      <point x="765" y="152"/>
      <point x="748" y="155"/>
      <point x="725" y="167" type="curve"/>
      <point x="663" y="26" type="line"/>
      <point x="690" y="6"/>
      <point x="736" y="-10"/>
    </contour>
  </outline>
</glyph>
<glyph name="ghwa_epk" format="2">
  <advance width="1079"/>
  <unicode hex="1070"/>
  <note>
ghwa_epk
</note>
  <outline>
    <contour>
      <point x="317" y="-10" type="curve" smooth="yes"/>
      <point x="554" y="-10"/>
      <point x="619" y="125"/>
      <point x="619" y="268" type="curve" smooth="yes"/>
      <point x="619" y="441"/>
      <point x="552" y="519"/>
      <point x="470" y="563" type="curve"/>
      <point x="381" y="406" type="line"/>
      <point x="440" y="362"/>
      <point x="452" y="309"/>
      <point x="452" y="267" type="curve" smooth="yes"/>
      <point x="452" y="191"/>
      <point x="411" y="140"/>
      <point x="329" y="140" type="curve" smooth="yes"/>
      <point x="276" y="140"/>
      <point x="244" y="166"/>
      <point x="244" y="208" type="curve" smooth="yes"/>
      <point x="244" y="232"/>
      <point x="253" y="250"/>
      <point x="285" y="278" type="curve" smooth="yes"/>
      <point x="322" y="311"/>
      <point x="351" y="359"/>
      <point x="351" y="422" type="curve" smooth="yes"/>
      <point x="351" y="513"/>
      <point x="293" y="564"/>
      <point x="198" y="564" type="curve" smooth="yes"/>
      <point x="127" y="564"/>
      <point x="59" y="529"/>
      <point x="28" y="464" type="curve"/>
      <point x="107" y="383" type="line"/>
      <point x="119" y="406"/>
      <point x="141" y="431"/>
      <point x="164" y="431" type="curve" smooth="yes"/>
      <point x="179" y="431"/>
      <point x="184" y="422"/>
      <point x="184" y="414" type="curve" smooth="yes"/>
      <point x="184" y="392"/>
      <point x="166" y="368"/>
      <point x="123" y="329" type="curve" smooth="yes"/>
      <point x="82" y="291"/>
      <point x="53" y="250"/>
      <point x="53" y="193" type="curve" smooth="yes"/>
      <point x="53" y="68"/>
      <point x="169" y="-10"/>
    </contour>
    <contour>
      <point x="556" y="-465" type="line"/>
      <point x="846" y="-465" type="line"/>
      <point x="846" y="19" type="line"/>
      <point x="657" y="15" type="line"/>
      <point x="657" y="-311" type="line"/>
      <point x="556" y="-311" type="line"/>
    </contour>
    <contour>
      <point x="738" y="-10" type="curve" smooth="yes"/>
      <point x="925" y="-10"/>
      <point x="1031" y="105"/>
      <point x="1031" y="275" type="curve" smooth="yes"/>
      <point x="1031" y="431"/>
      <point x="972" y="563"/>
      <point x="770" y="563" type="curve" smooth="yes"/>
      <point x="712" y="563"/>
      <point x="666" y="547"/>
      <point x="639" y="527" type="curve"/>
      <point x="701" y="386" type="line"/>
      <point x="724" y="398"/>
      <point x="741" y="401"/>
      <point x="751" y="401" type="curve" smooth="yes"/>
      <point x="810" y="401"/>
      <point x="839" y="354"/>
      <point x="839" y="273" type="curve" smooth="yes"/>
      <point x="839" y="198"/>
      <point x="794" y="139"/>
      <point x="728" y="139" type="curve" smooth="yes"/>
      <point x="659" y="139"/>
      <point x="620" y="185"/>
      <point x="610" y="219" type="curve"/>
      <point x="533" y="63" type="line"/>
      <point x="562" y="38"/>
      <point x="619" y="-10"/>
    </contour>
  </outline>
</glyph>
<glyph name="i_gkn" format="2">
  <unicode hex="1071"/>
  <note>
i_gkn
</note>
  <outline>
    <contour>
      <point x="-140" y="693" type="curve" smooth="yes"/>
      <point x="-57" y="693"/>
      <point x="3" y="738"/>
      <point x="3" y="822" type="curve" smooth="yes"/>
      <point x="3" y="892"/>
      <point x="-53" y="947"/>
      <point x="-140" y="947" type="curve" smooth="yes"/>
      <point x="-224" y="947"/>
      <point x="-279" y="898"/>
      <point x="-279" y="821" type="curve" smooth="yes"/>
      <point x="-279" y="740"/>
      <point x="-222" y="693"/>
    </contour>
    <contour>
      <point x="-137" y="783" type="curve" smooth="yes"/>
      <point x="-161" y="783"/>
      <point x="-173" y="798"/>
      <point x="-173" y="821" type="curve" smooth="yes"/>
      <point x="-173" y="845"/>
      <point x="-157" y="857"/>
      <point x="-137" y="857" type="curve" smooth="yes"/>
      <point x="-116" y="857"/>
      <point x="-101" y="845"/>
      <point x="-101" y="821" type="curve" smooth="yes"/>
      <point x="-101" y="798"/>
      <point x="-116" y="783"/>
    </contour>
    <contour>
      <point x="-500" y="693" type="curve" smooth="yes"/>
      <point x="-416" y="693"/>
      <point x="-357" y="738"/>
      <point x="-357" y="822" type="curve" smooth="yes"/>
      <point x="-357" y="892"/>
      <point x="-412" y="947"/>
      <point x="-500" y="947" type="curve" smooth="yes"/>
      <point x="-584" y="947"/>
      <point x="-638" y="897"/>
      <point x="-638" y="821" type="curve" smooth="yes"/>
      <point x="-638" y="740"/>
      <point x="-583" y="693"/>
    </contour>
    <contour>
      <point x="-497" y="783" type="curve" smooth="yes"/>
      <point x="-522" y="783"/>
      <point x="-533" y="798"/>
      <point x="-533" y="821" type="curve" smooth="yes"/>
      <point x="-533" y="845"/>
      <point x="-518" y="857"/>
      <point x="-497" y="857" type="curve" smooth="yes"/>
      <point x="-477" y="857"/>
      <point x="-461" y="845"/>
      <point x="-461" y="821" type="curve" smooth="yes"/>
      <point x="-461" y="798"/>
      <point x="-477" y="783"/>
    </contour>
  </outline>
</glyph>
<glyph name="oe_kyh" format="2">
  <unicode hex="1072"/>
  <note>
oe_kyh
</note>
  <outline>
    <contour>
      <point x="-307" y="624" type="curve" smooth="yes"/>
      <point x="-225" y="624"/>
      <point x="-160" y="663"/>
      <point x="-131" y="719" type="curve"/>
      <point x="-250" y="773" type="line"/>
      <point x="-260" y="754"/>
      <point x="-276" y="739"/>
      <point x="-303" y="739" type="curve" smooth="yes"/>
      <point x="-346" y="739"/>
      <point x="-366" y="775"/>
      <point x="-366" y="816" type="curve" smooth="yes"/>
      <point x="-366" y="859"/>
      <point x="-345" y="897"/>
      <point x="-304" y="897" type="curve" smooth="yes"/>
      <point x="-285" y="897"/>
      <point x="-265" y="891"/>
      <point x="-245" y="864" type="curve"/>
      <point x="-138" y="921" type="line"/>
      <point x="-161" y="973"/>
      <point x="-228" y="1010"/>
      <point x="-309" y="1010" type="curve" smooth="yes"/>
      <point x="-426" y="1010"/>
      <point x="-510" y="936"/>
      <point x="-510" y="817" type="curve" smooth="yes"/>
      <point x="-510" y="700"/>
      <point x="-424" y="624"/>
    </contour>
  </outline>
</glyph>
<glyph name="u_kyh" format="2">
  <unicode hex="1073"/>
  <note>
u_kyh
</note>
  <outline>
    <contour>
      <point x="-489" y="623" type="line"/>
      <point x="-285" y="821" type="line"/>
      <point x="-83" y="623" type="line"/>
      <point x="7" y="723" type="line"/>
      <point x="-285" y="1009" type="line"/>
      <point x="-577" y="723" type="line"/>
    </contour>
  </outline>
</glyph>
<glyph name="ee_kyh" format="2">
  <unicode hex="1074"/>
  <note>
ee_kyh
</note>
  <outline>
    <contour>
      <point x="-285" y="619" type="line"/>
      <point x="7" y="906" type="line"/>
      <point x="-83" y="1005" type="line"/>
      <point x="-287" y="807" type="line"/>
      <point x="-489" y="1005" type="line"/>
      <point x="-577" y="906" type="line"/>
    </contour>
  </outline>
</glyph>
